<mxfile host="65bd71144e">
    <diagram id="KwvtM_ioJ-xc_FUsTVH3" name="ページ1">
        <mxGraphModel dx="1050" dy="600" grid="1" gridSize="10" guides="1" tooltips="1" connect="1" arrows="1" fold="1" page="1" pageScale="1" pageWidth="827" pageHeight="1169" math="0" shadow="0">
            <root>
                <mxCell id="0"/>
                <mxCell id="1" parent="0"/>
                <mxCell id="2" value="&lt;font style=&quot;font-size: 16px;&quot;&gt;クラウドで処理&lt;/font&gt;" style="ellipse;shape=cloud;whiteSpace=wrap;html=1;strokeWidth=3;" vertex="1" parent="1">
                    <mxGeometry x="110" y="480" width="200" height="110" as="geometry"/>
                </mxCell>
                <mxCell id="3" value="&lt;font style=&quot;font-size: 16px;&quot;&gt;クラウドで処理&lt;/font&gt;" style="ellipse;shape=cloud;whiteSpace=wrap;html=1;strokeWidth=3;direction=west;" vertex="1" parent="1">
                    <mxGeometry x="461.3" y="480" width="200" height="110" as="geometry"/>
                </mxCell>
                <mxCell id="15" style="edgeStyle=none;html=1;fontSize=16;" edge="1" parent="1">
                    <mxGeometry relative="1" as="geometry">
                        <mxPoint x="250" y="270" as="sourcePoint"/>
                        <mxPoint x="360" y="330" as="targetPoint"/>
                    </mxGeometry>
                </mxCell>
                <mxCell id="4" value="" style="shape=image;verticalLabelPosition=bottom;labelBackgroundColor=default;verticalAlign=top;aspect=fixed;imageAspect=0;image=data:image/bmp,Qk02AAEAAAAAADYAAAAoAAAAgAAAAIAAAAABACAAAAAAAAAAAAATCwAAEwsAAAAAAAAAAAAAgYGB/39/f/9+fn7/gYGB/39/f/+EhIT/hISE/4GBgf99fX3/enp6/3x8fP99fX3/g4OD/4GBgf+AgID/gYKC/3+Cgv9/goL/foGA/4GDg/+ChYT/fX9//4KCg/+AgoT/gIOF/3+Dhf+BhIb/hYeJ/4SFh/+Bg4X/g4SH/4aIiv+GiIr/goOF/4aHif+Ehoj/goOF/4uKjf+CgoT/gYGD/4OFh/+Gh4r/h4iK/4aIiv+HiIr/goOF/4GDhf+AgYT/goSE/4WFhf+AgID/g4OD/4CAgP+CgoL/gICA/4CAgP+EhIT/h4eH/4SEhP+EhIT/hIWE/4CCgv+DhYX/gYOD/4GBgf9+gID/goWE/3t9ff+Ehob/gYOD/4CCgv+Ehob/h4mJ/4SFhv+EhYj/hYeJ/4eJiv+Ehob/goSG/4OFhv+FiIf/h4mL/36ChP+Chof/gYWH/4SKi/+Ah4j/gIeI/4CHiP+Bhof/goaJ/32AhP+EiIr/fIKB/32Eg/99hIP/eoGA/3uCgf9+goH/gIOC/4CCgv9+gID/fX9//36AgP99f3//f4GB/3+Bgf9/gYH/f4GB/31/f/+BhIP/fYB//3x+fv+AgoL/foGA/4CDg/97gH//eX59/36Dgv94fXz/fIGA/3uAf/98gYD/gYaF/3t/f/+AhYT/f4SD/3uDgf+AgID/g4SE/36Af/9+gID/f4GB/4CDgv+AgoL/fX9//4CCgv9/gYH/f4GB/31/f/9+gH//e318/35/gf96e33/foCC/36Bg/98gIH/fX+B/4CChP9/gIL/f4GD/4OFh/9/gIP/gIOF/3+Dhf+Cg4X/g4SH/4eIiv+EiIj/goaF/4OIh/+EiYj/hoiJ/35/gv+DhIb/hIWI/4SFh/+BgYP/iImL/4OFh/+Fhoj/g4aG/4OGhf+DhYX/hIeH/3+Bgf+Bg4P/g4WF/3x+ff+AgIL/g4SE/31/fv9+gYD/g4SE/4GBgf+EhIT/hoaG/4OEhP+AgoL/f4KB/4GBgf9+fn7/g4OD/4KCgv+Bg4L/fIB//36Cgv+ChYX/gYOD/4KEhP+ChYT/g4WF/4aJif+ChIT/g4WF/4GDhf+Ag4X/g4aI/4GFhf+EiIj/hIiK/4SIiv+Dh4n/g4iJ/4WLjP+Ahof/gIaH/4CHiP+Bhoj/goaI/4CEhv+Ch4f/f4SD/32Cgf99goH/fIGB/3+DhP+BhYT/goaG/32Cgf99gYD/fIB//3l+ff98gYD/fYKB/3yAf/96f37/e4B//3h8e/94fHz/eX59/3p/fv97gH//e4B//3yAgP97gH//dnt6/32Cgf99goH/fIGA/3l+ff98gYD/e4B//32Cgv96gYD/fIOC/4GBgf9/gID/f4GB/4GDg/+AgoL/gIKC/3+Bgf9/gYH/fX9//36AgP9/goH/gIKC/32Af/+AgoL/goSF/31/gf+AgYP/gIOF/3+Dhf9/g4X/f4OE/3t+gP9+gIL/gYKE/3+Agv+Bg4X/goSG/4GDhf+ChIb/hYeJ/4KGhf+AhYT/g4iH/4SJiP+Dhof/goSG/4SGiP+BgoX/gIOF/4GDhf+EhYf/g4SG/4WHiP+DhYX/hYeH/4CDgv+Ehob/goSE/31/f/+BhIP/gIOC/4SFh/9/gIH/f4CA/36BgP+DhYT/hYWF/4GBgf+AgID/foCA/4KEhP+AgoL/g4OD/39/f/+FhYX/hISE/4GCgv+ChYX/f4OC/3+Cgf9/gYH/gYSD/4OFhf+Ehob/gYOD/4OFhf+GiIj/hYeK/4KGiP+Ag4f/gYaG/4KHh/+Dh4n/f4OF/4OHiP+BhYb/gYeJ/4CGh/+Ahoj/f4aH/4KHiP+BhYf/foKE/36Cg/+AhIT/gYaF/4GGhf9+g4P/f4OE/36Dgv99goH/e4B//3yBgP98gYD/en9+/3yBgP97gH//eX59/3+Eg/98gYD/gIWE/3yBgP97gH//d3x7/3t/f/97gH//eX19/3yBgP97gH//eH18/3yAgP97f3//dXp5/32Cgf97gH//foOC/32Fg/99hYT/gYGB/4SGhf+BhIP/gIOC/3+Cgf+Ag4L/gYOD/3+Bgf+AgoL/gYOF/4CChP+AgYP/gIKD/36BgP+AgoT/goSG/3t9f/99f4L/f4GD/4CChP+ChIb/g4SG/36AgP+Bg4P/goSE/4KEhP+DhIb/g4SG/4KEhv+Ehoj/gYSF/4GDhP+Fh4j/gYOF/4aIif+Ehob/hYeH/4OHh/+DiIj/g4aH/4OEh/+DhYf/h4iK/4aIif+GiIn/g4WH/4SFh/+BhIT/gYOD/36AgP+DhoX/gYKD/4B/gP+Eg4P/fn5+/4OFhf+ChIT/hYaG/4KEhP9/goH/goSE/3+Bgf+Cg4P/hIWF/4aGhv+Dg4P/gIGA/3+AgP+Bg4T/gYOE/4KDhv+Cg4X/hIeH/4OHhv+Dh4f/goaF/4KGhv+ChYX/hIiL/4aJjP+Dh4r/goWJ/4GFiP+AhIX/hYmL/32Bg/+AhYf/fYOE/3+Fh/+Bh4n/goeJ/4GFh/+AhIb/gYWH/3+Dhf99goP/fICB/4KGh/9/g4X/gIWE/3yBgP93fHv/foKC/3p+fv91enn/e4B//32Cgf98gYD/fIGA/3uAf/97gH//fYKB/3yBgP95fn3/foOC/32Cgf99goH/e4B//3p/fv97f3//dXp5/21ycf9vdHP/dnt6/3R4eP98gYD/gIaF/3qBgP+Dg4P/gIGB/4GDg/+Bg4P/f4GB/3+Cgf99gH//f4GB/4KEhP+DhIb/goOF/35/gf+AgoP/foCA/31/gP+ChIb/gYKE/4KEhv+Bg4X/f4GD/3+Ag/+ChIb/gYOD/4GDg/+AgoL/gYOD/4WGiP+Cg4X/hYeJ/4aHif+Fh4n/hIWI/4KEhv+AgYP/hIeH/4aJiP+DhYX/gYaF/4OIiP+Eh4n/hIeJ/4WHif+Gh4n/hoeJ/4aIiv+HiIr/hIaI/3+Cgf+Ag4L/goWE/4KFhP+Dg4X/g4KD/399ff+CgYH/gIKC/4CCgv+ChIT/gYOD/4KFhP+ChYT/gYOD/3+Bgf+ChIT/goSE/4KCgv+Dg4P/hISE/4B/gf+Fhoj/goOG/3+Bg/9/g4L/g4iH/4KHhv+AhYT/hIiI/4OGhf+Dh4j/hoqM/4aKjf+BhYn/gISG/4CEhf+AhIb/g4eJ/4CGiP+DiYv/g4mL/4CGiP9/g4X/foKD/4OHiP+Choj/g4eI/36ChP9/g4X/fYGD/3yAgv+AhYT/foOC/32Cgf98gID/fYKB/36Dgv98gYD/foOC/32Cgf98gYD/fYKB/3yBgP99goH/e4B//3p/fv9+g4L/foOC/3t/f/97gH//e4B//32Cgf98gYD/cHV0/3d8e/96fn7/f4SD/32Cgf9/hIP/foOC/4GCgv+ChIT/f4GB/3+Cgf+Bg4P/g4WF/4GDg/+Bg4P/gIOC/4KFhf+Ehob/goOF/4CCgv+Ag4L/gYOE/4CChP+DhYf/f4GE/4OFh/+ChIb/goWH/4GFhv+AhIX/gYSF/3+Bg/+ChIb/gIOE/4GEhv+Choj/g4aI/3+ChP+Dhoj/goWH/4GEhv+ChYb/goWG/4KGh/+Ch4f/gISG/4GFhv+BhYf/g4aH/4OHiP+ChYb/homJ/4SGh/+Ehob/homI/4GDg/+ChIT/foCA/4CBg/9/gID/gYGB/4GCgv+DhoX/gIKC/4KEhP+DhYX/gIOC/4GEg/+ChIT/gIKC/4GDg/+AgoL/gIKC/4CBgf9+gID/gYKD/4CBgv+BgoT/goSE/4WHh/+Dh4f/hIiJ/4GGhv+Dh4j/gYWE/4OIh/+DiIn/g4mL/4WJjf+EiIr/g4aI/4GGh/+EiYv/foSG/4KIiv+DiYv/gIaI/4GGiP+Dh4j/g4eI/4CEhv+BhYb/foOD/36ChP+BhYf/fICC/36Cg/95fn3/f4SD/32Cgf98gYD/fIGA/3uAf/98gYD/eH18/3uAf/98gYD/foOC/3yBgP97gH//en9+/3+Eg/99goH/foKC/36Dgv99goH/en9+/4GFhf98gID/f4SD/3uAf/97gIH/f4WF/4CGhf+AhoT/g4WF/3+Cgf9+gID/f4KB/4OFhf+Fh4f/gYOD/4KEhP+Fh4f/goWE/4OFhf9/gYH/gYOD/4CDgv+Ehob/gIGD/4GDhf+ChIf/goSG/4KDhf9+goT/f4SF/4CEhv+Ag4X/gYOF/4CChP9+goT/goaH/4OHif+Dh4j/gISG/4KGiP+Dh4j/goaH/4OFh/+Eh4n/hIiK/4GFh/+Choj/f4OF/4KGiP+Choj/goaH/4WJiP+Ji4v/g4aF/4aIiP+BhIP/hIaG/4GEg/+ChIT/gYOF/4CCgv+AgoH/gIKB/4OGhf9/gYH/hoiI/4GEg/+Bg4P/g4aF/4KFhP+BhIP/goSE/4CCgv+Ag4L/goSE/4KEhP9/gYH/hYeH/4CCg/+BhIP/hIaG/4OGh/+Choj/goaI/4CEhf+EiYj/gYaF/4SKif+Ei4v/goiK/4KGiP+Dhoj/f4SG/4OJiv95f4H/gIaI/4GHif+Ah4j/gISG/3+Dhf+Gioz/hIiI/4SIiP9+g4P/fICC/32Bg/9+goP/f4OD/3p/fv9+g4L/gIWE/3uAf/96fn7/fIGA/3yBgP96f37/d3x7/3yBgP96f37/foOC/3yAgP96f37/e4B//3p/fv96fn7/e39//3l+ff98gYD/gYaF/3+Eg/+BhoX/goeG/3+Fhv9+hYX/foaE/4CHhf+ChIP/gIKC/4KFhP9+gID/fYB//36BgP98f37/fYB//36AgP+ChYT/gIOC/4aIiP+ChYT/hIaG/4KFhP9/gYL/f4GC/4CBg/9/gYP/hoeK/3+ChP+AhIb/gIOF/4KDhv+Ehoj/g4WH/4SGiP+ChYb/fH+B/4OFh/+Ehoj/hoiK/4aIiv+Ehoj/goSG/4KFh/+EiIn/hYmK/4OHiP+BhYX/g4eI/4KGhv+EiIn/hYmJ/4aIif+DhYb/hoiJ/4aJiP+ChYT/g4WF/4OFhf9/gYL/foCA/36BgP99f3//f4KB/4KEhP+Bg4P/gIOC/4KFhP+ChIT/g4WF/4GDg/+AgoL/f4GB/4GDg/+Bg4P/gIKC/4SHhv+FiIf/g4WF/4OGhf+ChIT/goWF/4CEhf+FiYr/g4eI/4SIif+Hi4z/hYqK/4WLi/+Ch4j/hImL/4GGh/+CiIn/hIuM/32DhP+CiYr/hIuM/36Fhv9/hIX/g4eI/4KGh/+AhYT/fYKB/36Dgv+Chof/g4eI/36Cg/9+goL/fICA/3d8e/98gYD/fIGA/3yAgP99goH/f4OD/3yBgP98gYD/f4SD/3uAf/9+g4L/eH18/3p/fv9/hIP/eX19/3yBgP+AhIT/eX59/4CFhP9/hIP/foOC/3+Eg/+Ch4b/f4WF/3+Fhv+BiIj/gIeG/36Bf/9/gYH/hIeG/4KEhP+AgoL/goSE/4GEg/+ChIT/goSE/4GDg/+ChIT/hIaG/4WHh/+BhIP/gYOD/4CDgv+ChIT/f4GB/4GDhP+DhIb/hIWI/4GDhf+DhYf/g4SH/4KEhv+Cg4X/goSG/4KEhv+Bg4X/g4WH/4SFiP+EhYf/hIaI/4WHif+Fhoj/g4aI/4WJi/+EiIn/hImJ/36Dgv+BhoX/goeG/4GFhf+Chof/hoeJ/4iJjP+Fh4n/g4WF/4OFhf+AgoL/f4GB/4CBg/+Ehof/f4KB/4CCgv9+gYD/foCA/4GDg/+DhYX/gIOC/4CDgv+Hion/hIaG/4GDg/+DhYX/g4WF/4KEhP+ChYT/goSE/4GDg/+Fh4f/hYeH/4GEhP+BhYX/fYGD/4CEhv+FiYv/hIiJ/4eLjP+Hi43/hIiK/4OHif+CiIn/gYaI/4OJi/+Bh4n/h42P/4KIif+Bh4n/fYOF/4OHif+Choj/g4iH/36Dgv9/g4P/gYaF/4KHhv+BhoX/f4SE/3+Eg/99goH/e4B//32Cgf99goH/foOC/36Dgv9/hIP/fYKB/3uAf/9/g4P/f4SD/3yBgP95fn3/eX59/32Cgf97gH//fYKB/3t/f/97gH//g4iH/36Dgv+Ch4b/gYaF/3p/fv9/hYb/f4aH/4GIif+DiYv/gIOB/36AgP+AgoL/foCA/4KGhf+ChYX/gYOD/4CCgv+Bg4P/gIOB/4GDg/+Ag4L/goaF/4OGhv+ChIT/gYOD/4OFhf+ChYX/gIOE/4SFiP+DhIf/g4WG/4CChP+Ehoj/hIaI/4SFh/+Fhoj/g4WH/4OFh/+ChIb/goWH/4GEhv+Dhoj/hIeJ/4aHif+GiYv/hYmL/4GFhv+Chof/g4iI/4GGhv+FiYn/g4eH/4aKiv+GiIr/h4mK/4iKi/+DhYX/g4WF/4SHhv+Bg4P/gIKD/4KEhP9/goH/gYOD/3+Bgf+ChIT/hIeG/4KFhP+ChIT/goWE/4KEhP+GiIj/gIKC/4CCgv+BhIP/goWE/4CCgv+BhIP/gYOD/4iLiv+Dh4b/hImI/4SIif+Choj/g4eI/4GFh/+FiYr/hoqM/4aKjP+Gioz/iIyN/4CGiP+CiIn/hIqL/4KIif+GjI3/gYaI/3+Ehv+AhYf/gYaH/4SIif+Dh4f/gYaF/4KHhv+Chob/g4iH/36Dgv9+g4L/gIWE/3+Dg/97gH//foOC/32Cgf99goH/foKC/4CFhP9/hIP/fYKB/3uAf/97gH//fYGB/32Bgf98gYD/gISE/4CFhf91enr/dHp6/3l/f/92fHv/foSD/32Dgv9+hIP/gIaG/4CGh/99g4X/foWG/4CGh/+BhIL/g4SE/4CAgP9+gID/gISE/3+Dgv+ChIX/gIKD/4KEgv+DhoP/g4aF/4KFhf+Ch4b/gIWE/4OFhf+EhYX/g4WF/4GFhv+BhIb/goOG/4CChP+Fh4f/g4WG/4CEhf+DhIf/hIWH/4KChf+Ehoj/iImL/4KEhv+Dh4n/g4eJ/4SIif+Dh4n/hYeJ/4OGiP+Choj/hIiK/4OHif+FiYv/hIiJ/4eLjf+Dh4n/hYmJ/4eJif+Fh4f/h4qJ/4aIiP+DhoX/g4WF/4OGhf+ChIX/hYeH/4KFhP+Bg4P/gIKC/4SGhv9+gID/f4KB/4SGhv+ChYT/gYSD/4KFhP+DhYX/goWE/4OGhf+Ag4L/gYSD/4GDg/+Ehob/homI/4iNjP+CiIf/hImJ/4SIiv+FiYv/hIiK/4KGiP+Hi43/g4eJ/4OHif9/g4T/fYSF/4WLjf+CiYr/hYuN/4aKjP+Giov/gISG/4CEhf+Dh4j/gISG/4OHif+DiIj/gISE/36Dgv9/hIP/gIWE/4KHhv96f37/foOC/3yBgP98gYD/foOC/3+Eg/+Dh4f/fYKB/3yBgP9+g4L/fYKB/36Cgv9+goL/foOC/3yBgP+Dh4f/fYKC/3+Ghv93fX//dnx9/3+Ghf96gYD/e4KB/4CHhv+Ah4j/gYiJ/4CGiP9/hof/gIaH/3+CgP99fn7/gYGB/3+Bgf+AgoL/f4KB/36Bgf+ChIX/foF//4KEg/+ChIT/goWE/3+Dgv+Ag4P/g4aF/4WGhv+DhoX/goaG/4OFh/9/gYL/gYOE/4SGhv+BhIT/goaI/4KEhv+DhYf/gYOF/4OEh/+GiIr/foCC/4eKi/+FiIr/hYiK/4WIiv+Fh4n/hYiK/4aKi/+Choj/hIiK/4SJif+FiYr/g4eI/4GFhv+Dh4f/iYuM/4aJif+Hior/hIeH/4KEhP+BhIT/g4WF/4KEg/+ChYT/gYOD/4GDg/+DhoX/gIOC/4OFhf+ChIT/gYSD/4CCgv+ChYT/goSE/4KEhP+ChYT/g4WF/4OFhf+ChIT/goSE/4SGh/+GiIn/g4eI/4KHhv+Chof/gYWH/4SIiv+Choj/goaH/4WJi/+FiYv/goaH/3+Dhf+Ah4j/g4mK/4KIiv+Fi4z/g4iK/4SIif9/g4X/f4OF/4OHiP+Dh4j/g4eI/3+Dhf+AhIX/f4OD/36Dgv99goH/fYGB/4KGhv9+g4L/e39//36Dgv99goH/fYKB/32Cgf99goH/f4SD/4GGhf9+g4L/e4B//4CFhP9+g4L/fYKB/3p/fv9+g4L/fYSD/3uCgv96gYL/fYSD/36Fhf+Ahob/gIeH/4GIiP+BiIn/gYeI/4OJiv+Ahof/e319/3+AgP9/f3//f39//4KCgv+Gh4f/fYB//3+Bgf+DhoX/goSF/4OFhf+Bg4P/hIaG/4CCgv+ChIP/g4SE/4OGhv+Ch4b/hIiH/4CCg/+ChIT/g4aF/4OFhv+FiIr/g4eI/3+DhP+ChIb/goSG/4SFh/9/gYP/hYaI/4eIiv+Fhoj/hYeJ/4WHif+Eh4n/hYmL/4OHif+Dh4j/goaG/4aKiv+Fion/goaG/4OGiP+IiYv/h4iK/4aIiv+Iioz/hoiK/4aHif+DhoX/goSD/36BgP+ChIT/goSE/4OFhf+BhIP/goSE/4KEhP+GiIj/hYeH/4KFhP+DhYX/goSE/4KEhP+ChIT/hIaG/4SHhv+ChIb/g4SG/4WHiv+Bg4T/hYmI/4CEhf+Choj/goaI/4SIiv+FiYr/g4eI/4eLjP+Choj/goaI/4CGiP+Ei4z/gIeI/4WLjf+Bhof/g4eJ/4WJiv+EiIn/goaH/4KGiP+AhIb/f4OF/4CEhf9/hIP/f4SD/3+Dg/9/hIP/e4B//32Cgf9+g4L/gISE/32Cgf9+g4L/en9+/36Dgv+BhoX/foOC/3yAgP97gH//fYKB/3+Eg/99goH/f4OD/36Dgv+BiYf/gYmH/4CHhv99g4X/f4aH/36Ehf+BiIn/gIeI/4CHiP+Ah4j/gYiJ/4KIif9/gYH/f4GA/4CAf/+Dg4P/fn9//4GCgv+ChIT/hIaH/4SGhv+HiIr/g4WF/4GDg/+Ehob/g4WF/4KEhP+ChYT/hIeH/4GGhf+ChYX/g4WF/4SGhv9/gYH/g4SE/4GDhf+DhIf/g4aI/4SIiv+GiIr/hIaI/4OFh/+DhIb/g4WH/4WHif+Fh4n/goaH/4SIif+Chof/hIiK/4SJif+EiIj/hYmJ/4OIh/+EiIj/hIeI/4OFh/+GiIr/h4iK/4aHif+HiYv/hIWH/4KEg/+Eh4T/gYSD/4OGhf+ChIT/goSE/4GDg/+DhYX/hIaG/4OFhf+ChIT/hIaG/4GDg/+ChIT/g4WF/4SGhv+DhYX/hIaG/4KEhf+HiIr/hYaI/4eJiv+DiIf/hoqL/4GFh/+Giov/g4eJ/4CEhv+Choj/fYGD/4OJiv+Ahoj/hIqL/4WLjP+DiYr/goiJ/4SIiv+EiIr/hIiK/4SIiv+Choj/goaI/4OIif99gYP/gISF/4CFhP9/hIP/fIGA/36Dgv9/hIP/fIGA/32Cgf9/hIP/foOC/3+Eg/9+g4L/fYKB/4GGhf9/hIT/foOC/3yBgP+AhIT/fYKB/4CFhP9+g4L/gYeF/4CHhf+CiYn/gYiI/4GHif+Ei4z/g4qL/4SLjP+BiIn/gIeI/4KJiv+CiYr/gYiJ/3+BgP+CgoH/goKB/4SEhP+AgoL/gIKD/36Agf+AgYT/g4SG/4OFhv+Fh4f/hIaG/4SHhv+AhIP/goWF/4GEhP+Dh4f/goWF/4OFhf+BhIP/gYSD/4OEhP+BgYL/gIGD/4KChP+Ehoj/gYWH/4KGiP+Dh4n/gYWH/4OEhv+Ehoj/goSG/4WJi/+Ch4n/g4eJ/4GFh/+Gioz/g4eJ/4aKjP+FiYr/h4yM/4OJhv+DiIf/hYmJ/4aIiv+Fh4n/h4eJ/4WHif+Ehof/goSD/4KFg/+Ag4L/gIOC/4GEg/+ChIT/gYOD/4KFhP+Fh4f/g4WF/4GDg/+Fh4f/hYeH/4GDg/+DhoX/gYOD/4WHh/+ChIT/hYiH/4KEhP+Dhob/g4iH/4aLiv+Chof/goaH/4SIif+EiIn/g4eJ/4SIiv+Eiov/gYiJ/3+Gh/+HjY//foWG/4SLjP+DiYr/hoqL/4WJi/+EiIn/hYqM/4CGh/9+hIb/gomK/4CFh/+Bhob/gYaF/4CFhP9+goL/foOC/3yBgP9/hIP/gYaF/3p/fv+DiIf/foOC/4KHhv+AhoX/foWE/32Eg/9+hYT/fYSC/36EhP99goT/gISE/4OJh/+BhoX/gIaF/4CGh/+CiYr/gImK/3+Iif9/iIn/gYqL/4OJi/+DiYr/gYiJ/4GHiP+BiIn/gIJ//4GCgP+Cg4H/g4OD/4CCgv9/gYH/g4WF/4GDg/+Bg4P/g4aF/4KEhP+ChIT/g4WF/4KGhf+Dh4b/goeG/4GFhf+BhIT/goWE/4WHh/+ChIT/g4SE/4GBgf+DgoT/goGE/4OEh/+AhIb/gYWH/4CEhv+Chof/hoiK/4SGiP+EhYj/hIiK/4KHiP+FiYr/hYmL/4WJi/+Dh4n/hIiK/4KGiP+EiYn/hImI/4KHhv+EiIn/hoeJ/4qMjv+Ki43/h4iK/4SGh/+ChYT/gYSD/4OFhP+ChIT/hYiH/4SGhv+Bg4P/g4WF/4aIiP+Fh4f/hoiI/4aIiP+ChIT/f4GB/4GDg/+Eh4b/gYOD/4OFhf+FiIf/goWE/4SGhv+Ch4b/goiH/4SJif+FiYr/hIiK/4WJi/+Choj/g4eJ/4SJi/+CiYr/gIeI/4aNjv+CiIr/gomK/4KIiv+Giov/g4eJ/4CEhv+DiIr/foSG/4GHiP9/hYb/g4mK/4GGhv+AhIT/gIWE/4KHhv+AhYT/fYKB/3t/f/9/hIP/gYaF/3+Eg/9+g4L/f4SD/3+Ghf99hIP/foWE/4CHhv98hIP/f4WF/3+Ehv+Ch4f/gIWE/4GGhv9/hob/f4aH/4CHh/+Bion/gYqL/4CIif+AiYr/goqL/4SLjP+Ei4z/gomK/36Gh/97f3z/f4J//4KFgv+EhoT/hIaE/4KFhP+Bg4P/g4aF/4KEhP+Eh4b/goSE/4GDg/+DhYX/goSE/4OFhf+Ehob/goSE/4SIh/+DiIf/hImI/4SJiP+BhIT/gIKD/4KDhv+DhIb/goSG/4SFiP+Ehoj/hoeK/4aIiv+HiIr/iIqM/4eIiv+GiIr/hYiK/4SHif+EiIr/g4eJ/4OHif+EiIr/hYmK/4KGiP+FiYr/hImJ/4KGiP+FiYr/hYmL/4mLjf+HiYv/hYeJ/4SFh/+DhYX/g4WF/4OFhf+GiYj/goSE/4KEhP+DhoX/hIaG/4WHh/+Eh4b/goWE/4WHh/+DhYX/gYSD/4eKif+DhoX/hoiI/4KEhP+FiIf/hYeH/4aJiP+Gion/hYmK/4KGiP+FiYv/hYmK/4aKi/+EiIr/hIiK/4GFh/+EiYv/hIqL/4OKi/+Eioz/hoyO/4aKjP+Dh4j/g4eI/4KGiP+Choj/gISG/4CEhf+Chof/f4SD/36Dgv9/hIP/f4SD/3+Eg/+Ch4b/f4SD/36Dgv9+g4L/gYWF/4GGhf+Dh4f/foOC/4KHhv9+goL/foaE/36Ghf9+hYX/gIaH/4CHiP9/hYX/goeH/4GHiP+BiIf/gYiH/4CIhv+CiYr/goiJ/4SKjP+Di4z/gImK/4GKi/+AiYr/gYiJ/4aKhP+BhIH/foF+/4CDgP+BhIH/f4KA/4GEgf+ChYL/gYSB/4GEgf+Ehob/hIaG/4KFhP+DhYX/hIaG/4OGhf+GiYn/f4SD/4GGhf+BhoX/g4iH/4OHh/+Fh4f/gYKE/3+Agv+Cg4X/goSG/4OEhv+DhIb/hIaI/4WHif+Fhoj/iImL/4iJi/+Iioz/homL/4eLjP+FiYv/hIiK/4SIiv+EiIr/hIiK/4OIiP+DiIf/hIiJ/4WJiv+FiYv/g4eI/4aIiv+Fhoj/hoiK/4GChP+Eh4f/g4WF/4OFhf+DhYX/hIaG/4SGhv+BhIP/iYuL/4aJiP+DhoX/g4WF/4OFhf+DhYX/hIaG/4SFhf+Ehob/hIeG/4aIiP+Ii4r/hoiI/4iKiv+Ii4z/hIiJ/4SIiv+Gioz/hoqM/4SIif+EiIn/gYWH/4SIif+CiIn/gYeI/4CHiP+Bh4n/goeI/4SIiv+EiIr/g4eI/4GFhv+BhYf/g4eI/3+Dhf+BhYX/f4SD/3+Eg/99goH/fYGB/4OIh/+AhYT/f4SD/3yBgP+AhIT/gYWF/36Dgv9/hIP/gYaF/4KHhv9/h4X/foWE/36Fhf9/hYf/f4WG/3+Fh/+Ahoj/f4WH/4OKiv+CiYj/goqI/4OJiv+Eiov/f4aH/4KLjP+AiYr/fIWG/3+Iif+AiIn/g4eC/4CCgP+Cg4H/gYSC/3yCff+BhYD/foB+/4SEgv+Cg4D/g4SB/4CDgv+DhYX/goSE/4SGhv+Ehob/hIeH/4SIiP9/hIP/gYWF/4OHhv+GiIj/hYeH/4WHh/+DhYf/gYKF/4CChP+BgoT/hoeK/4SFh/+Fhon/g4aI/4OHif+Dh4n/g4eJ/4aJi/+Giov/hoqM/4aKjP+FiYv/hoqM/4WJi/+Dh4f/g4iH/4KGhv+Chob/goaG/4OIh/+DiIf/g4iH/4aIiP+ChYT/hYaG/4GDgv+Eh4b/hIaG/4GEg/+Eh4b/hIeG/4aIiP+GiIj/g4aF/4OFhf+ChIT/gYSD/4mJif+FhYX/hISE/4SFhf+Fh4f/hoeJ/4aHif+Iior/houI/4OKiP+Ahob/gYaI/4SHi/+FiY3/hoqO/4CHiP+Ahoj/g4mL/4eLjP+DiIr/gIiJ/4KIiv+CiIj/hImI/4OIh/+Ch4b/g4iH/4OHh/+Fion/goeH/3+Eg/+AhIT/foOC/3+Eg/9/hIP/foKC/4CFhP+Ch4b/gIWE/4GGhf9/hIP/f4SD/4CFhP9/hIP/gYaF/4GGhf9/hoX/gIaH/4GIif+DiYv/gYiJ/4GIif+FjI3/g4qL/4WMjP+Di4n/g4qL/4OKi/+EjI3/f4iJ/3+Iif+Ah4n/gYeJ/4eNjv+BhIH/hYeF/4SEg/+Ag4D/f4N//4KFgf+Agn//goKA/4GDgf+Ag4H/hIaG/4KFhP+DhYX/hYeH/4SHhv+Ehob/hImI/4OIiP+BhoX/g4eG/4SGhv+Ehob/hIaH/4KDhf+AgoT/gIKE/4CChP+Ehoj/g4WH/4SFh/+Dh4n/hYmL/4OHif+EiIr/hIiJ/4SIif+EiIr/hYmL/4WJi/+Gioz/hoqM/4SJif+EiYj/goeF/4KHhv+DiIf/hYqJ/4OIh/+DiIf/hIeH/4OGhf+DhYX/goSE/4SGhv+BhIP/g4WF/4GEg/+DhYX/hoiI/4aJiP+Ehob/hYeH/4OGhf+ChIT/hYWF/4WFhf+FhYX/hYaG/4WHh/+EhYf/h4mK/4eJif+Fiof/g4iH/4GHh/+Gi4z/hIiL/4SHiv+EiYv/gIaI/4KHif+Fi4z/iIyO/4CFh/+CiYr/hIuM/4KIh/+DiIf/goeG/4KHhv+DiIf/g4iH/36Dgv+Ch4b/gIWE/4KHhv99goH/gIWE/3+Eg/+BhoX/gYaF/4GGhf+AhYT/gYaF/4KHhv98gID/hImI/4SIiP+Ch4b/g4iH/4KHhv+Bhob/gIaH/4GHif+DiYr/g4qL/4aMjv+Eiov/hYuM/4WMjP+DiYv/g4qL/4KLjP9/iIn/g4uM/4SLjf+GjY7/hIqL/4KFgv+Cg4L/g4OD/4ODg/+ChIL/goOB/4ODgf+AgoD/foF+/4CDgP+Bg4P/hIaG/4SGhv+Ehob/hIaG/4OFhf+FiIf/gYWF/4eKif+GiIj/hoiI/4WHh/+Fh4f/hIWH/4CChP9/gYP/gYOE/4OGhv+HiYn/hYeI/4WIiv+Fh4r/homL/4WKi/+DiIr/hIiK/4KGh/+Dh4n/hYmL/4aKi/+Giov/hoqL/4WJiv+EiYn/g4iH/4WJif+DiIf/hIiI/4WKif+FiYn/hIiH/4GEhP+ChYT/goSE/4SGhv+ChYT/gYSD/4OFhf+ChYT/g4WF/4SGhv+ChYT/hYeH/4SGhv+GiIj/g4WE/4WGhv+Fh4f/hIeG/4WGiP+Fh4n/iIqM/4iKiv+Hior/g4eH/4eKi/+Dhoj/gYWG/4SIif+Dh4n/g4aI/4iKjP+IjI3/hYmK/4OIif+AhYf/goeG/4KGhv9/hIP/g4iH/4SJiP+Ch4b/gIWE/4CFhP+Ch4b/gYaF/4CFhP+AhIT/g4eH/4GGhf+Chob/gYaF/4CFhP9+goL/gIWE/4CFhP9+g4L/foOC/3uAf/98gYD/fYGB/3yCgv9+hIb/g4mK/4CHiP99g4X/eoGC/3uBgv9/hYf/gImJ/3Z/f/92fn//eIGC/3yFhv96gYL/eH5//3yCg/96gIH/gIKC/4OEhP+FhYX/hoaG/4KCgv+EhIP/g4SB/4OGg/+BhIL/hIeE/4CDgv+DhYX/gYSD/4SGhv+GiIj/hYeH/4SHhv+GiYj/h4qJ/4WHh/+GiIj/hYiH/4SGh/+GiIr/gYOF/4KEhf+ChYT/hIeG/4WHh/+Ehob/g4SG/4WHif+FiIr/hIiK/4WKjP+Fioz/iIyO/4WJi/+FiYr/g4eJ/4GFh/+FiYr/hIiK/4SIiv+FiYn/goeG/4SIiP+Fion/g4eH/4SIiP+Gi4r/h4uK/4OFhf+ChIT/g4WF/4OFhf+ChIT/g4WF/4KEhP+ChIT/g4WF/4KEhP+FiIf/hIaG/4SGhv+ChIT/g4WF/4WHh/+ChIT/g4SG/4WHif+Gh4n/hYeJ/4eIiv9+gID/gYSE/5OWlv+eoqL/srW2/6epq/+goaP/kpSW/4aIiv+Dh4n/f4OF/4CEhf99goH/foOC/36Dgv99goH/foOC/32Cgf99goH/foOC/3yBgP97gH//foKC/32Cgf99goH/fIGA/3+Eg/9/hIP/foKC/36Dgv+Ch4b/gIWE/4CGhf+Bh4b/hImI/4aLiv+FiYn/goiI/4KIiv+Eiov/gomK/4SLjP+Hjo//h42O/4SLjP+Biov/gouM/4OMjf+EjY7/hIuM/4WLjP+Ijo//gIaI/4GIif+EhoX/hoWF/4aEhP+FhYX/goSE/4OFhf+EhYX/goOB/4KEgP9+gX7/gIOB/4GEg/+Fh4f/hYaG/4WHh/+Ehob/gIKC/4OFhf+DhYX/hIaG/4eJif+Ehof/gYOE/3+Ag/9+f4L/f4KC/3x+fv97fH7/eXt8/3x+f/+AgoT/e3x//3+Bg/9/gYP/gISF/3yAgv+Ch4n/gIaI/4CGh/9+g4X/goaH/4CEhf9+goT/e3+B/3t/gP9+g4P/goeF/4OHh/+Ch4j/goaH/4GFhv+DiIf/g4aF/4OGhf+Ehob/gYOD/4OFhf+DhYX/hIaG/4WHh/+DhYX/goWE/4aIiP+Fh4f/goSE/4WHh/+Ehob/hIaG/4SGhv+Eh4j/h4uM/4SHif+GiYv/homJ/4eJif+Hion/ra+v/66xsP+mqan/r7Gx/9zd3v+SlJT/hYiI/4eLjf+Gioz/hYeJ/4SIif+Dh4f/gYaF/4GGhf+AhYT/gIWE/4GGhf+Dh4f/f4SD/4GGhv+Dh4j/hIiJ/4SIif+Chof/gYaF/4KHhv+FiYn/hImI/4OIh/+CiYj/gomI/4OKiv+Fi4v/gYiH/4OJh/+Eior/goiJ/4OKi/+Fi43/goqL/4WNjv+Ci4v/hIyN/4OLjP+Ei4z/goqL/4ONjf+EjI3/hI2N/4KJif+Dior/gIeG/4GDg/+Dg4P/g4KC/4WFhf+EhYX/gYSD/4CCgv+Cg4H/g4SB/4GEgf+Ag4H/hIeG/4KFhP+EhYT/gYOC/4OFhf+Fh4f/homI/4WIh/+GiYj/hYeH/4WGh/+HiYv/hYeJ/4aIiv+HiYn/hoiI/4SFh/+Bg4X/hYeJ/4aIiv+GiIr/hYeJ/4eIiv+FiIr/hIiK/4OIiv+CiYr/h42O/4SJiv+Gioz/hIiK/4OHiP+EiIr/g4eJ/4WKiv+Ch4b/hYqJ/4eLjP+FiYv/hIiJ/4OIh/+Eh4b/g4WF/4SGhv+Bg4P/hIaG/4OFhf+Ehob/homI/4WHh/+DhoX/gYSD/4GEg/+Fh4f/hYeH/4SGhv+Fh4f/hIaG/4OHiP+EiIr/hIiK/4iMjf+GiYr/h4qJ/5eZmf/y9PT/5ufn/9HS0f/Nzs3/s7Oz/4aJiP+Fion/hYmL/4WJiv+FiIr/hoqK/4CEhP+BhoX/f4SD/4GGhf+AhYT/gIWE/36Dgv+FiYn/f4SE/3+Dhf+Choj/gYWH/4SJif+EiIj/hImI/4OIh/+BhoX/f4SD/4GJiP+AiYf/gomJ/4OJiv+Ah4b/gomH/4SLiv+Dion/goiK/4KKi/+DjI3/hI2O/4SMjf+DjI3/h42P/4aMjf+EjI3/g42O/4KMjf+Gj47/gYmI/4GIh/9+hYT/hIiH/4GDg/+Cg4P/hoiH/4KEhP+DhYX/goSE/4KDgv+AgoD/f4F+/4GCgv+CgoL/gYKC/4WFhf+ChIT/hIeG/4OFhf+Fh4f/hoiI/4aIiP+GiIj/g4aG/4aJif+DhYb/hIaH/4WHh/+DhYX/goOF/4OEhv+Fh4n/h4mL/4eIiv+HiIr/hIaI/4SGiP+Ehoj/hIeJ/4OGiP+FiYr/hYmL/4WJiv+FiYv/goaI/4aKjP+EiIr/g4eJ/4KGhv+DiIj/hoqK/4WJiv+Fior/g4iH/4aJif+Fh4f/g4aF/4aIiP+Ehob/hoiI/4WHh/+GiYj/goWE/4aJiP+Ehob/hYeH/4WHh/+Ehob/h4mJ/4SGhv+HiYn/hYmK/4eLjP+EiIr/hoqL/4eKi/+JjIv/qqur//b19v/k4+P/xsbG/8/Pz/+Tk5P/h4mJ/4eMi/+Giov/hImJ/4aIiv+FiYn/goeG/4CFhP9/hIP/f4OD/4GGhf9+g4L/f4SD/4KGhv+BhYX/gIWF/4KGh/+Choj/goaG/4OIh/+Ch4b/hImI/4OIh/+DiIf/goiH/4KKif+BiYn/gYmK/4KKiv+Di4r/g4qK/4SLjP+CiYr/gYmK/4SMjf+DjI3/hI2N/4iRkv+GjY7/h42O/4aNjv+Ciov/gouM/4KKif+CiYj/gYiH/4GJh/+Ch4b/gYWE/4WHh/+Ehob/hIeG/4OFhf+DhoX/g4aF/4SGhv+DhYX/hISE/4GBgf+BgYH/goKC/4GCgv+ChIT/goWE/4KEhP+Ehob/hYeH/4WIh/+GiYj/iIqK/4SGhv+DhYb/hIeG/4KEhP+Cg4X/hIWH/4aIiv+GiIr/h4mL/4iJi/+HiYv/hoiK/4aIiv+Fh4n/hYaJ/4SGiP+Eh4n/hoqM/4SIiv+EiIr/hIiK/4WJi/+EiIr/g4eJ/4KGh/+Ch4b/hImI/4WJif+Ch4b/h4qJ/4OGhf+Ehob/g4aF/4SGhv+Fh4f/h4mJ/4SHhv+HiYn/hYeH/4WIh/+GiIj/hIaG/4SGhv+Eh4b/iIqK/4eKif+Giov/hYmK/4aKjP+EiIn/hYmJ/4uMjP/NzM3/8vDx/+Pg4f/My8v/nJyc/4yMjP+Hion/iI2M/4aKiv+EiYj/hoiJ/4SIiP+EiYj/gIWE/4CFhP9+g4L/gYWF/4GFhf9/hIP/gYWF/4KHhv+Fion/g4eH/4SIiP+DiIf/g4iH/4OIh/+Chob/g4iH/4SJiP+DiIf/gYiH/4CIiP+AiYr/gouM/4GJiv+DiYr/hIqL/4OKi/+Diov/gYqL/4OLjP+FjY7/g4yN/4WMjf+Ei4z/hYuM/4OJi/+Diov/hIuK/3+Hhf+Ah4b/gIeG/4mNiv+GiYj/hIeG/4WHh/+Fh4f/g4aF/4SHhv+ChIT/g4WF/4SGhv+DhIT/gYKC/4KDg/+BgoL/gYOD/4GEg/+BhIP/g4WE/4KEg/+DhoT/hoiH/4eKif+GiYj/hYeH/4SGhv+GiIj/homI/4SGh/+Ehoj/hIeJ/4SIi/+HiYv/h4mL/4eKi/+HiYv/h4mL/4iJi/+LjI7/iYyO/4aJi/+Dh4n/hIiK/4SIiv+EiYn/hImJ/4WKiv+FiYr/hYmL/4WJif+EiYj/g4iH/4OIhv+Hior/hYeH/4OFhf+DhoX/hIeG/4GEg/+Ehob/h4mJ/4aIiP+HiYn/hoiI/4iKiv+Fh4f/hYeH/4eKif+Fh4f/iYuL/4mMjf+Hi43/hYmK/4eLjf+GiYr/i42N/+zs7f/u7u7/4eDg/+Dh4f+foaD/iIqJ/4aIiP+EiYj/iIyM/4WKif+Hi4r/hImI/4WJif+Ch4b/g4eH/4OHh/+DiIf/hIiI/4CFhP+BhoX/g4iH/4SIiP+Ch4b/g4iH/4OIh/+FiYn/g4iH/4KHhv+DiIn/gYeH/4OJh/+Dioj/gYmJ/4OKi/+BiYr/g4qL/4CGiP+Ciov/g4uM/4KKi/+Ci4z/hYyO/4eOkP+Di4v/hoyN/4aMjf+Dioz/goiJ/4KJif9+hYT/gYiH/36FhP+AiIb/zdDN/46Rjv+Hioj/hYiH/4WHh/+Fh4f/g4WF/4KFhP+Eh4b/hIaG/4OFhf+ChIT/goSE/4KEhP+ChIT/goWE/4CCgv+Ag4H/g4aD/4SHhP+FiIX/hYiG/4aIiP+Fh4f/hoiI/4WIh/+GiIj/h4qJ/4OGiP+Choj/gYaJ/4KGiP+EiIr/hIiK/4aJi/+HiYv/iImL/4iKjP+IjI3/h4uM/4eLjP+FiYv/hIiJ/4GFhf+DiIf/hYqJ/4WJif+EiIr/hYmL/4OHiP+Fioj/hYqH/4WJh/+Hion/hIaG/4SHhv+Ehob/hYeH/4SGhv+GiIj/iIqK/4eJif+GiIj/hYeH/4aIiP+Hion/homI/4WIh/+Ji4v/hoqL/4iMjv+IjI3/iIyN/4iLjP+VmJf/9Pb2/87Pz//u8PD/297d/4qMjP+Ii4r/homI/4OIh/+Gi4r/hoqK/4WJif+EiYj/goeG/4OIh/+Dh4f/gYWF/4CFhP+Ch4b/g4iH/4KHhv+EiIj/g4iH/4GGhf+Ch4b/g4iH/4KHhv+Gior/hImI/4GIif+Ah4f/f4aE/4OKiP+Ei4r/hYyM/4OKi/+BiYr/goqL/4GKi/+AiYr/gYqL/4WMjf+HjY//hoyO/4WLi/+Ei4z/g4mK/4OJi/+Ahof/f4aF/4CHhv+Ah4b/gIeG/3+HhP/q7uz/4OPi/6Cjov+HiYn/hIeG/4SHhv+DhYX/hIaG/4OFhf+DhYX/g4WF/4OFhf+Ehob/g4WE/4GEg/+Bg4L/fYB//4KFg/+ChYP/g4aE/4WIhv+FiIf/hIaG/4aJiP+GiIj/h4mJ/4aIiP+GiYj/h4qL/4SIif+Dh4n/hIiK/4SIiv+FiYv/homL/4eKi/+GiIr/h4iK/4aJi/+Iioz/iY2O/4eLjP+FiYv/hYqJ/4WJif+Dh4j/g4eH/4SIiv+FiYv/hIiJ/4OIiP+FiYj/hYiI/4WIh/+HiYn/hYeH/4SHhv+GiYj/hYeH/4WHh/+Iior/hYiH/4WIh/+GiIj/iIuK/4eJif+Iior/iYuL/4aIiP+Hiov/h4uM/4aKi/+Hi43/io2O/7W4t//4+vr/3N7e/+7w8P/W2Nj/iIqK/4iLiv+Iiov/hoqK/4aKi/+Fior/hYqJ/4SJiP+Dh4f/gYWF/4KFhf+BhYT/goaG/4KGhv+BhoX/gIWE/4SJiP+DiIf/goaG/4GGhf+Dh4f/g4iH/4WJif+Gior/hIuM/4SKi/+Dion/hYyL/4KJiv+Hjo//gIeI/4GKi/+Ei4z/gomK/4KKi/+Di4z/hY2N/4aMjf+GjIz/hYyL/4OKiv+Ei4v/f4WG/4GIiP+CiYj/gIeG/4GIh/+Ah4b/gYmG/+fr7P/p7e3/6u3s/7e5uf+HiYn/homI/4WIh/+Eh4b/hIeG/4WHh/+DhYX/hYeH/4OFhf+GiYb/g4aD/4OGhP+AhIH/gYSC/4KFhP+DhYX/goSE/4WHh/+Ehob/hIeG/4aIiP+Hion/h4qJ/4aJiP+Hion/h4qJ/4aIif+EiIr/hYmL/4OHif+EiIr/hoqL/4aJi/+HiYv/iIqM/4WHif+Giov/hoqL/4eMjf+JjY7/hoqM/4eLjP+EiIr/g4eJ/4CEhv+Dh4j/hoqL/4SIif+Ii4v/h4mJ/4eJif+GiIj/hoiI/4eJif+GiIj/iIuK/4aIiP+GiYj/homI/4eJif+GiIj/h4qJ/4eKif+Ji4v/hoiI/4WJiv+Giov/iIyN/4eLjf+Ii4z/0NLS//P19f/u8PD/8fT0/7u9vf+Hion/h4mJ/4mLjf+Dh4n/hYiK/4aKi/+Chob/g4eH/4aJiP+Ehob/g4WF/4KFhf+Dh4b/g4iH/4KHhv+DiIf/goeG/4KHhv+Fi4r/g4mI/4SJiP+EiYj/hoqK/4aLiv+Ei4v/h46P/4SLjP+Ei4z/gYeI/4KIiv+Biov/hIyN/4aMjf+Gi4z/hoyN/4SMjf+FjY7/hYuM/4WMi/+Ei4r/hIyK/3+Ghf+CiYn/g4qJ/4KJiP+BiIf/f4aF/4GIh/+BiIf/mqCh/9PY2f/n6ur/7O3t/9PU1P+Rk5P/ioyM/4aIiP+Fh4j/hYeH/4aJiP+GiIf/hYeH/4WIh/+FiIb/hIeF/4WIhv+ChYT/goSE/4GEg/+Fh4f/g4WF/4aJiP+GiIj/hIaG/4WHh/+Hion/h4qJ/4aJiP+GiYj/h4mJ/4aKi/+Hioz/hYmK/4WKi/+FiYr/h4qM/4qMjf+Iioz/homL/4OHif+Gioz/hImK/4aLjP+IjI3/iIyN/4WJiv+Dh4j/goaI/4WJi/+EiIn/goeI/4WIiP+GiIj/hoiI/4eJif+Fhof/hYeH/4aIiP+Eh4b/homI/4aIiP+GiIj/homI/4aJiP+GiIj/hoiI/4iKiv+Hion/hYiJ/4eLjP+Hi43/iY2P/4yOkP/v8PD/9fX2//P19f/z9vX/mZyc/4mMi/+GiYn/hYiJ/4aKi/+FiYv/hYmK/4KHhv+Ch4b/g4aG/4SHh/+FiIf/hYmI/4OIh/+Ch4b/g4eH/4OIh/+DiIb/f4SD/4CHhv+CiYj/g4iI/4SKif+EiYn/hYqK/4WLjP+HjY7/h42O/4aMjf+Ei4z/g4mK/4OLjP+Ci4z/g4uM/4WLjf+HjY7/hI2O/4SMjP+GjYz/hIyK/3+Hhf+BiYf/g4qI/4SLiv+AiIf/gIeG/4GJh/+AhoX/gIeG/36FhP+JkJH/iY2O/7i6u//s6+3/8O/x/+vs7v+wsrT/jI2P/4uNj/+FiIf/h4uI/4aJh/+Ehob/hoeJ/4eJif+HiYn/hIaG/4SGhv+Ehob/hIaG/4aIiP+DhYX/homI/4WIh/+Eh4b/hoiI/4eKif+Hion/homI/4aJiP+GiYj/iIqK/4aJif+Gi4r/hIuK/4aMjP+JjY7/io6Q/4qNj/+JjI3/iIyN/4WLjP+FjI3/g4qL/4aMjf+Hi4z/hoqL/4WJi/+FiYv/g4eJ/4KGiP+Fion/homI/4WHh/+Ii4r/hoiJ/4WHiP+Fh4f/hYeH/4eKif+HiYn/iIqK/4iLiv+Ehob/iIqK/4iLiv+Iior/iIuK/4iKiv+Iior/iIqL/4WKjP+Lj5L/nJ2g//v7/P/39/f/8vT0/9nc3P+EiYj/iI2M/4eMi/+Gi4r/h4uL/4WKiv+EiYj/g4iH/4SJiP+Chob/g4eH/4WJiP+EiIf/g4iH/4SIiP+Ch4b/goiG/4KIhf+BiIb/gYmI/4KKi/+BiIn/hIuM/4OKi/+FjI3/hoyN/4OKi/+Fi4z/ho2O/4aNjv+Fi4z/hIuM/4GKi/+Ciov/hIyN/4OLjP+EjI3/hYyL/4WMiv+EjIn/g4uH/4KKh/+Gi4r/hImI/3+Hhf+BiYj/f4aF/4GGhf9+hYT/foaF/4qQkv+MkJH/i46P/5WXmf/T1db/7vDy/+vs7v/U1df/kJKU/4qMjP+Ii4n/homH/4WIh/+ChIb/hYeI/4eJif+GiIj/iIuK/4aIiP+GiYj/hoiI/4SGhv+Ehob/hoiI/4aIiP+Fh4f/homI/4aJiP+Iior/iIqK/4eKif+Ji4v/iIuL/4eLi/+Gi4v/hoqL/4aKjP+IjI7/iY2P/4iMjf+Hi4z/h4yN/4WMjf+Fi43/iY2P/4aKjP+IjI3/h4uM/4SIiv+Giov/hYmL/4aLi/+Eh4f/hoiI/4iKi/+Ehof/h4mK/4SGhv+HiYn/homI/4iKiv+Iior/iIqK/4eKif+Hion/hoiI/4eKif+KjIz/io2M/4qMjP+KjI3/h4uM/4qOj/+2t7n/+/r8//X19f/y9PT/tLe3/4aLiv+Hi4v/h4yL/4aLiv+Fion/hIiJ/4SJiP+EiYj/g4iH/4OIh/+Ch4b/g4iH/4OIh/+BhoX/hImI/4SJiP+EiYj/hImH/4OJiP+BiYj/gYiJ/4KJiv+Diov/hYyN/4eNjv+Fi4z/hYuM/4WMjf+EjI3/ho2O/4aMjf+GjY7/ho2O/4WOjv+Gj5D/ho+Q/4OLi/+Ei4r/goqJ/4OLif+BiYf/gomH/4OHhv+DiYf/gYiG/4KKiP9/hoX/f4aF/36FhP9+hYT/iY6Q/4qQkf+LkJH/i4+R/4mNj/+vs7X/3t/h/+fo6v/l5uj/pqio/4mMiv+JjYr/ioyM/4eJiv+GiIj/hYeH/4aIiP+FiIf/hIeG/4WIh/+Fh4f/hIaG/4WHh/+GiYj/hYeH/4WIh/+Ii4r/homI/4aIiP+GiYj/h4qJ/4eKif+Fh4n/iIqM/4eJi/+FiIr/hIiK/4eLjP+JjY7/iIyN/4WJiv+IjI7/houM/4aKjP+Gioz/iIyO/4eLjP+Hi4z/hIiK/4WJiv+FiYv/hYmL/4eJi/+Fh4n/h4iK/4SFh/+HiYr/hIaG/4WHh/+Iior/homI/4iLiv+Hion/iIqK/4iKiv+HiYn/h4qJ/4eJif+Ji4v/ioyM/4uOjf+Iiov/iYuN/9DS0//4+fn/8fLy/9bY2P+RlJP/h4uL/4iMjP+Hi4z/h4uM/4WJi/+EiIr/hImJ/4OIh/+DiIf/g4iH/4KHhv+DiIf/g4iH/4OIh/+Hi4v/iI2M/4WJif+DiIn/hYmK/4SJiv+Eion/g4qJ/4OKif+FjIv/hYuM/4SKi/+Di4z/hIyN/4SMjf+FjI3/hYyN/4aMjf+Ij4//hIuK/4WMi/+GjYz/hYyL/4OKi/+Diov/gomJ/4KJif+BiIf/g4mF/4OJhf+Ch4T/gIeF/32Eg/98g4L/foaE/4CGhf+Jj5H/i5KT/4ySk/+Mk5T/i5GT/4uPkf+ZnZ//2Nnb/+zt7//q7e3/wsTE/4yPjv+Mjo7/iYuL/4aJh/+FiIf/hoiI/4aJiP+Hion/hYeH/4WHh/+FiIf/hYeH/4WHh/+Fh4f/hYeH/4eJif+Ii4r/ioyM/4mLi/+Ji4v/h4qJ/4aIiv+Jioz/hoeJ/4WIiv+FiYr/h4uM/4iMjf+JjY7/iY2O/4eLjP+IjI3/io6P/4iMjv+IjI3/hoqL/4eLjP+Hi4z/hoqL/4SIiv+Dh4n/hYiK/4SGiP+EhYj/hoiK/4mKi/+FiIf/h4mJ/4mLi/+Fh4f/h4qJ/4aJiP+Iior/iYuL/4mLi/+Ji4v/iYyL/4mMi/+Ji4v/i42N/4yOjv+NkI//6+3t//P19f/u8fH/yMrK/4qNjP+Kjo7/iY6N/4iMjP+Hi4z/h4uM/4aKi/+EiIn/hImI/4SJiP+EiYj/hYqJ/4OIh/+EiYj/houK/4SJiP+CiYj/hIqK/4WJi/+FiYv/hoqM/4WKif+Dion/hIuK/4SMiv+GjI3/hYuM/4SLjP+EjI3/hIyN/4SLjP+GjI3/hoyN/4iOj/+Ei4r/g4qJ/4OKif+Ei4r/g4qJ/4KJiv+BiIn/gIaH/4CHhv+CiIT/goiE/4KIhP+BiIT/f4eF/4CHhv+Dion/g4mI/4aNj/+IjpD/iZCR/4qQkv+KkZL/ipGS/4qPkf+Lj5D/tLW4/+vs7v/u8PL/3d/f/56fnv+Nj47/iIuJ/4WLiP+Gioj/hoiJ/4eJiv+Hion/iIqK/4eJiP+HiIj/homI/4WHh/+Fh4f/homH/4eKiP+Ii4j/iIuI/4iKiv+GiYj/h4qJ/4iKiv+HiYr/homJ/4eJiv+Hi4z/houO/4iNj/+JjY7/hoqM/4iMjv+GjI3/h42O/4eNjv+HjY7/iY2O/4mNj/+Hi4z/hoqL/4KHh/+Fion/homJ/4SGhv+Fhof/h4iJ/4eKif+Hion/iYuL/4mLi/+Ii4r/iIqK/4eKif+Ji4v/iYuL/4qMjP+LjY3/ioyM/4uNjf+Mjo7/jY+P/5qdnP/2+fn/8PLy/+/y8v+vsbH/io2N/4uQj/+Kj47/iIyM/4eLi/+Gior/hYmK/4WKif+EiYj/hImI/4eJif+Fh4f/hoiI/4aIiP+Hi4r/gomI/4OKif+Ei4v/hIuM/4OKi/+Fi4z/hYuM/4OKi/+FjI3/hYuM/4WLjP+GjI3/hoyN/4aNjv+Fjo7/ho2O/4iOj/+Ij5D/h42O/4KJiv+Eiov/g4qJ/4OKiP+CiYj/g4iH/4OJiP+AiYf/gYiH/4CHhv+Ch4X/g4mF/4KIhP+DiYb/hImH/4WJiv+FiYr/goqL/4aNjv+Ijo//iY+R/4qQkv+LkpP/jZOU/42Rk/+OkZT/lpea/9TY2v/w8vT/7vDv/7y/vf+Kj4v/iY6L/4iMiv+Hion/hoqJ/4aJif+Ii4r/iYyL/4eKif+Fh4f/hYeH/4aIh/+Eh4T/h4qH/4aJhv+Hiof/hoiI/4eKif+Ji4v/iYuL/4mLi/+Ji4v/iIqL/4eLjP+Eiov/io6Q/4qOkP+JjY//iI2O/4eNjv+HjY7/h42O/4eOj/+JjY//iIyO/4iMjv+Hi4z/houL/4aLiv+Ii4v/h4qJ/4aIif+Iiov/iIqK/4aJiP+Ji4v/ioyM/4qMjP+Iior/iIuK/4qMjP+Ji4v/ioyM/4uNjf+KjIz/jI6O/4yOjv+Mjo7/t7m5//L09P/l6Of/y83N/42Qj/+KjY3/io+O/4iNjP+Hi4v/hYqJ/4aKiv+EiYj/goeG/4WJif+Hi4v/h4qK/4aJiP+Ii4r/hYiI/4OIh/+BiIf/gYmI/4OLiv+Fi4z/hYuM/4WLjP+GjI3/hIqL/4aMjf+Ei4z/hYuM/4eNjv+HjY7/h42P/4iOj/+HjY//h42O/4aMjf+GjI3/hYuM/4WLi/+BiIf/gYmG/4GIhf+EiYj/g4qI/4GJiP+BiIf/gYeG/4KIhv+Eiof/hIqG/4WLh/+Fion/hYqJ/4aKiv+FjIz/hIqM/4mQkf+IjpD/iZCR/4mQkf+KkJL/ipCT/4yQlP+OkZX/jI+R/7a6u//s7vD/8PH0/9DQ0/+RkpP/iIyK/4iMif+Hi4n/iIqJ/4iLiv+Gion/iIqK/4mLi/+HiYn/hYeH/4aIh/+HiYn/h4mJ/4aIiP+GiIj/hYiH/4eJif+Ji4v/h4uK/4eLiv+Gi4r/hYqJ/4WJif+Ii43/iY2P/4qOj/+JjY7/iI2O/4iMjf+IjI3/io6Q/4qOkP+Kjo//io6Q/4mNj/+IjI3/iIyO/4mNjv+JjY7/ioyO/4mLi/+FiIf/h4qJ/4aJiP+Ii4r/ioyM/4mMi/+Ji4v/i42N/4qMjP+KjIz/i42N/4uOjf+Nj4//jZCP/42Pj/+1t7f/0dPT/8TGxf+6vLz/jI6O/4uNjf+JjY3/houK/4aLiv+EiYj/hImI/4eLi/+DiIf/hoqK/4aLiv+Gior/hIiI/4WJiP+FiYj/hYqJ/4WKif+Bh4b/hIuK/4SLjP+Fi4z/hIqL/4aNjv+Ei4z/hYuM/4iOj/+GjI7/iI6P/4eNj/+Hjo//h42O/4eNjv+Ei4z/hIqL/4WLi/+EjIv/hIuK/4KKh/+AiIX/gomG/4OIh/+EiYj/g4mI/4KIh/+EiYj/hImI/4WKiP+Fi4n/hYuI/4aMif+Fioj/lpua/4qOjf+Jj4//h46P/4mPkP+Jj5H/iY+R/4mQkf+Kj5L/ipCT/4yRlP+Pk5T/jZGR/5qdn//Y2d3/7/Dy/+bm6P+jpqX/io+L/4uOjP+Iior/h4qJ/4eLiv+Hior/io2M/4iLiv+Iior/hoiI/4eKif+Iior/h4qJ/4iLiv+Ii4r/iIqK/4eKif+JjIz/h4uL/4eLi/+IjIz/iYyM/4mMjP+JjY7/io6Q/4qOkP+Kjo//iY2P/4qOkP+KjpD/i4+R/4uPkf+Lj5H/iY2P/4qOkP+Lj5D/io6P/4uPkP+Kjo7/io2N/4mLi/+Ii4r/iIqK/4mLi/+KjIz/iYuL/4qMjP+KjIz/i42N/4qMjP+LjY3/jI6O/42Qj/+Nj4//i42N/4+Rkf+anZz/oKKi/5iamv+Mjo7/i46O/4mOjf+Jjo3/h4uL/4WKif+Hi4v/hYqJ/4SJiP+EiYj/hoqK/4aLiv+Fion/hYmJ/4WJiP+Hi4v/houK/4aKiv+Ijo7/hYyN/4WLjP+Ei4z/g4qL/4WLjP+Fi4z/h42P/4WMjf+GjY7/h42O/4aMjf+HjY7/hIqM/4OKi/+Diov/g4qK/4SLiv+Di4n/g4uI/4OLiP+BiYb/g4iH/4OIh/+EiYj/g4iH/4WKif+Fion/h4uL/4eLi/+IjYr/kpiU/8rPzP/x9/X/gYSC/4SRj/+IkI//i4+P/4mPj/+LkJD/i5CR/4yQk/+JkJT/ipKV/42TlP+OlJT/kJWX/46Sk/+8vb//7u7v/+7w8P/CxsX/i46O/4yOj/+JjYz/h4yJ/4eMif+Kjoz/i4yM/4uMi/+Kior/iouL/4mLi/+Ji4v/iYuL/4mLi/+Ji4v/iIqK/4mLi/+KjIz/ioyM/4uNjf+LjY3/ioyN/4qMjv+KjY//iY6Q/4mPkf+Lj5H/i4+R/4yQkv+Lj5H/jJCS/4uPkf+Ijo//iY+Q/4mPkf+Kj5D/i4+P/4qPjv+JjIz/ioyM/4mLi/+LjY3/ioyM/4qMjP+KjIz/ioyM/4qMjP+KjIz/ioyM/4uNjf+KjYz/jZCR/4yQkf+IjI3/iIuM/4uPkP+Kjo//io6O/4qPjP+Kjoz/iY6N/4mNjf+Hi4v/houK/4aKiv+Fion/hYqJ/4WKif+Gior/houK/4WJif+DiYj/goiJ/4OJiv+GjYz/iI6M/4eMjP+GjIz/hoyN/4WLjP+Di4z/ho6P/4ePkP+Gj5D/iI6Q/4eOjv+Ijo7/hIuL/4SLi/+Ei4r/hIuK/4OLiv+CiYj/g4mJ/4SKiv+Eioj/g4qH/4OJhv+EiYj/hImI/4WKif+Fion/h4uL/4eLi/+HjIv/jJGP/77Fwv/u9fL/3OLh/6mwr/8vMCT/W1RP/4mFg/+PkpD/ipGQ/46Tk/+Lj5H/jJCS/4iQkf+JkZP/i5KT/4uSk/+Mk5T/j5OV/46SlP+bnZ//2Nrb/+7w8f/f4uT/nJ+h/4mOjf+Jjor/iI2K/4qNjP+LjY3/i4yM/4yMjP+Ki4v/iYuL/4iKiv+Iior/h4qJ/4mLi/+Ii4r/h4mJ/4qMjP+LjY3/i42N/4uNjf+KjI3/iouN/4iLjf+HjY7/iY6Q/4uPkf+Lj5H/jJCS/4yQkv+NkZL/i5CS/4mRkv+Ij5D/iZCR/4qOkP+LkI//ipCN/4qNjP+KjIz/io2M/4qMjP+Mjo7/i42N/4uNjf+LjY3/i42N/4qMjP+LjY3/jI6O/4yOjv+Lj5D/i4+R/4qOkP+Kjo//i4+R/4yQkv+LkI//ipCN/4qPjP+IjYz/h4uL/4aLiv+Hi4v/hYqJ/4WKif+Fion/hoqK/4eLi/+Fion/hYqJ/4KJiP+Ei4v/hYuM/4WMi/+HjYv/iI2N/4aNjf+GjI7/ho2O/4eQkf+HkJH/iZGS/4aPkP+Jj5H/h46N/4eOjf+GjYz/hIuK/4KKiP+Dion/goqI/4KIh/+DiYj/hImJ/4SJiP+Eiof/hIqH/4SJiP+EiYj/hoqK/4eLi/+IjIz/jJGQ/7u/v//p7+z/2+Lf/6Wtqv+Lk5L/jJWT/yQzHf8pLh7/MCoh/1VPSv+Bh4T/jpST/4qRkf+KkJH/iI+Q/4qPkf+KkJH/ipGS/4qRkv+MkpP/jpOU/4+SlP+NkZL/s7e4/+js7P/s8PH/uLy9/42RkP+KjYz/jY6O/4yNjf+KjIz/iYyJ/4qMiv+KjYv/ioyK/4mLi/+Hion/h4qJ/4iKiv+Ji4v/iIqK/4mLi/+LjY3/io2N/4aKiv+GiYv/hYmL/4eLjP+JjI7/io6Q/4uPkf+Lj5H/jJCS/4uPkf+Lj5H/io+R/4mPkP+Lj5H/jJCR/4uQkf+LkI//i4+O/4yOjv+Ji4v/iYyL/4mMi/+Mjo7/i42N/4qMjP+KjIz/iYuL/4qMjP+Mj47/jZCP/4yQkf+NkZP/jZGT/4yQkf+Lj5H/i4+R/4qPkP+Kjo7/iI2M/4eLi/+Hi4v/hYqJ/4WKif+Hi4v/h4uL/4eLi/+Hi4v/houK/4aKiv+Fion/houK/4aLi/+IjY7/iY6O/4mOjv+Jjo7/h42P/4iOkP+JkJH/iZCR/4mRkv+JkZL/iI+Q/4eNj/+FjIv/hIuK/4SLiv+Di4n/goqI/4OKh/+DiYb/g4mH/4OHh/+DiIf/hIqH/4WLiP+Fioj/hImI/4eMi/+JjY3/io+O/7a6uv/q7+//4eXl/62xs/+KkJH/i5GU/4iRkv+HkpL/MzYn/zI1KP8fJBj/FB4R/ysvIv9fVk7/iYmK/5CQkf+Mj43/io+O/4qNj/+JkJH/ipGS/4qRkv+NkZP/j5OU/42SlP+NkpT/l5ud/9jc3f/t8fP/2Nvd/5mbnP+Oj4//jIyN/4qNjf+IjIn/io2K/4uOi/+JjIn/iYuL/4eKif+Hion/h4qJ/4iKiv+Iior/iYuL/4uNjf+KjY3/iY2N/4WJi/+FiYv/h4qM/4iMjf+JjY//i4+Q/4uPkf+MkJL/i4+R/4yQkv+KjpD/io6Q/4uPkf+Lj5H/i4+R/4uPkf+Lj5D/i46N/4qMjP+Iior/i42N/4uNjf+LjY3/ioyM/4mLi/+KjIz/i46N/42Qj/+OkZD/jJCR/46Sk/+NkZL/i5CS/4uPkP+Lj5H/io6Q/4mNjf+JjY3/iY2N/4WKif+Fion/hYqJ/4eLi/+Hi4v/h4uL/4aLiv+Fion/hoqK/4eLi/+IjI3/h4uM/4qOj/+Kjo//iY2P/4iNj/+Ijo//iY+R/4mQkf+KkJH/iI+Q/4iOkP+HjY7/hYyM/4WMi/+Dion/g4qJ/4SLif+Di4j/g4mG/4OJhf+Ch4X/g4iG/4WKiP+Gi4n/hoyJ/4eMiv+IjYz/iI2M/6SpqP/e4+P/4ebn/7G3t/+PlZX/jJGU/4qRlv+KkZb/iZOW/4WQkf87Ni3/OzYu/x0mG/8jOSn/Iy4c/yMnF/8nLCP/VFpS/3l2cf+FjIr/iIyJ/4GKiv+Fi4v/iY6P/4uQkf+Pk5T/jpSW/46Vlv+PlJb/kpWX/7vAwf/o7u//6Ozt/6+ysv+QkpP/i4+Q/4iNi/+Ljov/jI+M/4uNjP+KjI3/ioyM/4mMi/+KjYz/io2M/4qNjP+KjYz/ioyM/4uNjf+KjY7/h4qL/4eKjP+Hi43/iIyP/4mNjv+KjpD/i4+R/4yQkv+MkJL/jZGT/42Rk/+MkJL/i4+R/4uPkf+Lj5H/i4+R/4yPkP+LjY3/iYuL/4qMjP+LjY3/i42N/4uNjf+KjIz/iYuL/4qMjP+LjY3/jI+O/42Qj/+NkJD/jpGT/4uQkv+KkJP/io+R/4qPkf+Kj4//io+O/4iNjP+IjYz/h4uL/4WKif+Gior/h4uL/4eLi/+IjIz/houK/4iMjP+IjIz/iIyM/4iNjv+JjpD/iI6P/4mOkP+Jjo//iI6P/4iQkf+IkJH/iI+Q/4iOkP+Ijo//h42N/4WMjP+FjIv/hIyJ/4OLif+Di4n/g4uJ/4OLiP+Dioj/g4mH/4WLif+HjIr/hoyJ/4mOiv+IjYn/iY2K/6GkpP/X29z/7PHx/7i+vv+NlJX/jJSV/4uRkv+LkZP/iZCU/4WNkv+EjZD/g46Q/2lqZv8zODL/Jy4n/yovJf8eLBv/IkAs/yhALP8+RDb/Ozwz/15aVv+NiIT/jpGQ/4mPjf+JjY3/i46Q/42Qkv+MkpT/i5OU/42TlP+RlJb/jpOU/5qhov/U2tv/7vL0/8rNz/+Slpj/j5ST/42Qjv+Mj4z/i46N/4yOj/+LjY3/ioyM/4uNjf+Mjo7/jI+N/4yOjf+Nj4//jpCR/4+Rkv+LjY7/iIuM/4WLjP+JjpD/i4+R/4uPkf+Lj5H/io6Q/4yQkv+NkZP/jJCS/4uPkf+Lj5H/io6Q/4uPkf+Lj5H/i4+P/4uOjf+Ljo3/ioyM/4uNjf+Mjo7/jI6O/4yOjv+KjIz/ioyM/4yOjv+Mj47/jZCP/4+Rkf+QkpP/i5GT/4mQk/+KkJP/io+R/4qPjv+Kj43/iI2M/4eLi/+Gi4r/hoqK/4eLi/+Hi4v/h4uL/4aLiv+Hi4v/iI2M/4eLjP+JjY7/h42O/4iPkP+HjY7/iY+R/4mRkv+JkZL/h5CR/4aPj/+Hj5D/h42O/4aNjP+FjIv/hYyL/4WNiv+EjIn/hIyJ/4OLiP+Dioj/g4uJ/4WMi/+FjIv/ho2L/4eOi/+Ij4v/ipCK/5idmP/T1tT/6e7u/7q/wP+Rl5j/jZSV/4mSlP+IkpT/iJCS/4WMjv+Fj5H/hpCU/4iSlf+PmJv/oamp/5qnpf9veXb/RUhB/yg2Jv8+cFf/N0g4/zo8Mf85Qjf/NjQr/z05L/9jW1b/iYuF/4qSjv+IkY//io+Q/4qRkv+LkZL/jpOU/4+Ulf+OlJX/j5SW/46TlP+2urv/6+7w/97h4/+hpaX/jI+O/4yOjf+Ljoz/jI+N/4yPjv+Mj47/ioyM/4qMjP+KjYv/i46M/4yOjf+Mjo3/jY+P/4yNjv+JjI3/hoqL/4eMjv+Jjo//io+R/4qPkf+MkJL/jJCS/4yQkv+MkJL/i5CS/4mOkP+Jj5D/ipCR/4qPkP+Mj5D/jI+O/4yOjv+Mjo7/i42N/4yOjv+Nj4//jI6O/4uNjf+LjY3/jY+P/42Qj/+PkZH/kZOT/5GTlP+NkZL/i5CS/4uQkv+Lj5H/iY6O/4mNjf+Hi4v/hoqK/4WKif+Gior/h4uL/4eLi/+Hi4v/h4uL/4eLi/+Jjo3/iIyM/4iNjf+JjpD/iY+S/4mPkv+Ij5H/iJCR/4iQkf+JkZL/iJCR/4eOj/+GjY3/ho2M/4aNjP+EjIr/hYyJ/4SLif+Fi4n/hIqI/4OLif+FjIv/h42M/4iMjP+JjYz/io+O/5OZmP/K0M7/6/Du/73Cwv+Ql5f/jpWW/4yUlf+KkpP/iJCU/4aOkv+DjZD/gYyP/4KPkf+EkpX/kZ+j/5+rsf9tdXb/iJKR/56opv+iraz/g42H/1N3Y/8xOzH/MzYv/yozKP8yOS3/NjUp/zIuIv87NCz/YFtX/4SHgv+OkY//j5GT/42Qkv+MkZL/jJKT/4+Ulf+RlZb/kpSW/5GVlv+coKH/2Nze/+nt7v+/wcP/jpCR/4uOjP+Mj4z/i42N/4uNjf+KjIz/ioyM/4mMiv+JjIn/i46L/4uOjP+Ljo3/jI6O/4yOjv+LjY3/iIyN/4eNjv+Jj5H/iY+R/4uPkf+Lj5H/jJCS/4yQkv+LkZP/ipGS/4qQkv+KkZL/i5GS/4yQkP+Mjo7/ioyM/4uNjf+LjY3/jI6O/4yOjv+LjY3/i42N/4uNjf+Nj4//jZCP/46RkP+Rk5P/qKqq/6Smp/+eoKH/io2P/4iMjv+IjI3/iIyN/4eLjP+Gi4r/h4uL/4aKiv+Hi4v/iIyM/4eMi/+IjIz/h4uL/4eMi/+IjYz/iI2M/4eNjv+IjpD/iY+T/4iQkv+IkJH/ipCS/4mPkf+IjpD/hoyN/4WMjP+FjIv/hoyL/4SLif+Fion/hoqK/4eLiv+Gi4v/hoyM/4eNjP+IjY3/io6O/4+Tk//AxcX/6u/w/8LJyv+Rlpf/jJSV/42Ulf+Jk5P/hY+Q/4SNjv+GjZH/hY6R/4mUmP+Lmp3/l6eq/6CwtP+pur//rsHG/21zc/9sc3P/a3Ny/3qGh/+VnaL/l62l/42Wkv9cYFz/KjQn/zI7Lf83NCj/Ki8k/xwwIf8wMyn/Njcu/2ZiXf+NjIz/jJGR/4uQkP+NkpL/kZSW/5GUlv+SlZj/kZaY/5GWl/+Tl5n/vcHC/+vv8P/V19j/l5mY/4+Rjv+Mjo3/i42N/4uNjf+LjY3/jI6M/4qOiv+KjYr/i46L/4yOjP+Mjo3/jI+O/4yPjv+Kj47/iY6O/4mOj/+JkJD/io+Q/4uPkf+Lj5H/jJGS/4uSk/+LkZL/i5CS/4uRkv+LkZL/jJCR/42RkP+OkJD/jI6O/4uNjf+LjY3/jI6O/4uOjf+LjY3/i42N/42Pj/+OkZD/jpGQ/6Snpv/1+Pf/9vn5/7S3tv+Lj4//iY6O/4mNjv+JjY3/iIyM/4eLi/+IjIz/h4uL/4iMjP+IjYz/iY6N/4iMjP+Jjo3/iY6N/4uQj/+Jj47/iZCQ/4qRkv+KkZP/ipGS/4qSkv+KkZH/h42O/4eNjf+FjIz/hYyM/4WLiv+Hi4v/h4uL/4WKif+Gi4v/h4yL/4eMjP+IjY3/iY2N/4uQj/+yt7b/4ujo/8jPz/+XnqD/ipKU/4yTlf+MlZb/i5SW/4iUlf+GkpP/g46O/4iTlv+RnJ//m6mt/5uqr/+ktbn/nrC0/5+ytP+ktrr/aG1s/2lub/9rcHL/a3Jx/25wdf9pfXv/iZGT/6Wrqv+XoZj/Y2xk/zM5Mf8uNCr/QGBP/zZINv8lMSL/Ji0e/zc3Lf9WU07/eXZz/39+fP9+f4D/foGE/36Chv9+hIX/foOE/4SDhv+DhIb/jY6Q/9DR0//b29z/oKCf/4GCf/9/gn//fX9+/3t+ff99gH7/foJ+/3+Dfv+DhoL/homG/4eKiP+KjIz/jI6O/42Qj/+Lj4//io6O/4iOjf+JkI//jJCR/4yQkv+KkpP/i5KT/4uQkv+Lj5H/jJCS/4uRkv+NkZH/jZGR/46RkP+Mj47/jI6O/4yOjv+Mj47/i46N/4uNjf+Mjo7/jZCP/4+Rkf+OkZD/uLy7//P29v/t8vH/kJWU/4qOjv+Jjo3/iIyM/4iMjP+IjIz/iI2M/4iMjP+IjYz/iY6N/4mOjf+Jjo3/iY2N/4mOjf+LkI//i5CP/4mQj/+KkZD/ipKS/4uSkv+LkZL/ipGP/4iOjf+IjIz/hoyM/4WNjP+FjIv/houJ/4eLiv+Gior/h4uL/4aMi/+HjIz/io+O/4uPjv+xtbX/4ubm/9DV1f+ZoaH/iZKT/4qUlf+Lk5b/h5CT/4aOkv+EjpH/hJCS/4eSlf+QnJ//o7Cz/8DO0v+uvcL/mqmt/5iprf+XqKv/lqan/5Ohof9qb27/bXJy/21xcv9scnL/b3F1/2Fvb/9tcnX/bnR3/4CHif+VnJz/n6Sj/3l+ev9TW1D/PEQ3/yUuHf8eNyH/HjUi/ys0Jf8wOCz/YmNa/4+Mi/+MkJP/i5KU/5CUlf+TmJf/kJSV/5GUlf+Rlpf/kpSW/72/wf/w8PH/1NbW/5aZmP+QkpL/j5GR/42Qjv+Lj4v/iYyI/4aJhv+GiYf/iIqI/4eJiP+Mjo3/jZCP/46RkP+NkI//i5CP/4uQj/+Lj5H/i4+R/4qRkv+MkpP/jJGS/4yRkv+NkZP/jZKT/46Sk/+PkpL/j5KR/42Qj/+NkI//jZCP/42Qj/+Mjo7/jI6O/42Pj/+OkZD/kJKS/5CSkv/S1dT/9Pf2/83R0P+MkJD/i4+P/4mOjf+IjIz/iIyM/4iNjP+IjIz/iI2M/4mOjf+JjY3/iY2N/4mOjf+Jjo3/iY+O/4qQj/+KkJD/iZCP/4mSkP+Lk5H/i5KR/4uQj/+Kj47/iY2N/4iMjP+HjIz/hYyL/4eMi/+IjYr/io2K/4qNjP+Kjo7/h42N/4eNjP+mq6r/3+Lh/87T0v+Zn5//ipKS/4yWl/+Kk5X/h5CT/4WOkf+DjZD/goyQ/4aUmP+bqa3/oq+y/6q6vP+muLr/rL/C/6Kytv+Wo6n/lKOm/4qZmv97hYX/cXl4/2pvbv9pbm7/ZWpr/2Nnaf9lZ2v/aGxt/2Zoav9kZ2r/YGdr/15maf9obXD/f4OE/4+Vlv93fn3/UFhO/y88L/8vSjr/MDgr/yczJf8qLyD/NDMo/19iXf+FjIf/jpCM/46Qj/+Nk5L/j5WX/5GVlv+RlZb/kZKU/52fof/Y2tv/6evs/6qrrf+OkJD/j5KQ/42Qjf+NkI7/jpCP/46Pjv+Oj4z/jo+M/4yPjP+Mj47/jZCP/4+Rkf+QkpL/jpGQ/42Rkv+OkpP/jZGT/42Rk/+LkpP/jJKT/4ySk/+Ok5T/j5OT/4+Skv+PkpH/jZCP/42Qj/+NkI//jZCP/4yPjv+Mj47/jY+P/4+Rkf+Rk5P/j5CQ/+fo6P/3+Pj/paio/42Skf+Kj47/iY6N/4iMjP+IjIz/iIyM/4iNjP+IjYz/iY6N/4iMjP+IjIz/iY6N/4yRkP+JkJH/iZCR/4mQkv+JkJH/ipKQ/4uTkv+KkpD/iI+O/4iOjf+IjYz/iIyM/4iMjP+HjIv/h42K/4mOi/+Jjov/ipCN/4qOjv+mqqr/2d3d/8/U0/+boaD/jpaV/46Wlv+Kk5X/h5CU/4SMkf+GjpH/i5SX/42ZnP+hr7T/scHH/6u7wf+ltrn/obK0/5mqq/+Vpqj/kZ+j/4mTlv91gIL/ZnFy/2p2df9teHf/am9u/3B0dP9xdXb/b3N1/21xcv9rb3D/bG9v/2pub/9mbHD/aG9y/2pvcP9qb3H/bHJz/4CHiP+Nmpr/iY+N/1ljXf87Ni//KCsg/yQ6Jv8eQyv/KU01/yg6KP9ZW1L/hYaB/4eOjv+IkpL/kJSV/5OXmP+Slpf/kpaY/5GTlf+6u73/6+zu/8LExP+TlpT/j5KQ/4yQjv+OkI//jY+N/4yPjP+Njoz/jI6M/42Qj/+OkZD/j5KR/5CSkv+PkpH/j5OT/4+TlP+Pk5T/jpKU/4uRk/+KkZL/i5KT/42TlP+Pk5P/kJOT/5CTk/+OkZD/jpGQ/46RkP+OkZD/jZCP/42Qj/+OkZD/kJKS/5KUlP+am5v/6+3t/+fp6f+Ok5L/ipCP/4qQj/+Jjo3/iIyM/4iNi/+IjYz/iY6N/4mOjf+Jjo3/iY6N/4qPjv+Kj4//ipCP/4mQkf+LkpP/jJOU/4ySk/+Mk5L/i5KR/4iPjv+Hj4z/iI6K/4iMiv+Hi4v/iIyM/4mNjP+Jj4v/io+M/4mOi/+SmJj/yc7O/9XZ2f+fpKP/kJST/5OYl/+Tmpn/k5qZ/4yVlv+MlJj/kJic/6Orr/+3w8b/oK+y/6Cxtf+vwMT/orO4/5eoqP+Rnp7/hpKT/3V+gf9rdXf/Zm9x/2pzc/9rdHT/bXd1/212df9xdnj/bXFz/2tucP9qbnD/aW9w/2hub/9pbW//aW1v/2lsbv9obXD/am5w/2tvcP9rcHL/a3Jz/2l0df94gYL/i5iY/46Zl/9reW3/NFE7/z5xVf88f17/MWpL/ylBKv86PjD/ZWtj/4GQi/+Rl5T/kpeW/5SYmf+Tlpr/kpaY/5KWmP+ZnZ7/19vc/+Dk5P+jqKf/io+O/4qOjv+Lj4//jY+P/46Pj/+Njo3/jo+M/4+Qjv+OkY//kJOQ/5CSkv+Pk5P/j5OU/5CUlf+NkZT/jZGT/46Sk/+Mk5T/jJSU/42UlP+OlJP/j5OT/42Skf+MkI//jZCP/46RkP+NkI//jI6O/42Qj/+Qk5L/kpSU/5CUlP+LkJD/jJKR/4uTkv+KkpD/iI+O/4eNjP+IjYr/iI2K/4iNiv+Jjoz/io+O/4qPjv+Kj47/i5CP/4uQkv+MkpP/i5KT/4yTlP+Ok5P/jZGR/42Skf+JjY3/iI2M/4iNiv+Ijor/iI2K/4iNi/+JjY3/iI2M/4qOjf+Vl5f/z9LR/7W8u/+SmJr/ho2O/4+Rk/+QkpT/j5GS/4yPjv+MkI//jpWV/6Ktrv+6xsn/vMrO/8XT1/+pubr/jp6g/46eov+FlJj/f42O/215ef9rdnf/c3x9/252d/9sdHX/a3R0/2x1dP9veHf/cHl4/250dP9ydnf/c3V3/3J1d/9ucnT/bnN0/29zdf9scnT/bXJ0/25ydP9tcXP/b3J0/21yc/9qcXL/a3Jz/2x1dv9qgYD/XoB8/2KIgf95lY7/eZiI/1GDZf82bE7/PHNX/y1TOP8aMhn/LDYi/1phWf+HjIn/k5aZ/5KWmv+TmJr/kZaV/5KWl/+Slpf/sra4/+fr6/+/w8P/j5ST/46Skv+OkZD/kJKS/4+RkP+Oj4z/jZCN/46Rj/+Pk5D/kJKS/5CTk/+Qk5T/kJSV/5CUlf+Pk5T/j5OU/42TlP+Mk5T/jpOU/46Tk/+Pk5P/jZKR/4yQj/+NkI//jpGQ/42Qj/+Mjo7/jZCP/4+Skf+SlJT/kZWU/4+VlP+NlJP/i5OS/4qSkP+Ij47/iIyM/4iNiv+IjYr/iI2L/4mOjf+Kj47/i5CP/4uQj/+LkI//ipCR/4qRkv+LkpP/jJKS/4yRkP+Kj47/iY2N/4iNjP+IjIz/iI2K/4iOif+IjYr/iY6M/4qPjv+NkpH/ur6+/9fc3f+ssrX/jpeX/5CXmP+MlJX/iY+Q/36Hif98iIz/jZid/5Ofpv+ktLz/oLK5/6S1vP+ltrv/prW3/5ytrv+To6X/e4mJ/3iEhf94hIT/e4aE/3mEgv94gIH/eYKD/3qBgv92fX3/bHRy/2xzcv9pcG//bnV2/3B3eP90e33/d35//3h7ff9xd3j/cHZ3/3F7fP9fcnL/Y3d2/214ef9vc3T/b3N1/21zdP9udHX/cHR2/3F1d/9wdnj/a319/2CKhv9riYb/fpKN/4mZkf9hd2n/OFA+/ytMM/8uTjb/FzId/ygxIv9fWVX/hoqI/4ycl/+RmJb/k5iW/5OXmf+Tl5r/mJuf/8nNz//d4OD/n6Cg/5KSkv+SkpL/kJKS/46RkP+NkI//jZCP/42Qj/+OkZD/kZKS/5GTk/+RlJT/kJSV/4+TlP+Pk5T/j5OU/46TlP+Pk5T/j5OT/4+Uk/+PlJP/jpKR/46RkP+QkpL/jpGQ/42Qj/+OkZD/kJKS/5KUlP+Qk5L/kJOT/5CTk/+OkZH/jI+P/4qOjf+Jjo3/iY6N/4mOjP+Jjo3/io+O/4uQj/+MkZD/i5OS/42Uk/+OlZT/jpWU/42Sk/+MkZD/i5CP/4mOjf+IjIz/iIyM/4iMjP+Jjoz/io+N/4ySkP+Ok5L/tLe3/9HW1/+osLL/jZaa/4yVmv+Kk5X/hY+P/4aPj/+BjI7/kaCj/5iprP+nt7v/m6uu/4+hpP+Vp6n/h5eZ/3uIiv9yfH7/a3Jz/291d/9tdXb/Z3Fx/2hycP9ncW//Z3Bu/2Rrav9lbWv/Z21u/2Vsa/9mbmz/Zm1s/2ZtbP9tc3X/bXN1/21yc/9wc3X/c3R2/3J2d/9wdHb/aXFz/2hyc/9qc3T/cHh5/3V4ev9xdnj/cXd5/3J2eP9wdHX/cXV2/3F1dv9sdHX/cHJ0/293ef9ndHT/a4uI/3GZlP+Vo6H/cn53/0FRRf8zSzz/Ljkr/ycvH/86Nyv/X1hQ/4uOh/+Wmpb/lJiY/5OXmf+Tl5r/kZaX/62xsP/m6Oj/uLm5/5CRkf+NkZD/jJGQ/42Qj/+NkI//jY+P/46RkP+SkpL/kpOT/5KUlP+Rk5P/kJSV/5CUlf+Pk5T/jpKT/4+Tk/+Pk5P/j5OT/4+Tk/+OkpL/jpGQ/5CSkv+OkZD/jpGQ/4+Skf+Rk5P/nqCf/+Tm5v/GyMj/jI6O/42Qj/+Mjo7/io6N/4qPjv+Kj47/io+O/4qPjv+LkI//jJGQ/42Skv+NlJP/jpWU/46VlP+Mk5L/jZGR/4uQj/+Kj47/io+O/4qPjv+Jjo3/io+O/4yRkP+KkpD/qbCv/9LW1v+wtLT/jpWW/4yVmP+JlJf/iZWZ/4OPkv+MmJr/oq6v/6+7vv+mtbf/nq2x/5Geof+Qm57/gYyP/3F6ff9sdXf/bHZ3/212dv9sc3L/anFw/2lzcf9qc3L/aHJw/2Vvbf9nbm3/aG9u/2pxcP9qcXD/Zm1s/2Rraf9jamn/ZGtq/2h0c/9tb3D/bm9y/3Bwcv9wcXD/cHFx/29zc/9xdXf/c3h5/3R5ev9vdXf/cnZ4/3R4ef91eXv/en6A/3h8ff90eHr/b3N1/2xxcv9xcnT/bXFy/2lwcv9ldHX/aYOC/25+gP+IkpL/i56c/3mCf/9DSkb/L0Iw/zdJNv86OCz/Ozkv/2VnYf+Oko7/lJmW/5OZmP+Smpn/k5qY/5yhoP/S1dX/0dLT/5aYmv+QkpP/jpGR/4yRkP+MkZD/jpGQ/4+Skf+Tk5P/k5SU/5GTk/+SlJT/kpSV/5CUlf+OlJX/jpOU/46Sk/+OkpL/jZKR/42RkP+Pk5D/kZSR/5CTkP+Pko//kZSR/5KVkv+1uLb/9fj2/7Czsv+QkpL/jZCP/4yPjv+Lj47/io+O/4qPjv+KkI//ipGQ/4uSkf+Lk5L/jpWU/5GWlf+QlZT/jJGR/4yRkP+LkI//io+O/4qPjv+LkI//i5CP/4yPkP+OkJH/n6Sl/8vR0f+zurr/kJeX/5CXmP+Plpf/i5OU/4mTlf+Qm57/pbK2/8LQ0v+vvsD/pbS0/5qpqv+KmJr/doKD/295ev9tc3X/bXFz/2xxc/9pcXH/Z3Bv/2dxbv9ocG3/ZnBs/2Zwbf9ocm7/ZnFt/2hxb/9nbm3/aW1t/2ptbP9qc3D/aXVy/2Z0cv9mdnb/QHtk/1Z7b/9Vb23/Wm5v/2l2ef9oc3b/bnN2/3F1d/9ydnf/dHh5/3d7fP9zd3j/bXJz/25zdP9ydnj/eXx+/3p/gP99gYL/fH+A/3l7ff9zd3j/bXN0/21ydP9zd3j/c3R2/3N1d/9rfXz/eoGC/5Scm/+KmJL/UmBY/zI0Lf8wLij/LjEp/zg+N/9nbWf/k5mW/5Scmf+TnJr/kpqa/5SZmP+1uLn/3uDi/6Kjpf+RlJP/jJGQ/4yRkP+NkI//j5GQ/5KSkv+Tk5P/kpOT/5KUlP+SlZb/kJSV/46Ulf+Pk5T/j5OT/46Tkv+OkpL/jpKR/5CTkP+RlJH/kJOQ/5CTkP+RlJL/kpWT/7K1s//T1tP/kpST/42Qj/+NkI//jZCP/4yQj/+LkI//i5CP/4ySkP+Lk5L/jZST/46VlP+PlpX/kJWU/4yRkP+LkI//io+O/4qPjv+Kj47/io+O/4qQj/+MkpH/n6Sk/8fLzP+0urv/j5eY/5GZmv+Olpf/ipGT/4mQkv+fp6j/r7i5/52pq/+ruLv/pLK0/5mjpv+Lk5X/dX9//2t2df9rdXb/aXFy/2pxcf9qcXD/aXBw/2lwcv9pcnD/Z3Ju/2dybf9ncW3/aHJu/2hzb/9ncW7/aHFw/211dP9sd3b/bHh0/2J+d/9Vi3//RpiF/zmRfP87mXX/RJt7/0iXe/89inT/Qnt0/1yGgv91kI//b4mH/2V8ev9menj/a3Jz/3ZydP91dnj/eHp8/3p7ff94eHr/c3d4/251df9yd3j/dXd5/3V5ev93fn//d31//3V5e/9wdHb/dXZ3/3V3ef9zeXr/cnh6/3N7e/+Hj47/mZyd/2tsbf81OjP/KTYh/xw3G/8zRzj/Z3Fv/5Kcmv+Um5n/lZmX/5OWlv+coqL/0tfY/73Dwv+NkZD/kZKR/5CSkP+Pko//kJOQ/5GTkf+Tk5P/k5SU/5KUlf+SlZX/kpWW/5GVlf+QlJT/j5OT/4+Tk/+PkpL/kJOQ/5GUkf+Qk5D/kJKS/5GTk/+TlJb/j5KR/5GUkf+PkpH/jZCP/42Qj/+NkI//jJCO/4uRjv+MkY//jJKQ/4yTkv+OlZT/j5aV/42Uk/+LkI//io+O/4qPjv+Kj47/io+O/4yQkP+LkZD/maCf/8HKyP+yubn/kZeY/5KZmv+LlZb/iZOW/5Gbn/+ksbX/vMnN/7G8v/+otLb/kpud/36Ii/91foH/c3l7/3J5ef9vd3b/bHRy/2x0c/9qc3P/a3Ny/2tycP9rcG//bHBw/21vcf9scG//aXBt/211cf9reHP/anp2/2x9eP9hfnb/Vo6B/zyNcv85iW3/R5h4/0WZd/86mXP/N551/0eOcP9ElHH/SJ13/0Keev9Gm4L/R6CI/0yeiP9PnIr/WZKO/1aMif9ii4n/b4uK/29+gP9sd3j/cHZ2/3N3d/93e3z/eX1//3t9gP96fX//fICC/3yChP98goT/fYGD/36ChP96fn//d3t9/3Z5e/9zeHr/dnt8/3N4ev9yd3n/eoCC/5Sam/92gHb/VW1Y/zpfQ/85WD7/KTcr/2BqYP+TmZL/mJuZ/5WZmv+Slpj/rrOy/9fb2/+goKD/kJKP/5GUkf+Qk5D/kJOQ/5GTkv+SlJT/k5WV/5OVlf+Ulpb/kpaW/5GWlf+RlpX/kJWU/4+Tkv+Qk5D/kZSR/5CTkP+QkpL/kZOT/5eZm//S1NP/naGe/42Qj/+Mj47/jI+O/4uPjf+LkI3/i5GN/4ySj/+Nk5H/jZST/42Uk/+Mk5L/iY+O/4mOjf+Kj47/io+O/4qPjv+Kj47/k5eX/8DGxf+vuLb/jZiX/4+Ymv+MlJf/jZWX/5SfoP+nsrX/qra6/7C8wv+ntLj/kJyf/3WBg/9qc3P/cHd3/293eP9tdnf/bXZ2/293dP9ud3L/bnV0/2tzdP9ocW//anJv/250cv9vcnP/a3By/257fP9pgIH/ZpGM/1SVjf9NmYP/SpR8/0KTdv9Kn4H/VaaG/0+jfv9Bn3r/NZlw/zWdc/80m3H/gIyG/3qKg/94i4L/dIuB/2+PgP9nkoD/V456/0uMdf88m37/P5+D/zmaev8zkHL/Sohz/02GdP9UiHz/aY6Q/3KJjf9oc3T/bHFz/3B1eP9yd3r/cnd5/3Z6fP93env/e319/36Bgf+Ag4P/goSF/3p9ff93enr/d3p6/3d5e/93enz/cnd6/3yDgv+Umpr/iJSQ/0tdTv9BUT//Kzgp/zo9M/93fHX/lp2a/5eenP+VnJn/naKg/9DT0/+0tbX/kpST/5OUk/+Rk5L/kZOT/5GUlP+RlZT/kZWU/5KWlf+Sl5b/kpeW/5KXlv+RlpX/kJWT/5GUkf+Qk5D/kJOQ/5GTkf+SlJT/rK6u/97g3v+Pk5D/io6N/4uPjv+Lj47/io+N/4mPjf+KkI7/i5OR/46Ukv+Ok5P/jZKS/4qQj/+Ijo3/iI+M/4mQjf+Lko//jpKS/7O3uP++w8P/kpmZ/5OVlv+LlZX/jZma/5afo/+ttrn/rLa3/6Str/+TnaD/f4iL/254fP9rdXf/cnt6/3J8ev9yenn/cXl5/3J5ef9veXj/a3dz/2l2cf9wdHT/bnh4/2p5d/9tfnn/aYR9/2iOhv9YjH3/RZd5/zSVdP88n3r/QaR9/02shf9HqYL/Qqd//0Cnfv9ytZb/WIhu/yiVa/8dj2P/GIlX/yuVaP90d27/c3Zw/3N1cv91dnT/dXdx/3Bzav9sb2b/Y21j/05+cv84f3D/Lols/zKPc/82knX/NZJ2/z2Ygf8+mYT/P5F9/0eDdf9Pd2//VXRw/152dv9peXv/bXh5/3Z3eP94enn/e3t7/3d4eP93eHf/dXZ2/31+fv97fHz/eYSD/3F/ff9zfHv/c3p5/252d/9xenv/fouI/36Jgv9SWFD/L0s+/ydGNv9GT0H/hI2C/5egmP+Xnpn/lpub/72+wP/CwsP/l5eX/5GTk/+RlZT/kJWU/5CUlP+QlJT/j5ST/5GVlf+Sl5b/kpeW/5GWlf+RlZT/kZSR/5CTkP+Qk5D/kZSR/5OVk/+RlJL/kpWS/5CTkP+Kj43/iY6N/4qPjv+Jj4z/iI+O/4uSkf+NlJP/jpWT/46Tkf+MkZD/i5CP/4qPjv+IkI3/iZGO/6Gqpv+5wL//mqCh/5GXmf+Ql5j/gJCQ/5Wkpf+ns7b/n6mt/5mjpv+DjY3/dHx9/293ef9yeXz/cnl6/3F5ef9xeXf/cXt3/213dP9tdnX/b3d2/210dP9tdHD/aYB3/2iGfP9dh3v/WI99/0eTev80l3n/OJl6/0Kif/89p3r/O6V3/zSgc/88p3r/LaV5/yGaaf8mmW7/JZZr/2ywkf9mjXL/Jppw/yWabv8olmj/Kpln/1BQQ/9TU0f/V1hL/11dUf9jYFf/YGRZ/2BqXP9obF7/aHBi/1x3aP9Qd2f/UHpq/0Z8Z/9Ah3D/P4t2/zaRdP8ukXH/O5R3/0KWd/9CnXv/Qp6A/0+ah/9XmIj/XpSJ/2aMiv90fIL/dHV7/3R4df95eXf/eXl2/3R5d/94fXv/e318/3l8ev9xdnX/cXd3/292d/9wdHb/bnNz/3uHg/92lIv/YYBx/yhALP8oRTP/OExA/3iCev+YoZz/lJqd/6Gkpv/Iycn/oqal/4+Tk/+Rk5P/kZOT/5CTk/+Pk5L/j5SS/5CWk/+Rl5T/kZaU/5CVk/+RlJH/kJOQ/5CTkP+RlJH/lJeU/97i3/+bn5z/jpKP/4uPjv+Jjo3/iY+M/4uSj/+OlJL/j5WU/4+WlP+Nk5D/jJGP/4uQj/+LkI//io+O/6Copv+xuLf/nKSj/4uWlf+Gj4//kJma/6Cpqf+Mn5//m6qq/4mUlv97hYj/bXd6/3F7fP91fHz/d35+/3Z+ff90eXn/dHx8/215eP9pgHf/cYeD/2eFgf9fk4r/W5CH/06Uff84kHL/N5Fy/0CZe/85nXf/NKB0/y2bb/8omW3/I5Zo/yKPYP8hjV//J5Fk/yWRZf8jlWP/HZFg/xWMW/8dlmX/XqWB/2OKbv8Yl2b/GZtp/x6WZP8flV3/HD4i/ydOL/8nUzH/K1Aw/yBBJ/8iPCb/OUU1/ygnGP8mJRj/Skw9/1RWSP9NUEH/MDQk/zI3Kf80PzX/XXdr/2aLff9qj4D/XY5+/0iRfP80j3T/MJJz/zCRc/88mn7/OZF3/0yMfP9ZjYL/X4l//2t4dv91fHv/dXp6/3N5eP91eHj/d3l5/3Z5eP94fH3/d31//3R5e/91eHn/cXp4/3CAfP9kh37/cJSH/2R8bf9MbVj/Ml9E/zVcQf90g3z/nKGg/5Wamf+us7L/t7u7/46QkP+RkpL/kZKS/4+Tkv+QlZL/kZWS/5KWk/+Rl5T/kZWU/5GUkf+Qk5D/kJOP/5GUkf+cn5z/oaSh/46Sj/+OkY7/i5CO/4qPjv+LkI3/jpOQ/5CWk/+Pk5P/jJKP/4ySj/+KkI3/iY+O/6ClpP+0ubj/nqWk/46Vlv+Kk5T/kJ2d/6Wysv+dqKn/kpuc/4CJiv9ye3z/c31+/255e/9peHj/ZHZ3/2h8ff9vhor/cIuP/2eRk/9qlJb/ZJiT/06Wgf83m3b/MZdw/zWedf81nnX/MZxx/y6db/8nmmv/GpFg/x2TYP8ilWT/HI9f/yKVZv8cjl3/JZJg/xyKV/8WhFD/GohV/xSDTv8fkVv/F41X/xuTXP9Wn3j/YIZs/xWTXv8Rjlv/H5hl/yGXZP8GFAf/ECIR/woiD/8dOyH/F1cs/wo7Ff9ATjf/OzUn/0A+L/9MUD7/VlZG/2RYTP9XRjn/Qjow/3dwZP9TW07/do1+/3yQhv+Aj4r/fYuL/3eKhf9vinz/ZYp6/1aJc/9MkHD/Qpd2/0uZeP9KmHb/O45s/0CDcP9RgHT/YoV9/3GCgP9xgX3/bXt5/3N5ef93e3z/fX6A/31+f/96fX7/fYCB/3R6e/90fn7/doOC/3iLiP95ioP/VoBn/ycyJf9JUk7/iJOQ/5Odm/+boaD/vsLB/5eZmf+RlJT/jZGQ/5CTkv+SlJL/k5aU/5KXlf+RlpT/kZSS/5GTkf+RlI//kpSR/6SnpP+gpKH/jZGN/4yQjf+KkI3/i5CO/4ySkP+QlZL/jpSR/4uQj/+MkY//i5GO/5admv+utrT/n6Sk/5GVlf+PlZX/lp6g/5qmqP+Rn5//gY2M/3B7ev9weXj/aHZ0/2Rzcf9nd3T/bn16/3GGhP98naD/jbvE/2+ttf9/v8L/ZLWz/1u1rP9HrZf/OquN/yuegP81nHv/I4Vd/xmCV/8qjWP/H4Nb/ySSa/8ekGr/IZFk/xiFWP8blmH/HpRn/xuJV/8ch1P/EYBJ/xKES/8RhEr/GI1T/xmNVf8Xj1f/HJNb/1ijfP9ninL/HZJf/xuOXf8nmGz/K51z/xo6H/8LJw3/DycQ/w8kDv8WWzH/D1op/yxhPv+HpYv/Z2xW/11UP/9cVUT/fGJY/456av+WhHX/nIt8/yYwH/8QJBP/IDAi/yxBMv89WUj/QF1M/0BURP9BSj3/SVFE/0lSRP9OV0f/UVlK/1FaSv9QXUz/TGBN/05wW/9UhW7/UY12/0GKc/9XnYr/a5yO/3WPhf95jYf/dIOB/3t9gP98fH//foCE/4CDg/97gID/dX5//3B8e/92iYL/eo2C/1+AdP9CZln/bn15/5Kbmf+Umpn/r7Oz/6isrP+PkpL/kJKS/5KTk/+TlJT/kZWU/5CUlP+Qk5P/kZOR/5OUj/+TlI//rbCt/5CVk/+KkIv/ipCL/4qRjf+MkZD/j5ST/4yRj/+Kjo3/i4+P/5GWlf+qsK3/oqqo/4ePjv+Ik5H/l6Kg/52kpv+JjpL/eX6C/213d/9mcnP/ZnB1/2lzev9jgYb/YouR/3Ofpv99q7X/baOu/1ymqf9Jo6H/QqGa/z2olf8tpYv/JYVp/yuNbf81lXv/J4Fj/yh7Xv80imD/J4pa/x2NYf8Pek7/K5ht/x2RZf81jmT/OHph/yiOZP8ffUv/JHxT/ySCWP8dfE//F31L/xF7Rf8Whkz/GYtS/xaHTv8bjlf/UZ54/2eIcv8ikmj/JpRs/ymXcP8ikmr/CyAN/xIvGf8cNiD/GCcU/xEkEf8kXzv/KHpT/xpjO/80Yz//Lz8j/yUuGv8eGgz/LB0O/0MsGv9uWUr/Ljci/xYpF/8JGAn/ESYY/xIlGv8NHhD/IkUp/yphP/8wZUb/HUkt/zhMN/9NYE//VnNh/1VkVP9SXVH/TFZM/05XTf9OWU//VF5U/05kVf9Uc2H/VoFn/12Ucv9onYP/f5mL/3+Wjf9ykJD/cYeG/3iJhP99hIX/gYOE/4aEg/99hoL/cIR8/3aQhv9+ioP/jZ2X/11qZP+JkY7/pKWk/7K0tP+Sk5T/kpKR/5WTkf+QlJH/kJSR/46SkP+Rk5D/kpOO/5KUkP+ws7D/iY2M/4qPif+Nj4j/j5SN/5KWkP+QlJD/iIyJ/42Sjv+go6H/oqel/4+Wlf+ZoqD/mKSh/4+fnv9tgID/Znp8/2V5fP9idXv/Y3p+/3qTm/97qrL/e7C7/3Swvv9mqLH/Xq6x/2OvtP9srKv/RaSY/zSZiv8sinL/Ho5m/w9+Uf8bcEL/GW05/yd1RP8ueE7/HnlL/yeWY/8Tc0P/J5Rm/yeXZv8oilr/I5Rf/1WYcv9gdW3/DEAh/yBePv8dTzL/SY14/xpjRP8Zaz7/FGg6/xNtPf8hf07/D2k7/xqDUv9LnHX/ZYlw/yWSb/8ijW7/KZd3/ySUbv8MIgz/Hj4n/ww0HP8OKxb/Dh4K/yc+Jf8cXDn/JVkz/xI6Ff8gUi7/LEcp/y1ILP82VTf/PlA4/yw5I/8mPif/Hzgi/xMnE/83V0T/KEMx/w4dDv8VNx3/Dj0Y/w48Ff8YUCj/H0Al/xo2Iv9Le13/JlAu/x1EKP8RLhf/GDUh/yEuIf8gJhz/NT0z/zhBNf86Qyz/QUEm/2ZdNv+RXBv/oGoZ/5CSV/9tnHP/R5R0/1mRgP9fiHz/d4N+/3mFgv9+hYT/foWF/32Cgf+Biob/a35t/0FpVP9JXU7/aXRt/5yopf+fpqT/kpeV/4uSjP+Lkor/jpSL/4eUif+JlIn/lJ+U/5Gdj/+BjYD/gIt//36Shv91jn7/aop3/4SXjP+WpZ//naak/4+goP+Vpan/iJuf/3CGh/9ke3r/Y4F+/16Dgf9mkI7/Z6eh/2aqqP9nrbH/Xqit/2Gwsf9Vp6P/QqOX/zaijv8dooH/JpJw/4Wskv8tkWn/G45c/yl2Vv8chlT/KJhh/y6LV/8lekf/J3tJ/yxzQ/8efUn/GopX/yqYZf8gfk7/DnpK/xV6Sv8ffk//So9n/zNMPv8WRin/Q3Ba/0V/af9Dg3T/F0U0/x1TOP8MQyn/GkMp/zJzV/83blL/Gk8x/0mGZP9ojXH/F4db/x2NZP8fj2r/HJBo/wofCv8MGgX/CRsH/wchDP8NHwr/EicP/xs+If8ZPRz/Ik8q/x1GJf8eSSj/I1Aw/xU/IP8XMxn/Fzcd/xoyGv8wQy//Dh8N/w0dDP8NGgr/ERoL/w4eCP8QOBT/Hlsq/xJKHP8SKxH/DSAP/xksH/8OHQz/EycT/yA9Jf8hOCT/DRYH/w8VB/8THA7/EBkK/xQrEP8OLxH/NkAy/yMhDf9TRhf/YVAb/2JeK/9NW0H/KVM5/zRqUf9Ug23/VoRw/0ZyX/9LeGT/U39q/19/bP9Td2P/QXBY/zpbQP87YkT/M1o8/zNNMP88a0r/Pm5K/yJMKv9BdVr/LHdN/ytySf8qb0X/JXE8/xxmMP8uckf/LndL/x9sPv8be0j/HW9B/yZyR/9Hf1n/MYZe/zuLZ/9FlHP/TZx//0GTeP8/lXn/Spd6/zyaev9Cnoj/OpyD/zeWdv8ihGX/J5Bv/yGMbf8knWj/IZZm/yKec/8ohFr/k62T/yKJX/8ck1v/VY5v/xt1Qv8ajVT/KZBZ/x+DTv8if0v/KIdT/xt3Q/8cgU//G4JQ/xmAT/8hilj/H4tZ/xx5Sf8vbUT/FDMa/x9eOv84dV3/KWlX/zd0Xf8qV0n/Ompb/yZJOv9CdWH/VqaH/zFoT/8VNiD/QVtB/3yXfP8XiFX/EIJO/xmOWf8bjmT/BRcE/wkiDv8PKxT/ESkT/xEmEv8UKxX/EywS/w8tD/8eQyD/DjEP/xMyFP8PKw//Ey0R/xMtEv8XMhf/FTAW/xIlEP8RIQ//ChgJ/wwaDP8PHQz/DiAJ/xg2GP8RMRL/GDQX/xEpEv8NHg3/DB0K/w4eCv8KJQz/ESkQ/xckEP8YIhL/FR0Q/xQdD/8QHQr/DyMI/xMoDP87RCz/Ey4R/xAvEf8YNhj/JkMo/yA6If8mPST/CxwL/zZDNv8dJB//Gh4d/xwdHv8aIBn/JCsi/yEtIP8rUjL/I1Mn/x9oN/8eZjf/RIBv/zBNOv9RV0//ITQb/yhXRP8kaDb/L2s//y9vQP8rd0b/HGk1/ylzQP8oc0D/LXxK/xRiMf8UaDX/J24+/zVxQ/8jekj/KnhK/x9wQv8wjl//LJBh/yOCUv9DfVX/Fmo6/y5+Z/8rj3T/QIdm/y6KaP8fjF//K5xw/yKYav8jglf/HoRW/yiSVf+Oqo//HoFW/x+ETP9mk3X/F2Yz/xuITv8WkFT/H59m/xZ/S/8UgEz/GolV/x2GVP8ci1j/G4JN/xJvOf8ZhU7/JJJd/xdwQf9Gg2D/Jn9F/1OaeP9Lh3P/V5V//zpqVv8pX0v/MWVS/06Gdf8ugmP/KHNZ/zdnUv9HWET/hJR7/xp4Tf8afU//IIlU/x6OWf8MIQ3/BiAK/xk3H/8eNyD/Fy0W/xMyGP8VMxr/HUAj/yFFJP8eRSP/Fjsc/yA/I/8XMhj/DSYM/xw1HP8gOiD/DCAK/xEfDv8PHQ7/DBoM/xMfDv8SIAv/GTMY/xAtEP8TMRT/CiMK/xEqEv8hSy3/HEgn/xIwFP8TLxb/ECgS/xcuGf8SJBD/EiAM/xUkD/8PJgz/IUMk/ztZO/8RNRT/IUEg/xU0Fv8rSCv/L0wx/y9HLP8fMh3/JTMj/xkhGP8dIhz/HyIe/xsmGv8eLR3/HC4c/y5SM/8qYjj/I2Y6/yFqQf8teGL/NlE9/zdJNv8fMBP/KDch/y1QNv8wXTX/OGY8/yBsO/8gbTn/J3dD/xx5Q/8hdkP/GnI//xtiMv8aVSf/Jlou/yR5R/8VaTb/Dl4t/xt3Rv8me1D/G3tL/z92S/8VTh3/JGZE/yp+Wv9Gg2D/Km9J/xh/Vf8ajl3/IJlm/x+CU/8mj13/IYtQ/3KUd/8tmmj/JJlb/12Kaf8idkH/C2gv/xN9RP8ch07/G5Rb/xeKU/8llF//H4tW/x59Sf8wf03/H2s3/xtlNP8ye0z/Rn5c/0h4Zv8adT7/H2s5/0SFZv83dl3/IlQ9/yNbRP8sYUz/HE45/yJVO/8TPCj/Fzsq/0BhS/91e2f/HFs6/yFnQ/8eeUn/HIVP/xEnEv8HIgz/CycQ/xosF/8WLRT/IEso/xY5Hf8QMBT/EzUU/y5aOP8bRSX/Fzod/xw3Hv8TKhP/DiUN/yo/KP8WJxL/EyEQ/wwaCv8LGgr/DBoL/wwdCf8OHwj/FSQJ/xg4Gv8UKxP/EikS/xo0GP8TMRL/ESIJ/xUkDP8SJAz/GDMb/xQwFf8mOyL/IS4b/xc3Gv8jWDL/L1Uz/xNCH/8oRib/Jkwo/xxHH/8jWjL/M1M0/ytILf8uRy7/IDMc/xwuFv8dLxT/GjkZ/zNYOf8kQCP/P1s+/x88Hf8bPh7/HD8f/zVXN/8uTCv/Mlw1/yVJI/87TjP/QV8//yxcNf9BbET/JF8y/ypoN/8hcz//HXI9/x5tO/8TYzH/DkcZ/xVUJv8nYzv/Gmo5/xt2PP8SXin/EF4p/wk6G/8ghlX/RHtL/xdcKf8YYjP/I2s+/z5zSv8PQxr/FVUq/xRkNv8cd0T/GnZB/ySBTP8ohlH/apBx/xyASf8gk17/TZhu/yaDSf8ZazT/Fm01/xqES/8Vgkn/E3c+/xZbKP8YcT7/GHRA/yB4Q/8iazz/PIha/yVeNv9alnf/WG5r/xVEJ/8oelD/UJZz/zd1WP8pSzb/Uo91/xlOOP8kY0j/N3xe/ydaQf8RLhn/NE87/36JeP8sVET/J00//y5nS/8fXD3/DygR/xEoEv8UMBn/Hj8i/xAxEP8VMhr/Fi8Z/xEsE/8YNxj/HkYk/xg2F/8ULhP/EiwR/x03Hv8NJA3/EycR/xAiC/8TIg7/EyEO/w4dC/8MHAv/DyEN/xUoEP8eQyT/Fz8f/xIpDv8OIwz/Cx4K/xIgDf8XJg3/GCgP/xo4HP8TJw7/DScJ/xUwEv8XJxD/Gjod/yViOv89bUf/I1Mu/yNHJf8lSif/JWA0/yBKIv8jUzD/KFo5/y5ZOf8fRCX/IEwq/xhDIP8SOxn/JUws/ytJK/8pQyf/HC4T/yIxF/8lNRr/LkAk/yVDIf83dkr/M21A/zVaP/8vXTb/KVsz/zdjOv8wXDH/KFQo/yVjNP8rcED/J3JC/yJwP/8eZjb/HmAw/yhqQP8ebDz/L31F/yWARv8RThb/JWs7/x17Qv9DilX/FXI8/xdmMv8WXi7/IEsh/wktCP8eYDL/IH5K/xuMUf8kgEb/F2o0/xFkMP9wl3b/HGw0/yBnN/9RkWr/EHQ4/w9rL/8bdDr/I3xE/yKbXv8YkFP/FGUw/x9yO/8DQhH/HoFL/w1KG/8YUyf/Jlov/16Vdf9Va2r/HTsp/0V9Zf8/h2v/S5N2/yJkR/89hmn/FmJG/x9cP/8dWz//MXVa/xRFJP8qOSb/g35u/ytANf8iOC3/LExA/xpAMP8TMRj/CSMN/woiDv8JJA7/EDEW/xo1IP8HHgr/CyUM/xs6G/8jSij/Hj4f/yZEJv8TNBf/G0Ak/xIzGP8VKhP/DRwG/xIjDf8iMx//Dh8L/xEeDv8SJw7/KE8r/xdGJP8UQB7/GDcZ/xAuEf8LKQr/ECsO/xIhBf8aNBX/FTAS/xEoDP8SLg7/JE4q/xo9Hf8SLA//HUAd/zxoQ/8oWTT/Hkok/yVEIP8ePBn/HDsY/ytaN/8ybEf/M2A//yNAIv8qUC7/J1Es/xxJJP8YUCv/LUss/zFML/8cMxj/Hjcd/xgvEv8fNxn/Jkwn/zR3Sv8ubD3/JFor/y1jNf81Zzz/KVgv/yRQJ/83Yzr/JlYs/ylZL/8wd0n/JnhI/x9yQv8YZTb/ImM3/yZvP/8kaTb/GXxD/xVmLv8NVB//GG82/0GEUP8mgkz/FnE7/wdKGv8OUiD/IWg3/xdbKf8Wf0f/Fng//xWKTP8khEv/GG89/22OcP8Yez//JYtT/2WSef8fjEz/FH9A/xl3Of8XYy3/G3g+/x6SVf8WZjD/DmEp/xdnM/8dhkv/JntG/xhTJP8VQRr/RXNQ/1FrZP8hQif/IFYz/zyQa/9Ck3b/Po1y/yp9Xf8rd1j/GldA/yBmT/8lflT/Dlks/zBSOv+JiXb/DS4Z/xxFL/8jVDz/MXVb/xcpE/8LHgn/CB4K/xQnFP8LHAj/CxsI/wseC/8TKxX/FzUX/xY4GP8SMxT/H0Ai/xs9Hv8kRSn/HUMl/xUtE/8PIgn/FCgP/xIkDv8OIAv/Dx4K/xctE/8aQh3/FEok/ww+F/8YSST/FkIf/xg4GP8hQiL/ETEP/yFMKf8mUC7/H0Uk/yZHI/8hTSf/JFIw/x1GI/8iQR//Mksp/x48Gf8iOxn/JTcW/x1AHP8tTiv/JkIh/yhWMv8yXz3/J186/ypSLv8jSSX/Gz0c/zJPL/8yUDH/K0Yp/xcwE/8XMhX/ECsM/yhEI/8xVy//PG9C/z1zQ/8mWyv/LmM0/zRoOv8nWC3/H08i/yxWLf8yXzf/JVUt/0mGW/82dUn/HmM1/yZ4SP8vdEf/Imo6/zl9TP8cfUb/Gmw2/xN6QP8UYSv/PW4+/yd2Qv8feUX/FWAu/xxuOf8RXyr/IHZA/yd0Qf8jilD/I41P/xt6QP8WbDf/a5x5/xiQUf8pj1X/b5N7/xyLSv8XgD7/Go5L/xeWVf8ik1X/EpFS/yWaXP8fdDr/IHU9/yqJTv8mfkj/FmIu/w9KG/85dUf/QW9U/xlRJ/8cWC3/J2xI/zqOc/83i2z/G2tI/ziSbv8maUT/IGdC/zyLYv8fgEv/OXlK/42aff8xXj3/Ejoc/xpbNP8YQS//FycQ/x4vGv8PIQ//ER8K/xIkDP8iRiv/ECYN/xApD/8KKAz/FTcZ/xA1Ff8QKg3/EjAR/xs3GP8PMA//Kk0t/x08Hv8bNBn/Fi4V/wshC/8LHAb/EyQJ/yBXL/8wbEP/JGM5/x1aMP8WTyj/GU8q/xRFIv8jSib/JE0p/x9IJP8aQB3/LEck/yFBHv8cQh//JE4s/yFQK/8xVDL/KEck/xI4E/8nTCj/Klkz/yhULf8cNRL/KjoZ/0tmRP8kUzD/MVgz/y1VMv8mQyT/FywQ/x8+H/8mPB3/HT4d/yVFI/8UMg7/IT4Y/zhfNf8ybz//MGk6/yleLv8uZTX/M208/yxkNP8zYjX/IUcg/yJLJP8wXjf/TXNO/0hxTP9IelH/L2k+/yhqQf8cZjL/OnZK/x90Qv9DjFz/H3A//xFUJf8+aj//FVoq/zV9Tf8Xazn/OYNS/xZkM/8XUyX/EDsS/xVfLv8rklj/GotN/yB2Pv92nHf/JYpO/zGHUf9xln3/DINB/xiDQv8PdDf/G5pa/xuWWP8Qk1L/HqNi/xWNTP8geDv/K4FH/yOHTP8tk1r/JIRQ/yh9Q/83ekr/Gkwm/ydlOv8VSB//NX9c/0OVfv8vg2T/JG9H/xZUMP82elf/K3BR/x92T/8zcUn/i5h9/xdeJ/8aUCf/HVs1/yJUN/8LHAf/EiQQ/wocCf8PIQr/ECYO/wciB/8SKg//DCYK/wkoCf8LLxD/GDwc/yZRMf8eSSj/I04s/xdBHf8cPxz/Ei8P/x05HP8RKxH/Izsh/xkzFv8hNRb/HEcg/xtTKP8hWi7/J2E2/yJaMf8oXTf/JFo0/yRFIv8gQR3/EzUP/x5BHP8ZOxf/HjcV/xYxD/8aRyL/Dz8Z/zNWM/83WDX/JlYw/yBDHv9aXT3/Gz8Z/x1dMf8vUiv/PFAu/yZCH/8mSCX/Kkso/xtDHP8lTSf/JVkx/y9fOv8nVzL/Kkwn/zlQKv9XZj7/WGc9/zxsPf86dUT/Kl8u/zRnOP83ajv/MWAy/ypSJf8sViv/NWE1/ydVLf8pSyf/Nls3/zZgOf8oYDT/K25F/yFqN/86bUX/JGQ4/0B9Uf8dZTf/DVkp/zZmPv8aXzL/O2U8/xBVJf8rg1D/DV8v/wxQIP8JPxL/GVUn/xNnM/8Tazj/JHtM/3KLbP8aazf/LZNe/3WWf/8hklP/F3M0/xyISv8Th0j/Dnc6/xeDRP8ZjU3/JJhX/x6OTf8hhkj/JXc+/yFzQf8jbjv/VKFx/111Zv8UTB3/FU8g/w5AE/8dWDL/PoRu/y+Nc/8uk2z/J3RJ/yBNJ/8iYUL/PYhr/0KAXP+JmoP/HGU1/yl6Vf8YVzn/Fzsf/wodB/8OIAv/EiUP/xYtFf8XOBz/EzMW/xpJKP8oWDX/IVAs/xlAHf8WNxb/Fzob/xpDI/8iTSv/JE4s/yJFI/8lRiX/GToa/xg1GP8NJgz/DCsL/xg+Gv8qYjj/JWM1/ypoOf8YUiX/DjsU/yRIJf8RNBP/E0Aa/yxdNP8sYDX/IF8y/xpFHv8hOxb/GjEN/xIuCv8rVTD/PHdQ/zZdOP8lRSD/IVQt/y5QLv8NNBD/HE0h/zJiNv8yWzP/JVUv/y1XM/8qVTD/OlYv/zNgNf8vVi//PFw5/yxOKv8zVC7/OlIu/0xTL/9cXTn/S2g6/ytrOP8qWyr/N2o5/y9iM/89bUD/HU8g/yZRI/8wXDH/K1gt/y9VLP8uUyv/OmY8/ylaLv8sZzz/KWo8/zxpQv8kUyj/Q29E/x1UKP8hZjv/PHdN/xVUKf8wd0v/EVUn/yZ5R/8TfUb/El8s/xphL/8UUyP/GmMy/xddLv8RWS3/bYZm/xJTI/8haT3/b4h1/yaITv8kklH/FphU/xGHRv8YgEP/FINE/xt9Qv8ukFP/LpNU/y6TU/8ogkX/GXY4/xFeKf9GgFn/UXBh/xteJ/8fWyz/EVQi/xVeLv8fZT7/QZtw/yuTYv8+mGH/K4VO/yqEWP81j2L/NHlQ/4ybhP8ndD3/H21C/xZjQf8fXT3/ESQP/xEnEP8HHwX/EC0R/xY1F/8QMBH/FDQU/xM7Fv8mVC3/JE8o/xU8F/8mSSj/ID4f/xc2F/8pTi3/IUwp/yBJJ/8gRiT/EDcW/yBHKf8lTCn/ImA1/yZpO/8faDb/HWIv/ylwP/8kXS//J14w/xFJHP8jXjH/K2g5/yBmNf8eajj/J3FB/xdTJ/8jUSj/HUsh/xxBGv8wUCr/NGY9/yJWLf8bPhz/EDQY/xVJH/8qXjD/K2I0/y1UKv8pTij/NDwc/zpAIv9BRyb/N0km/yREIP8vTi3/NFUw/0BjO/9EYUL/U2BH/2dnSP9nZzz/RHA+/yxqNf8tZzX/NWo6/ypcL/8nWSr/H08g/yhOIf8wZTb/KF4x/x5QJv85YTv/OWRC/ytkP/8nbkX/QW9I/ylhNP9Bc0f/JF4z/xxdMv9Lglv/EVUr/ytvRP8WXjD/QYZa/w5hL/8VYi7/GGEv/xVeLP8Xazn/C2Iv/xxfMP+Ck3D/G0Ea/yNPK/96koD/H4JJ/x+CQv8SlE//GJVS/xN7Pf8RWiT/Cz8U/xJQIf8agEr/IodN/yCDRf8gfkL/JHE7/yBuPv86f1P/M41Q/yJxO/8je0L/H3dA/wxZI/8hgEr/Lo1Y/zCRWv8whFL/K4NQ/zmXZv83fVL/iKCJ/yJzP/8dbDX/FVUq/yNtRf8QJQ7/ECkO/yZCJP8gPx//K08v/yRNKv8kSCX/PFoy/0dxQf88bz3/IVco/yRWLP8iVS3/I0wo/xs+HP8YOhn/Gz0b/xxCIP8RNxn/OFMz/yJPJv8rWTD/M3BB/0J0RP9Ld0X/QHhF/zVzPf8laDH/JWox/yl/R/8feED/HmQw/yF4Qv8qfUr/HGo4/yBoOP8dXzD/H1kr/y1VK/85XTX/J1wy/yZdM/8dTCb/FCYM/xA0Ff8ePh7/KGAx/yNSJ/8gQxv/MT0b/0ZFKP8yOx7/KUgn/0JfPv9FZ0L/P2c8/0tmO/9jaD7/Z2g9/2twQv9laz3/QWc1/yFWJP8zZjf/MGI1/yRUJf8cTR7/JU8h/yRXKP8saDn/JGc4/ypsPv8uYj7/c5R3/y5uSf88bEf/H1wy/z1uRf8UTiP/I2U6/z1tR/8gZj3/MHpO/xRnOf9CjWX/D1wu/xReLv8OVCb/F2Q0/w9iMf8ScT3/F2Aw/2iAXv8XSCH/GUUd/22Mcv8TZjD/E2Ys/xiCRP8Thkb/Fn9D/wxSHv8PPhP/BjMK/wg8Fv8ZaDb/HX1D/yaUV/8og0n/QYFU/1+Edf8gf0H/I31F/xmBRf81lVn/El4j/x+BRP8hdzz/HHY9/zmQXP8yi1j/KIpX/zyHW/+Im4X/IopV/yOARv8cZDP/I29E/wglCf8VMxb/HTwc/wssC/8cOxf/RFMr/3hzTP+Ec0n/enBA/3lwQv9cc0L/NGUy/yVbLP8bQxr/HEAa/xY9F/8UMxD/F0Ea/xtIIP9YXjT/Y3NB/2J4Sv9yek7/hHlO/4RuRP9/eEv/cXdI/2B0Qv9fdEH/WntG/1ZzQv9jd0n/T4RS/y1/Sv8ndUH/KXZD/ydkM/8oYzP/OHxK/0Z6TP8gWy3/IVco/yVlNv8YSiD/F0ki/xdLI/8aSxz/IV0s/yFiL/8jVyj/JlUq/ydSJ/8tUyf/Smk9/1B2Sv89ajz/VXFC/3J4Sf9pcUD/aG4+/2lyQv9ieEn/Rmo7/yxdLf82ZTj/MGAx/yhYKf8mVif/IlEi/ylWKv8fWCr/Jmk0/y9tQf9jhGX/SXJS/zdrR/8tYzv/Rm5H/x9ZL/8ubUP/OWA7/x1PKf80akP/IXRJ/0mHZv8XaDv/DWEz/xduQ/8PYTP/FWU2/xlwPv8TUyb/dIpr/xVGH/8aUSX/VItq/xV2Pv8Kbzj/DGUu/xV6QP8RWyX/FGMv/xpWJv8SSx//DVUn/xlfMf8adD//HYdN/yKMUP9TlmT/Y39t/zKOUP8sllv/FW80/yF7Pv8gh0j/J5pb/xuHSv8LYyr/G2cy/zB/TP8odkb/Vp1w/4WahP8lkln/HIJJ/xxvO/8rg1D/HUIj/xxAIP8fSif/HUkk/yhTLP8aQhr/Ok4n/1VWLv+EbT//g1wv/4RhNf+BbkL/W3xN/zlmOP8qYDT/K2E2/y5aMv9MaD7/WGg4/4h8SP+Edz//iHlE/4V7SP+Ke0r/jnhI/4N1Q/+BeEb/gHdF/3twPv+HdEP/gm0+/4duQf99XzT/c3FC/357TP9qglD/WHpG/1xxQf96ZTv/fHlU/090Q/9AcTv/N31A/0aBSP85hkz/L4FJ/y92Pv8xazT/PWw3/0NzPv9TcTz/UXQ8/3l4Rf96ajv/fXhJ/2l1Rv9oekn/coFO/3aEUf9xekn/b3lK/2t9Tf9rflH/RG8//zdoOP8nYC3/KFko/zBnN/8uaDn/JVMl/yNOIv8gXSz/JmA1/zp8Vf8rdEz/J25F/yFcM/9Hd0//K2E2/x1dMv8gXzf/IVkz/zlgPP8waUT/V4Nm/yFoPf8iXDj/KF4//xVWLv8QYjT/Fmw8/xRPJP9viWz/EU4l/xxSJf9sm4D/HHxG/xR8Rf8UiE7/D4NG/wt0N/8Pdj7/C0oZ/xBoNv8YYzb/ET8c/yZUL/8jaz7/Io1W/z97UP9khm7/JJNR/ySMUv8hiU3/J4xO/yWXVv8afD7/I4xN/yOUV/8fgkr/Imw8/xRQJv8ue0r/kqGL/x57Rf8eik7/HYNK/yeSWv8JLgr/Jk0m/0FlPP82aj3/JmAy/z5rP/89ZTT/cWw//35nOf+FaTj/hWEz/4ReMv+LdEn/h3lQ/1p6TP9KbkL/XmhC/3t2TP+EcT//gmMx/416Rv+Hcz//g288/4ZwP/+MeEb/iXlI/4R4Rf+Lgk7/g3pG/4VyQf+JdUP/i3hG/4ZxQP+Gc0H/gm4//4JvP/+NfEz/hWQ6/4xrQP+Oa0v/gGQ3/4RpPP+Gaz7/iHhK/4R+Tv9weUj/cWc1/4JlN/+DZTj/hmk7/4dhMv+EYTP/hG9A/4NpO/+Ldkb/jIBO/36BT/95gU7/c3xK/3SAT/9tfEz/bH5N/22AUP9ngFH/Rm89/0F0Qf8sXy3/KFQm/zJpO/8ubj3/ImIy/yJPIv8eTSP/LW5E/yF1R/8vbUL/Nmc9/06AVv8dViv/GGE2/xxgN/8dUi3/Pm9K/zJvS/9Sel3/IW9C/yNcMv8aYTn/GVQr/w9gNP8baj3/JFw0/26IbP8RWC//FlMm/2mGcf8ZZjP/IHxK/xJ/Rf8TiEr/DnQ3/xCCSf8Vbjr/FGs5/xdaLv8eQyb/HkQr/yZ+T/8ifET/QnlS/2GAcP8jdkv/I1w3/yuDU/8fhkr/H5NS/xeMR/8Up17/HZlX/xyIS/8SSBj/EmQs/xtpNP+TpY3/FmAt/wtoLf8PdTn/EW82/xxCF/8uVyn/bW9D/3NzRf9Xajr/e2tB/3N1R/9jcT7/em88/5B1RP+GZTP/iGg3/4xzQ/+FeEn/d3tN/05xQf9XcEH/fnJD/41xP/+Oazr/h288/417R/+Gazn/jHJC/4NnN/+Kd0b/jX5L/4V4RP+He0X/i3hG/45+TP+JckH/jHZF/416SP+LcUL/kXdI/41wQP+IdEb/inJD/4puS/+JYDT/iWY6/4pnO/+FaDz/kHVH/4J3SP+GcUH/iWo6/4ZtO/+JbTv/hGs5/4NkNf+LdUT/jnhI/5KDUf+Pgk7/iXpI/45+Tf+JfUz/hIJS/3x/Tf9ygk3/bX1J/3SCT/9ngk//aIBQ/09+Tv82bD7/PVow/y9ZLf8mXS//OWM4/ydoOv8qckT/InRF/x5kNP8lZjb/J2g5/yZxQv8VZDf/G10z/xpSLP8+ZUX/Ml4//1JzV/8jakD/HGk5/x1pPP8aYTX/GGU5/x1qOv8eVy3/bYBn/xdSLf8jZz7/YoFr/xtZK/8bcEH/DHE8/xuBSv8YeED/D2kz/wlWI/8JWCb/CDwQ/xpPK/8lUzT/Ejga/xAyFf9JY0r/ZHZy/x46K/8nRjX/LldB/xleM/8qe0z/T5Bv/ymEXP8jilL/KXhB/yGKTP8flFT/HXxF/5mjiv8MPxP/GmYx/xFlLP8XdTv/U2E1/2lwQv+DcEP/h2w8/5B0Qf+LckD/i3RE/4hpO/+Pc0H/jHlF/4FqN/+HbTr/jmk6/5BlOf+DcEP/aXND/3hyQv+IdUX/jHZD/5R5R/+Kajj/jnhF/4h0Qf+FckD/im4+/4VwPv+OeEX/i3hD/459SP+Ie0b/g3ZC/4xvPv+EZjX/kHtK/4hsPP+Kazv/jHdF/4VqO/+HbTz/hGxH/41nOv+HYjT/jHFC/4lqPP+HbD3/iHpJ/4pwQP+HbDn/iGo3/4x1Qf+QfUn/k4JP/5KCUP+ShVL/kYRQ/5SFUf+Xh1P/l4ZU/5J+S/+WhFD/lYBM/5SNV/+Oi1T/hYZP/5GQXP+UhVX/goZW/2GFVP83aDf/KV0t/zFpOf8rWy7/Jl4w/y53SP8pdkj/IGk4/x5jMv8lajr/H2k5/xlhNP8gXzb/HVkz/z5qSv81Y0T/G106/ypWNP8rXTz/FkEh/yFEIv8jWDH/GVks/y9gQP99jHj/Gkco/yFSNP9of2n/FVgr/xxgNv8SXTH/EHdE/xCBS/8VdED/Dmkw/xRzPP8Qcjr/C1sq/xZaMv8ZSSr/Ejce/0toVP9qdnH/ITwq/y05Mv8eLSX/Gz4n/xZPKf80a0j/H2E7/yiHWv8na0L/IXVH/xmGU/8ddUT/mqWK/wxFHP8MRRj/EF0n/xOVVf9ubUT/fWU8/4ZvQf+NcUH/h206/4twPf+Ibjz/h208/4lqOP+Kcj//j3VD/412Q/+Kd0T/h2k4/49uP/+KZzn/jGo8/4p9Sv+IdkL/hm47/4lxPv+MeET/jXJB/4t3Rv+Jbz//jHZF/496Rv+HdD7/i3lD/49/S/+JekX/jHpH/41vPf+GbDv/jXRD/4RtOv+JcT7/gmY1/4lkM/+OcUv/jm09/4tuPf+Hajn/j3NC/4x0Qf+KfEf/i3NC/411Qv+TfUj/mn5J/5R4RP+VeUf/kHZD/5Z8R/+We0f/jHM//5p+Sf+hhFD/oYFN/6OIU/+rilb/qotV/6+RW/+nj1j/pY9Y/6eRW/+ljlj/nIxX/3+MVf9JfET/LmY0/y5fM/8xZzr/Jmo8/yh6S/8gbj3/Imo3/yNnNv8cXS7/G1kt/xhVLP8WWDD/JFAu/y9ZOf8XXTj/KmRB/ylgP/8mTS//IUMj/x5MKf84aUn/Rl5O/4CDdf8aQyb/L1o+/2qEa/8YYDP/FGU6/xhgNf8afk3/EoNP/xiHU/8PgEj/B2gx/whiLP8Oczv/GHZC/xBVJv8XWy7/P25O/2t2cf8iOir/PkpD/xEgFv8VPiT/FFAr/zZsTv8gSS//HE0w/x9PMf8WVjT/DnZK/xVrOf+Yoof/IF46/xlkOf8ni1T/F6Bf/2R4SP96az3/iG0+/4dqOv+KcD7/hms4/4hpN/+Nbz7/i248/4lsOv+Obz//knhF/454Rf+SfUr/jnhG/495R/+Pbz7/jnJA/452Q/+NcT//knxJ/453RP+GaDj/j3dI/4lyQv+Ld0T/hnM//5B7SP+Jcz//jXhE/5F8Sf+JeUT/inxH/45uPP+OfEr/i39L/4h3Q/+PdUT/hWEw/41vSP+Mazj/lnZE/5N/S/+IeEP/kIJN/4d8Rv+fhFH/mYFN/5eCTv+Pc0D/mHRC/5V4O/+dfkj/noJN/6WGUv+miVT/ooRP/6SCTP+jf0f/podO/6eDS/+qjVb/qY1W/6SKU/+mjVb/q5BZ/6iNVv+ljlb/oYdN/32GTf8xbDj/KVsx/zBlOv8yaT7/IXdI/yR8S/8ocj//Jm89/xtjNP8eYDX/KF82/xdVLf8fVzL/MGRC/xteOf8xZUP/Kl8+/yNNLf8eSin/N2dF/2iEa/+OjX//pp+O/0hnS/9RblX/bYRs/x9mOv8XXzb/CkQc/xBkNf8PYjL/Dmc3/xh5SP8WhlD/HIdQ/w1nMf8dhVD/FHE8/xxuO/9FdFL/b3t2/yxCM/9DTUr/FTAg/w9OJ/8WXTP/FUkl/xNJKP8WUDD/GUks/yJILP8YPSD/GEwp/5mfjf8gPyX/H0Mq/xtWMf8WhFD/kHZG/5J3R/+PdkX/jXlH/5B2Q/+Kbz3/jXE//4pwPv+QfEn/indF/4x0Qf+IZzX/iW47/493RP+OdkP/jHZC/4xtO/+Kbjz/jHRB/451Qv+Nd0T/kXlH/41tPf+QbkD/jnFB/495Rv+Nekb/inVB/454Rf+KdED/j3lE/49+Sf+JeUT/jnpH/4lxQP+OeUf/koJO/412Q/+Pbjz/kHhP/4lwPv+Od0H/l4NN/5N/Sf+Tf0n/l4NN/5NwPP+Wcz//nn1J/5uFUP+Ze1//lXxZ/6uQWP+sj1n/q45Y/6WJUv+mhE3/q4hQ/6iGTv+oh0//poNL/6SFTP+kh07/pY1U/6iPWP+mj1f/o4pT/6aPVv+kkVf/oY1X/1aBTP82ckT/N2k//zVoPv8pckP/J3dG/yt4R/8mbj//GmAy/x1kOP8nbEH/PG5H/0t4U/8/aUb/J2U//yxhP/8gVzb/I08w/yVTM/8lUzL/ZIlt/298a/+VnIv/FUsq/xtNLP9pfGb/H04k/x9XMf8YVSz/D2c4/xBkNf8MRx7/FGw+/wtgMf8ceUj/GHVD/xhyQ/8aYjr/NmZJ/0hcTf9xfHf/IlUu/x9dN/8NXDH/D2U3/xFrPP8LWzD/D1ky/wxQLf8RPiH/JD8n/yk6Jv8YJh7/m5uP/xY9Iv8iSzT/G0gt/0+Jbf+LcD//ims7/45tPf+Oazn/km88/4tpOP+PeUf/jXpI/4l1Qf+Md0P/jnRC/41vPf+MbDr/i2g3/5Z3Rf+Xe0j/lHhG/5BuPf+OdEH/lHhF/49zQP+RdEL/kXRD/5BzQ/+TdUX/lnZE/5B8SP+Gajf/iWo4/5F2Q/+Wekj/jHZD/4t2RP+LdkT/kXtK/4x4Rv+PhE//joBM/49/S/+cjmD/jXxP/5KCSv+Wgkz/kXhD/5B0P/+afUf/m3tG/6eDTv+phU//rIhS/6CDZv+Sfl//qIRM/6iFT/+silT/qZBZ/6yPV/+ohk7/q4dP/6yJUf+phE3/qIVN/6eGTv+skVf/rJRa/6mTWf+okVn/pIxS/6qRV/+tk1z/mpNa/0+GSv83bD7/QndN/y5vQf8peEf/H3RE/yBiNv8lajz/HmM2/yNaMf8cSSL/F0Ec/xxKJf8rYz//LGFA/y5gQf8gTC//Gkgp/xtLKv8qWjn/N2RO/4ePgv8bXDb/JGM4/2V+av8YZDT/GlIr/xVYMP8bbUL/EF4y/y50TP8ITCH/HWg9/w9IIP8TSSH/EFcu/ytoS/85SkH/QllJ/2x4cf8qVzT/IWM8/wtNJv8RYDb/E2A3/wlQKP8UXTb/E1kz/xlLKv8oRDL/JDss/xIeEf+bnYn/IVY6/yBKNP8bSzP/YHVs/5B1RP+PcUH/knJA/4poNv+OaDT/iWMx/5NsO/+Uf0z/k3xI/5J7Rv+QdUL/lXRC/5RzQf+UcT//j3E//5Z4Rv+RdkT/kXA+/4tuO/+RcT//j289/5N1Q/+OckD/kndF/5BzQf+Mbjz/jXhF/5N4Rf+QdUL/iW06/5R4Rf+Wf07/knxL/5WIVf+UiVf/lIdT/495Rf+We0n/koBM/5iHWf+bh1z/kH5H/5B6Q/+af0r/pIZQ/6mKVP+tjFX/rIpS/62KUv+wjFT/oIZh/5uIZf+rhkr/qYRP/66FT/+rhUz/q5JX/6uKUv+vjVT/rotT/6iGTv+nhEz/rIhQ/6uJUf+ujlX/rJRb/6yWXP+mjlT/qpFY/6uQWP+ok1z/k5Fc/1l5TP84ZDr/MnND/ydzQ/8fdEX/HmE2/yRsPv8dYDP/IFMo/xRPJv8VUij/JWA4/ydmP/8fWTT/LWNC/y5hQv8hUDH/IFAw/yFKKf81UT3/hYd7/ydnQf8nYjz/a4Rw/yBpPf8dUyz/IGE4/xZYMP8dWjT/I21G/w9eMv8QYjT/F2M4/xNFHv8XTy7/IVU+/xo2LP89UT//anhw/yRJJ/8VWDP/EVo0/xVRLP8OSST/C0Qf/xJJJf8QQyH/EzcZ/yhDMf8dNCT/ERwP/5qciv8hSC//LkUy/xhBKf9le3T/k3dF/4xzQP+OcT7/kHRA/5FvO/+Obzv/lGw7/4xsOv+WfUj/l39K/491QP+QbDj/j204/45uOv+SdED/kXZB/5R3Q/+XeUX/knM//494Q/+TdUH/k3tF/5F7Rf+Qd0L/kXVA/490P/+PdkH/j3tH/5R+S/+Sekf/j3VC/5aCUP+WhlT/k3lI/5JzRP+RdUT/l31K/55/Tf+beEf/nXtM/56CU/+kh1j/pYhV/6eJV/+ujlz/qopX/6F/Tf+riVr/qo9g/6qPYv+hjWz/n4xn/6qJUP+wi1b/q4ZN/7GMUv+zkVf/rIpR/6yLUv+sjVT/sJVc/7CSWf+sjVT/qopS/6qLU/+milD/p4xT/6uRV/+rk1n/o4lR/7KYYf+vkFv/j4ta/056SP83cT7/MXhF/zB4SP8rdkb/HWo7/xxnOP8gYTT/Kloy/yZlO/8eWTH/HGA3/yJZM/8kVDL/GUgo/x1EJv8cSSr/HUwq/zhQPP9+hHb/J2RB/yZSM/9qfmv/G1kw/yZQLf8gVzH/IWY//x5wRv8jdE3/EXVC/xRvPf8KVyr/DkUd/xk6If8jQTD/KUk7/y1GM/9tgXX/GUsn/x5bOP8VUi3/EEon/wk6F/8FQBv/CzoZ/ww1Fv8LLxT/JkU0/yM1Jv8RHxH/mZuL/ydIKv8bRSj/ETki/1duaf+QekT/j3ZB/5B4Qv+PdUD/k3E9/5N2Qf+OZzP/jm05/49yPv+Qd0H/l4hR/5J5RP+PcTz/kXE8/5J1QP+TdkL/lHhD/5J3Qv+Rcj7/lX5I/5V3Q/+Kcz3/lHhD/5JvO/+Wd0P/knhD/5d8Sf+YhVH/mYZS/5eIUv+UhVD/mIBL/5J1Q/+WcD//mnND/5pyQf+Zbz//nHZG/6SFVP+khU//qYZO/7CNVf+riFf/sI1b/62KWP+0kF3/qoxW/62NWv+vkF//sZJj/6SNXP+jf17/sI5W/66LVf+ui1P/qYZM/7CNVP+riVD/r5FY/62TWf+uj1b/qY5V/6yRWP+xlVv/r5Ra/6iOVP+oi1H/p4hP/66NVf+wk1z/o4lT/6iUZv+rlWP/oJxi/4+VWf9uhk//VIJT/yx0Q/8qeUj/IG09/xtfMf8dUCf/FFMo/yFaM/8dYTj/MmhC/yRWMv8iUzH/G0Ii/xlJKf8bSyj/S2RO/4qSgv8hXTr/JVU4/1VvWv8ZQyD/I0Ul/xpAHv8aVTD/GV02/zNpR/8VdET/FGY5/w9mOf8RXTL/E0Mr/yFENP8dPy//K1I8/3OLfP8RWyz/DV4s/xJdMP8GRh//DFQs/xpZNP8OQiD/C0Eg/xdLL/8XOCf/FSUY/yExHv+WmYj/GToc/xA7Hf8PNx7/Tmpi/5N2P/+Pcjz/j246/41pNv+ObTn/knM//5JvO/+VaDb/kWw5/5Z9SP+Ufkj/noVQ/5mDTf+QekT/kHhC/5F3Qv+YeUX/l3tG/5J7Rf+Se0X/k3tG/5Z8R/+VeUT/kG47/5FxP/+Rd0X/lHtJ/5B3RP+TcD3/i2w2/5Z4Qv+Qcj3/lntG/556R/+bdUL/poNR/6uIVv+xk2H/s5Zi/62PWf+wkFf/s5BY/6yIU/+yjVf/rYhQ/7KOVv+vjlf/rY1X/7GRWv+yk1z/rY5X/7STXv+xkFr/sY9Z/6mHUf+ui1T/sYxU/7CMVP+nh0//rpFZ/66SWf+pkFb/q5JY/7SRWf+wmWD/q5he/6WQVv+tilH/sYpS/66TXP+vmWL/q5Zg/6+ZZP+olF3/rJZj/6iRW/+YiVX/Tn5Q/zp6Tv8icTz/Imo7/x9gNf8sakD/KGM8/yNfN/8gWTL/JFk0/yRXNP8iTSz/HEws/yFMLf89XEX/dIFu/y9hQf8lXzf/LGM9/x1VL/8aSCX/GUon/xlSLv8cVjH/LmdF/yBtRf8bZD3/Dkkk/xhgNf8cUjf/HUAw/yFLOf8pUjz/b4N1/xRhMv8SZDT/CEgc/xBRKP8NVy3/DUol/w5GIf8OQB//Fjgb/yk+MP85SDz/Ezcb/52jjv8cTi3/FE8u/xBRMP8+alr/mHxF/5R9R/+UekX/l3dD/5BzPv+Ucj//lW06/5Z1Qf+PbDj/jnZB/5J6Rf+YfEf/m4RP/5qFT/+Re0X/lXtG/5NzP/+VeUT/mYFL/5d/Sv+Vfkn/lH1H/41yPf+XdkL/j289/5J3Rf+RdUT/l3RD/5+BTv+XeUL/n4BI/6GFTv+ghk//q4pU/6+MWP+riVb/tJNh/7OUY/+xlWL/tplk/7eYX/+2lFz/s45Z/7SOWP+yjFT/s45W/7STXf+vj1n/sZJZ/7GSWf+vj1n/spFd/7GSXP+zlF3/sZBa/7OOWP+xilT/to5W/7GKUv+vjFT/sI5W/7CQWP+xklz/sY9i/6+abf+snG3/qplp/66PWv+yk1v/qpBZ/62XX/+wnGX/sJ1n/6uWYv+slmX/rZRo/9HAov/a4s//f56H/zB9Uf8ZYzX/I2U5/x9RK/8eZD3/JmhA/x5cNP8kWjX/Kl87/xxKJ/8qTzH/MV9B/zhZPv91hG//J1U1/yxrQP8bVS3/Ilw1/xI/HP8USiX/F1Ir/xdVLf8gZj//E2E7/xtVMv8UORn/FFUt/xxSNP8tUD7/OmVV/y5gSf9ph3n/HnFD/w9eMf8SVyz/GWc6/xBpPP8PVS3/F0If/ww6F/8eWDH/JFs8/y5sTv8fVzL/mqSJ/x5XNP8VWDX/Els2/ythSv+Qbzr/lHlF/5iDT/+Yfkv/mXxK/5Z3Rf+ScT//jnE+/5RzQf+SbDj/ln1G/5J0Pv+We0b/mINP/5iDTv+Xfkn/lnZD/5FyPv+PdD//mX5J/5uET/+YhE//moNP/5p5SP+XeUb/l39J/5J5RP+afEz/oYZU/6+TXf+3nGT/tptl/7OZYf+xk1z/tZRf/66OWP+zkl7/tJRi/7KTYv+xlmX/tJtp/7aSYf+zj1X/tpNc/7GLW/+0ilH/s5Zd/7SXX/+ykVz/s5Bc/7aRXP+2klv/sJNd/7CUX/+2mGX/tZdj/62QWv+tkVr/rpFY/7CKWP+ujWD/sppu/8m2j//n3dL/+PPr//fx6v/T0rX/t6uA/6uUYv+wlmT/tKJ2/8zDrP/n4dL/39rH/9jTv//y7+L/9/X1//f09/+9w7v/Z5N1/yZrP/8jXzX/L187/yhrRf8kZT7/HF41/x5VL/8eVDD/GEMi/1ttUf9tdl3/T1lB/3+LdP8dRyj/H141/x5ZMf8fWjP/KWI8/x9eNv8gXzX/H2I5/yhrRP8SUi7/FUAg/xI1Ff8cWDL/GEos/yVAK/82ZFT/LXFW/2uKff8QYjX/HGs+/xdkN/8QXTH/DlMq/wxEH/8QTyv/DE8q/xVCIP8bUzL/IWVB/xhHI/+Zo4b/I08u/xlWNP8hZUP/L2RL/5x5Rf+aeEX/mXpG/5JzQP+Xekj/lnpI/5J3RP+UeUf/mX1K/5ZuO/+VfEX/k3E8/5RtOf+Zekj/kHpF/5mBTP+bfUn/l3hE/5h6Rv+TdUH/lHZC/5p6R/+YdkX/nHpK/5t7Tv+ki1z/q5Fj/6+VY/+2mGr/tpdn/827mv/Tw6P/upxx/7uZZf+0lF7/s5Nd/7aWYf+2lWP/spBg/7CPY/+0mm7/u6V3/7uic/+wlWf/vqF4/8u0kf/Ku5X/yrqU/8Crg/+ymXH/tppw/7OYa/+xlnD/tJl1/7ymff/ItYn/uaR4/6qUaf+1nnT/0sOn//Lt4//69/L/+vfz//j08//49PP/+fb0//n19P/49vX/6+TX/9/Xx//39fP/+PT2//n19f/69fX/+vX2//j09v/39vf/+fX1/+bn4/+LqI7/QX9V/yVnPv8pXjr/Hl85/yVoQP8bYDf/JF02/x5YM/8dTiv/M1Iz/0JaPf9bb1P/eoRs/0FnR/8cVS//J1g0/yJULv8qXjj/IVoy/yNfNv8gYTj/J2tD/xZaM/8WTyz/Fkko/w9NKf8WSCf/I0ov/ytYRv8jX0P/aIJ3/xBaL/8QVir/EFQp/w1IH/8YWjL/Gl03/xlYNP8VUi//G1Au/yNXOP8YWTb/GWxD/5SqjP8gYjz/FVYz/xBPL/83b1X/mGs3/599SP+ZekT/jnA8/5N5Sf+ghlT/mIBK/5B1SP+Wekj/k3I//5h8SP+efEn/mnFA/5hxQP+UcT7/nHxI/6ODT/+ggEz/mnhF/5FtOf+beEb/oHtJ/6J8Sf+6ooH/5dzP//Tu5P/17eL/+fDi/9fMu//o4NP/9vPw//Xy8v/18Oj/3M6y/8a2kP/BsIz/wrGN/86+mf/TwqX/7N/S//jz7v/59fL/+PPw//bw6//69O//+fTy//fy8v/59PX/+fby//f18P/38+3/+vbx//nz7v/58/D/+vX0//r19P/69/T/+fTw//r18f/49fX/+fX0//n19P/59fb/+fT2//nz9v/59Pf/+fX2//X19v/59fX//PXz//n19f/59fT/+fX1//n19f/59fX/+PX2//j19f/59fb/9/bz//H37v9vnYX/ImZA/yxlP/8ua0X/I2Y+/xxcNP8fWzP/GlEr/xxbNP8cTSr/JVUz/zhqSf9simz/KlY1/ypiP/8bUzD/GVc0/yZYNv8jRyf/IVo1/yNoP/8kaUL/IWpC/xNRLf8YRiX/E0wp/xJHJf8fUjL/I1tA/yRpRv9vg3f/FVwz/xNgM/8UXzP/DVEl/wxNJf8OVC3/EEcl/wlCH/8WRCH/IEkt/ydfQv8SXTb/g5l7/yFQLf8VSyb/D08u/x9VO/+ae0T/mHpC/5h+Rf+bgEj/nHc//5x/Sf+jjFn/nYVR/5l+S/+VeEb/l3hG/5JyQf+cfEv/l3hG/5h8SP+fhE//lXpG/5yBTP+dgUz/l3xH/5iAU/+zooX/6OHS//Tz8P/19PL/9fLz//fy8v/58/H/+fPw//Xy7v/18/H/9fPx//Xy8v/09O3/9vTz//by9P/39fP/9fL1//Tz8v/08+//9fL1//fy9P/38fP/9/Lz//jz8//48/P/+PPz//jz8//39PP/9vTz//f08//48/P/+fPz//nz8//58/P/+PP0//n09f/59fX/+fXz//n18//59fP/+fX0//n19v/59Pb/+fP2//n09v/59fb/+fX2//n19v/59fT/+fXz//n18//59fX/+PX2//j19v/49fb/+PX0//n19P/49fP/9fXz/7HDuP8+eFf/K2Y//yJeOP8makL/JGI8/xpZMf8gXTX/KWlC/xtRLP8jUS//GUgm/1t3Wf8qWTj/IFEx/yFVNv8cTS7/VW5T/yJPL/8tWjj/OWNB/yRYNP8VZj3/FGE6/xdKJ/8NRyX/Ekso/xtSMv8XUzH/LnpT/2qIef8Raj//E3JD/xNzQ/8Vd0j/EW1B/xpwR/8iZ0P/ElEu/xhGI/8jSCz/G0sz/xdUMP9tiWz/Fkkl/xRXLv8OTyj/IlAw/51+Sf+af03/nohc/6KQa//SybT/59zJ/+bcx//DuJ3/rJp1/5yFVP+hhVX/lnlM/5Z6Tf+jiFz/uKWG/5+KYP+gjlv/m4tZ/6mddv/QyK7/6ebY//Tz7//49Ov/+PTu//Xz8f/28vP/9vLy//fy8P/38u//9vPx//bz8f/28/H/9vPy//bx9P/28vP/9/Lx//jy8v/28/H/9fPw//X08P/29PP/+PPz//jz8//48/P/+PPz//jz8//48/P/+fPz//jz8//48/P/9/Pz//jz8//48/P/+PPz//jz8//48/P/+fT0//n19P/59fP/+fXz//n18//59fP/+fX0//n19v/59Pb/+fX1//n19P/59fT/+fX0//n18//59fP/+fXz//n19P/59fT/+fX1//n19P/59fP/+fXz//n18//49fT/7fDp/4mqkf8jZTz/KWtC/y5uR/8lYz7/JGU+/yJhOv8kZz3/GlEq/yNNKv8eSCb/Yn1g/yRTMv8sVTX/MGJB/1xwU/+Io5f/Wnxh/x1gOv8hYjr/KW1G/xNkOv8RTSb/G0Ef/yRPMP8iUTP/N2JE/zFlRv8ccEj/ZIZ4/xVaNf8VYTX/FF4z/w5WLP8MUyr/FVcw/xRMKv8GMhb/ETog/y5YOv8fQS7/FkUm/3GKbP8gXjf/EGE0/xRmOf8bakH/qJNo/8nArP/18ev/8/Dr//Px7f/z8e7/8/Hu//Tw7v/48vD/8O3h//Pv6P/y7Of/7urh//Xy6P/17ur/+PLv//f18P/29fD/9vTw//Lw7P/z8u7/8/Pu//Ty7//28vD/9vLw//by8P/28vD/9fHv//bx7//28/H/9vPx//bz8f/28/H/9vPx//bz8f/38/D/+fPw//bz8f/18/H/9fTx//b18v/49PL/+PTy//j08v/39PP/+PPz//jz8//58/P/+PPz//jz8//39PP/9vTz//f08//48/P/+PPz//jz8//59PP/+fXz//n18//59fP/+fXz//n18//59fP/+fX1//n19f/59fP/+fXz//n18//59fP/+fXz//n18//59fP/+fXz//n18//59fT/+fXz//n18//59fP/+fXz//n19f/59/L/tMex/zhzTf8vbET/M2xH/y5sSP8tcEr/GFkz/yNmPP8hWjH/K1s2/yFSLv9aeVr/J1U0/yZUNP8cUjD/eJB2/4yin/99kYT/K2E8/xBYLv8ld0z/HWQ7/xluQf8aWDL/KFg5/yhUOP8sWj3/FUUn/yBQMP9lfXP/Dj4d/x1ULv8cVS7/GFEp/wxBGf8SQx3/EUAd/xBAH/8RQiL/Jlo4/x8/L/8bQCL/eoht/xxaM/8OWC3/Dlgw/yVkRP/48Oj/9u7w//fu7v/17+3/8/Hs//Px7P/z8ez/9fDs//rv7f/z7+3/8fLr//Lz7P/28e3/9/Dt//nv7f/18ev/8/Lr//Ty6//08ez/9fDt//Xw7f/18O3/9fDt//Xx7//28e//9vLu//fx7v/18e//9fHv//by8P/28/D/9vPw//bz8P/28/D/9vLw//fy7//48u//9/Lw//bz8P/28/D/+PTw//f08f/39PH/9/Py//jz8//48/P/9/Tz//jz8//48/P/+PPz//jz8//48/P/+PPz//jz8//48/P/9/Tz//n08//59fP/+fXz//n18//59fP/+fXz//n18//59fP/+fXz//n18//59fP/+fXz//n18//59fP/+fXz//n18//59fP/+fXz//n18//59fP/+fXz//n18//59fP/+fX0//n29P+9xbj/dpd9/016Vv9Nelj/NnNQ/yxwSv8naUL/Imc8/xZSJ/8eWTD/IVMu/16AYP8gVjP/HF05/x5iPv8vWTn/qauV/zFWOv82Xz3/KGVC/ydzUP8RWi//HGA5/xZQLP8eUzL/H0wu/zFhRP8yVTv/HDQc/2l/d/8YTi//ImA7/x5UL/8WTSf/F1Iq/w5OJf8TUCj/FUgg/xdOJ/83bk3/I0Qy/x5CJf91iW7/F101/w9QKf8JTSL/IVo2//fv6//37+z/9u/s//bw6//28Ov/9vDr//bw6//28Or/9vHp//bx6f/28en/9vHp//bx6f/28en/9vHp//bx6f/28en/9vHq//fx6//48Oz/+PDs//fw7P/28Oz/9/Hu//fx7f/38e3/9vHt//fx7f/28e7/9vHv//by7v/28+3/9vLu//by7v/28u7/9/Hu//jx7v/48e7/+PHu//jy7//48+//9/Pw//bz8f/38vL/+fPz//nz8//39PP/+PPz//j08v/49PL/+PTy//n08v/59PL/+fPz//jz8//39PP/+fTz//n18//59fP/+fXz//n18//59fP/+fXz//n18//59fP/+fXz//n18//59fP/+fXz//n18//59fP/+fXz//n18//59fP/+fXz//n18//59fP/+fXz//n18//59fP/+fXz//j28/+5yrr/Z45r/1J4Vv84c0//LnJM/ydpQv8fYTf/IWk8/yJUK/8oWTL/UoNe/yVuR/8eZ0H/HF05/zNYOf+sq57/NmFH/y1XOf8mUjT/KF1E/xZaMP8XUC3/H1Uz/xFMKv8fWTj/Mlk//yVYO/8fUTH/coqB/xY/I/8UPB7/Ekkm/x1mPf8NTiX/D0sj/xJJIv8PRR//JGlD/yJ2T/8jUzX/Y29U/z9lRf8NWjT/EE0p/xVRLP8yV0D/9e7o//Xu6f/17+n/9u7o//Xv5//27+f/9u/n//bv5//27+f/9u/n//Xv5//17+f/9e/n//Xv5//17+f/9e/n//Xv5//17+f/9u/n//bv5//27+j/9u7o//bu6f/37+n/9+/p//fw6P/38On/+PHq//bw7P/38e3/9/Du//fx6//38e3/9/Hs//bx7P/38e3/9/Ht//fx7f/38e3/+PHt//jy7v/48e7/9/Lu//fy8P/58vD/+PLw//fz8f/28/H/9/Tw//j08P/49PD/+fTw//j08P/49PH/+PPy//fz8v/49PP/+fTz//n08//59PP/+fTz//n08//59PP/+fTz//n08//59PP/+fTz//n18//59fP/+fXz//n18//59fP/+fXz//n18//59fP/+fXz//n08//59PP/+fTz//n18v/59fH/+PXx/9Tf0f9vjWz/gKF+/zpuSv8/gFr/K3NL/ypuRP8lZjv/IF0z/z9nQv9Lc0//Ils1/ylkQP8hWzj/LlEz/6qqmv8qUzn/Gjkd/zBPNf8iSzL/F1Er/xZOLP8gUjH/HVUz/yJuS/8kZEj/Kl9C/xpVMP9qfnP/Hlc3/xJfOf8QVjD/E2k+/xNcM/8UUyz/CUgg/w5bL/8WbD//E3xN/z1qRv9vjGz/DmI6/xJtRP8SZD3/G2RD/yZXQ//z7uX/8+3l//Tt5v/07eX/9Ozk//Xs5P/17uT/9e7k//Xu5P/17uT/9O7k//Tu5P/07uT/9O7k//Tu5P/07uT/9O7k//Tu5P/17uX/9u7l//bu5f/27uX/9u7l//Xu5v/17ub/9u/m//fv5v/27uj/9+/p//fv6f/37ur/9+/p//fu6v/37+n/9u/p//fw6f/48er/+PHq//jx6v/58er/+fHr//fx7f/38e3/9/Ht//nx7f/28e3/9/Lu//bz7v/28+7/+PPu//jz7v/48+7/9vPu//fz7//48+//9/Pw//jz8f/48/L/+PPy//jz8v/48/L/+PPy//jz8v/48/L/+PPy//jz8//48/P/+fXz//n18//59fP/+fXz//n18//59fP/+fXz//n18//49PL/+PPy//jz8v/48/L/+PTx//j18P/49fH/9/Xy/7nAq/9lhWP/WXpZ/2mWcf8nd0z/Mm9H/yhcNP9Je1P/VHJN/xtaMP8eYTn/KGtE/yZqRP82aEj/oaGP/y1YPv8eUDL/KVo+/yxfRP8aYTz/Gl46/xZPLf8WXDn/FVk5/xtMNP8VSiz/GFcw/3mMf/8cck3/EWtF/xVJKf8bTy3/FFYw/xBTLP8TXjD/EHNA/xRmOP8zbUf/WHZY/xdMKf8IWjH/El83/xJYM/8UVzT/IVQ2//Tr4//07OP/9Ozi//Ts4f/06+H/9ezh//bs4v/27OL/9u3i//bt4v/17uD/9u7g//bu4P/27uD/9u3g//bt4P/27eD/9u3g//bu4P/27uH/9u7h//bu4f/27uH/9e7h//Xt4v/27uP/9+7j//bu5P/37uT/9+7k//ju5f/47+b/+O7o//jv5//47+f/9+/n//bv5//38Of/+PHo//jx6P/48ej/+PHo//jx6P/48en/+PHp//fw6v/48ev/+PHr//ny7P/58+z/+PPs//jz7P/38+z/+PLt//jx7f/48e7/+PLu//jz7//48+//+PPv//jy7//48u7/+PLu//jy7v/48u//+fPy//jz8v/59fL/+fXx//f08P/38/H/9/Px//jz8f/48/H/9/Pw//fz7//38+//+PPv//jz7//48u//+PPu//Tv7f/Jw8X/7e3h/6S5m/+JpoX/xMyz/0N+W/9WhF//U39a/yplPP8fYjj/Imk8/yVtQf8lbEH/IWc9/zRoRv9/fm7/Jkg5/ylOPf8fQTD/KEQ1/x5INv8cSzf/GEQw/xdNNv8lSjf/JEY2/yZVOP8vWjj/S2dZ/ythPf8wbUf/PmtH/z5lQf9LaEb/RmZD/0ZtS/8qWDn/JVAy/yhcO/8ZVDD/ElQq/xBYLv8TbUH/FWxD/xFoQv8XZUT/9uze//fr3//2697/9uve//Xs3//27N//9+7g//ju4f/37uH/9u7g//bu4P/37eD/+O3g//jt4P/369//9+vf//fr3//369//9+vf//fs3//37N//9+zf//Xs3//17N//9uzf//bu4P/27uH/9+7i//ju4//47uP/+O7j//ju4//47eT/+O3k//ju5P/47uX/9+7m//fu5v/37ub/9+/m//jv5//47+f/+O/n//jv5//47+f/+O7p//nw6v/58Or/+vHr//nx6//48ev/9vHr//fx6//58ev/+fHr//nx7P/58e3/+fHu//nx7v/58e7/+fHt//nx7f/58e3/+fHt//nx7v/58vD/+fLv//jz7//38+//9/Lu//jy7v/48u7/+PLu//jy7f/48+3/+PHu//jx7v/58e7/+fHu//nx7v/58u3/2tbN/7KtoP+UkYD/xsOw/8bDsf/V1cr/kKWP/3aee/88dE3/LGlA/yBjOP8kcUL/JnNC/ydyRP8gaT3/LGI+/7ivov9EYlL/KVM9/y9XQf89aFD/KGZN/yFUP/8hZ0//G29Q/yx0Uv8vX0P/Smxb/z5URv+Ek4v/KG9G/y1tRf8takD/NnhM/zl1TP86d0//Kl03/x5PK/8dWjH/HWE5/xdDIP8TSx//EVEo/xdpPv8OTyr/Dkoo/y1jR//369z/9+vd//fr3f/37N3/9uze//bs3v/47N7/9uvd//bs3f/27N7/9+vd//fr3f/3693/9+vd//br3P/269v/9uvb//br2//269v/9uvc//br3f/2693/9uvd//br3f/3693/9uzd//Xs3v/27t//9u7f//bu3//27uD/9+7g//fu4P/37uH/9+7h//ju4v/47uL/+O7i//fu4//27uT/9u7k//bu5P/27uT/9u7k//bu5v/27ub/+PDm//jv5//58ej/+fDq//jx6v/48er/+PHq//jx6v/48er/+PHq//jx6v/48er/+PHq//jx6v/48er/+PHq//jx6v/48er/+O/s//nx6//58ez/+fLr//fz6v/48+r/+fHq//nx6//28ev/+PLq//nz6f/58+n/9/Pp//nz6f/58ur/+fHr//jx6//58e3/+vPu//rz7v/68u7/+vHu//Xx6/+6xrX/hpx9/3Kcdf8taD7/ImU6/yZwQf8lcT7/JHFA/yRvQf8oZkP/gbKj/yxbQf8bTS//IE8u/zJvRv8cbD7/FF0y/xRoPv8XaUD/HFk1/0NiTP8xVUD/KlM8/2yDeP8ZVC3/F2M5/xNlN/8XYzT/GHFC/xVvQP8Saz3/EFwx/xpXMf8xZkz/Jkk0/xdDJP8WQyT/Dkkk/xBEIf8QWjb/IGBA//Xq2P/36tj/9+rY//Xq2v/16tr/9ura//jp2//26dv/9enb//Xq3P/569v/+evb//nr2//569v/9ura//fq2v/46tr/+Ora//nr2//469v/9uvb//fr3P/46t3/9+vc//fr3P/269r/9uza//ju3P/47N7/+Oze//js3v/47N7/+Oze//js3v/47N7/+e3f//ju4P/37uH/+O7i//ju4v/47uL/+O7i//ju4v/47uP/+e7k//bu5f/27uT/9+/l//nw5//58ej/+fHo//jx6P/68en/+vHp//rx6f/58ej/+fHo//nw6P/58Oj/+fDo//nw6P/58Oj/+fDo//nw6P/58Oj/+fHo//nx6f/48uj/+fLp//nx6P/58ej/+PHo//jx6f/48en/+fHo//jx6P/48ej/+PHo//jx6P/48ej/+PHo//jx6f/48ej/+PHp//jx6f/48en/+fHp/+3o3P+2uqP/a5Rr/zx3S/8jZTz/IGY4/yJsOv8meEb/Hms9/yZrQf8hWTL/KmQ7/x5bNP8mVjP/I1Av/xhTMv8YVjT/I1w8/yBYOP8jUjX/HEIu/yVcPf8/c07/a4p8/xhfOP8YaUD/E10z/xhgMv8WXC//EUwj/xpVLP8ZVy3/HlY1/z9oU/8lTjn/FFgu/xFNJv8dVjH/D1Yv/xBlPf8jXz//9enV//Xp1f/16db/9enW//Xo1v/26dj/+Ora//jq2v/46tr/+Ora//jq2v/46tr/+Ora//jq2v/369n/+OvY//jr2P/469j/+ezZ//js2v/469v/+Ovc//nq3P/669r/+eza//jt2f/47Nn/+OzZ//jr2//469v/+Ovb//jr2//369v/9uvb//br3P/47tz/+e3e//nu3//47uD/+O7g//fu3//37eD/9u7g//ju4f/47uL/9+7k//fu4//37uT/+e/l//nv5v/57+b/+e/l//nw5v/68Of/+e/n//nv5//47uX/+O7l//ju5v/47uT/+O7k//jw5f/48OX/+PDl//nw5f/58eb/+fDm//nx5v/58Ob/+vDm//rw5v/58eb/+PDm//nw5v/68Ob/+fHm//jx5v/48eb/+fHn//nx5//58ef/+fHo//nx5//58ef/+fLm//nx5//38ub/+PLm//ny5f+4vaT/ZpJs/zFyR/8zfUz/IHpF/yN+Sv8qeUj/J3BD/yFkOf8kaT7/HF42/xlNKf8dTCn/GVIv/yZIK/8fTzD/IEou/yJTN/8pVUH/MGlI/017VP92hXj/H1c0/xhSLv8cYTj/GF4z/w1SKP8WTyn/Fk4m/x5XLf8cVDL/QWpT/yVON/8TTST/CU4j/xRoPP8RVC3/D1Ms/xxJKP/469f/+OvX//jq2f/46tr/+Ora//jq2//569v/+evb//nr2//569v/+Ora//jq2v/46tr/+Ora//jq2f/56tj/+erY//nq2P/56tj/+erY//nr2P/569j/+evY//nq2P/56tj/+erY//nr2f/569j/+evY//nr2P/56tr/+era//jq2v/36tr/9+ra//nr2//57Nz/+ezc//nu3P/57d3/+ezd//nt3P/47dz/+Oze//nt3//47t//+O3g//jt4f/57eL/+e7k//nu4v/57+H/+e/h//nu4v/57uH/+u/i//nu4//57uL/+e7h//ju4//47uP/9+7j//ju4//47uP/+O7j//ju5P/57uT/+e7k//nu5P/57uT/+e7k//rv5f/68Ob/+vDm//vw5//78Of/+vDn//rw5//68Of/+vDn//rw5//68Of/+vHn//rx5v/47+P/+O/i//jt4f/57eH/+e3g//Pq1/+1wKL/iaF7/2aXav8ke0X/MHBA/y16Sf8qcEL/JWQ4/xVVLP8bWjL/G1Ms/y9iPv8dUjD/FUYl/yNfQP8nXED/Jkw0/zReSf8tbEv/UIJh/3uOhP8iYT7/HFo1/x1lPf8SWjL/H1s3/xlEI/8lUS7/J1wy/xlYMP8nZEL/HGZC/xdiN/8YYTX/FW5B/xFwQ/8NbkH/GnFI//ns2f/57Nn/+eza//nr2//569z/+erd//nr2//569v/+evb//ns2f/469j/+OvY//jr2P/369j/+evX//nq2P/56tj/+erX//rq1//76tf/++vW//vr1v/669b/+evW//nr1//569f/+erY//rs2P/67Nj/+uvZ//rr2f/669v/+uvb//rr2//569v/+evb//rr2//669v/+e3b//ns2v/669n/+uzY//ns2P/57Nr/+e3a//ns2v/57dr/+ezb//ru3f/67t3/+u7c//ru3f/67tz/+u7d//vu3//77uD/++7g//vu4P/77t//+u7h//nu4v/67uP/+u7j//nu4//57+P/+u/m//rv5f/67+X/++/l//nv4//57uP/+e7l//nu5f/57uT/+e7k//nu5P/47uP/+O7k//nv5P/58OP/+vDj//vw4//47uL/+e7i//nu3//47d7/+Oze//ft3f/47dz/+e3c//rt2//579n/zdKz/2ydcv9ij2L/PYNR/yp8Sv8rdUb/JW1A/yhpQP8qZ0D/JFs0/x9UMP8WRyb/GlU2/ypUOv8sVj3/KVw9/zBaQP84WUL/ZHps/yRdPP8haEH/GFgy/xVXLv8WXjP/E1ot/xpeMf8maz//EF8z/xBhOv8WWzf/FVwz/xReM/8GWS3/GXlL/xFnPP8qakT/9+vb//fr2//369v/9+vb//fr2//369v/+ezZ//ns2f/57Nn/+OvY//nq2P/46tX/+OrV//fq1f/56tT/+urU//np1P/56dT/+erU//rq0//56tP/+enS//jp0v/36ND/9+jR//jo0v/56NT/+enU//no1P/66tX/+ejV//no1//56Nj/+OnY//jp2P/46Nf/+ejX//jp1v/26dT/9+nT//np0//36dT/9unU//bp1P/26dX/9urU//bq0//26tT/+ezV//nr1f/569b/+evW//fq1//36tf/9+rX//fq1//369j/+OvY//nr2v/57Nz/+u3e//vt4P/67eL/+ezj//nt4//57eP/+e3i//nt4v/57eL/+O7i//fu4f/47uL/+O7j//ju4v/37uH/9u7h//bu4P/27eD/9u3g//js4P/47OD/+e3f//jt3//47N//9+zd//ft3P/57Nz/+evb//nr2//569v/+uvc//rs3f/57tr/5ufK/5iwjP+Rnnj/cJls/0WAUv9CflL/KnJG/xdiN/8aVS3/HFAs/ydQLv8kXT3/J0wy/ylDLf8dTDD/LF9D/ydbQP91hHP/Ikws/xpRK/8YWTH/HV42/wxSKv8RSiX/JVYy/xpfNv8TWS7/HV05/xRCIv8bVCz/Dk4l/xhzRv8bckb/EWxB/xRbNf/269v/9uvb//bq2v/16tr/9era//br2v/469j/+OvY//jr1//36tb/+OrV//bp0//26dP/9ejS//fo0P/46dD/9+nO//bpzf/36M3/+OjN//noz//56M//+OjO//bnzf/2587/9+jP//foz//46c//+OnP//npz//46c//+OnP//jpz//46s//+OrP//jpz//46c//+OnP//foz//36c7/+OrO//jp0P/46c//+OnP//jpz//36c//9+rP//fqz//569D/+erQ//nr0P/56tH/9+rS//bq0//26tP/9urT//fq0v/46tP/+erW//rs1v/669j/+evY//nr2v/57dv/+Ozc//js3f/47N7/+Oze//js3v/37N3/9uze//ft3//37t//+O/g//jv4P/47+D/9u7g//Xt3//27N7/+Oze//js3f/57Nz/+O7c//ns3P/57Nz/+ezc//fs2v/57Nr/+eza//rr2v/57Nv/+ezc//rt2v/38Nr/6ufQ/+Hbw/+1vJ3/fI9p/3GLZP82bUP/IWk//yViOv8lXjn/I1Eu/xRVMP8fWzf/G103/x5YNv8jYkH/FkEk/3uKcv8kUTH/Gl03/yd1TP9HgVz/Hlw3/xM8HP8ZRyb/IWI9/xFPJv8sTzH/Fjwf/xVSKf8UVi//EHRF/xdnO/8XZDv/IG1J//nr2//569v/+Ora//fq2v/16tn/9uvY//fr1//26tT/9erU//bq1f/26dT/9efT//Xn0f/159D/9ujQ//jp0P/36c7/9unN//jozf/56M3/+ejN//nozf/56Mz/+OjL//joy//56Mv/+ejL//nnzP/56Mz/+ejK//npyv/56cr/+enK//npyv/56cr/+enK//noyv/56Mv/+ejM//nozP/56Mv/+ejL//noy//558z/+ejN//nozf/36M3/+OjN//npzv/56c7/+OnO//jqzv/36c7/9+jP//foz//36M//+OjQ//jo0P/46c//+erO//nqz//56s//+erQ//nr0f/56tH/+evS//nq1P/56tb/+erW//nq1//56tj/+evZ//nr2v/57Nz/+e7d//ju3//37t//9+7g//fu4P/47eL/+e3h//rt4P/47N//+O3d//ju3P/57Nz/+ezc//rs3P/77Nv/++3b//rt2//57Nz/+u3a//ju2P/97Nn/7+bS/6+vlv+koYP/xL6f/4iXdf8oYDn/FmI4/xdaNP8bQyH/IU0s/x5SM/8beEr/Fmw8/yZzSf8iSiv/d451/yxkRf8dWjf/KGxI/xNSLv8YRiT/Hlk0/yJgOv80ZUL/E04o/ylLMf8ZPyP/G1ov/xVQJ/8KZjf/Dlov/xNSK/8tZED/+Ovd//nr3f/5693/9+vd//bq3P/26tv/+evc//nr2//57Nv/+evb//nq2f/46db/+OrV//bq0//46tH/+erR//jp0P/46c7/+ejN//jnzP/458z/+OjM//joyv/55sn/+efJ//nnyf/558n/+ebK//nmyv/55sn/+ebJ//noyf/558r/+efK//nnyv/558r/+ebJ//nnyv/558r/+efK//nmyf/55sn/+ebJ//nmyv/558v/+efL//joy//46Mv/+unM//rpzP/56cz/+OnM//jozP/4583/+OfN//jnzf/4583/+OfN//joy//46cr/+OjL//nozP/458z/9+fM//jozf/56c7/+enO//nozP/56c3/+OnO//bozv/36c//+OnQ//np0f/66dP/+urV//ns1//77dr/++3b//vt3f/77d3/+uze//vs3v/57tz/+e7b//nu2//77dv/++zc//vu2//77tv/+u3c//ns3P/57dr/+e3Y//bu2P/GzLT/f5V3/2p/Xv9+hGb/sbSX/5OegP9HcU7/KWtE/yRXNP8pXD3/PWBH/yR0TP8ddUb/GnRI/xxQLf+Ml3//Hk8x/0ViR/8mRin/H1Ew/x9gO/8YWDL/I184/zFiP/8cVS//M2ZN/xRKKf8RXTD/D1Qq/xBrOf8SYzb/FWI4/xhbNf/47OD/+O3g//jt4P/47OD/+O3g//nt3//47N//+eve//nr3v/669z/+evZ//nq1v/36tT/9+nS//jo0f/56ND/+OjO//nozf/56Mz/+efL//nny//558r/+efK//nnyv/558n/+efJ//nnyf/558j/+ufI//rnyP/658j/+ufI//nnyf/558n/+efJ//nnyP/45sf/+efI//nnyf/558r/+efK//nnyv/558r/+efK//nmyf/558n/+OfJ//fnyf/56Mv/+ejL//noy//46Mv/+efL//nny//558v/+efL//nny//558v/+efK//noyv/558r/+efK//nny//558v/+efL//nny//56Mv/+ejK//npyf/46Mr/9+jK//jpy//56cz/+unN//rozf/56M3/9+nO//fpz//46s//+OnQ//bp0P/26tP/+evW//rs2P/67Nj/+e3Y//nr2P/77dv/++3a//rs2v/77dv/+u3c//nt2v/57tj/8OrT/4qdgf9Ed1P/fJRy/7uvlf/r3cT/vq2V/6injv9mdFj/MEkt/z9gRP87XUT/LFs7/ylTMP80ZUL/KV49/4eQeP8bQyb/N1M4/zRVOP8iYT7/IWM//x5bOP8aTy3/Jlc2/xxTMf8+aFL/Hlw3/xJnOP8TWDD/D3A8/xZpOv8hckb/G2c+//ru5P/57uT/+e7j//nu4//47uL/+O3g//js4P/5697/+evd//rr2v/469j/+erV//bp1P/46NL/9+jQ//joz//56M3/+ejL//nnyv/558r/+efK//nnyv/55sn/+ebJ//nmyf/55sn/+ebJ//nnx//65sf/+ubH//rnyP/558f/+efH//nnx//558f/+ObG//jmxv/558f/+efJ//nnyv/558r/+efK//nnyv/558r/+ebJ//nmyf/45sn/+OfJ//nnyv/558r/+efK//noyv/558r/+efK//nnyv/558r/+efK//nnyv/558r/+efK//nnyv/558r/+efK//nnyv/558r/+efK//noyv/56Mr/+ejK//fny//358z/+OfM//nozf/56M3/+ujN//npzv/46s7/+OrO//jqzv/46s7/9urO//bq0f/369L/+urV//rq1f/569X/+erW//jp1v/56tb/+erY//rr2f/669r/+ezZ//nu1//x6dH/u7af/7rAo/92hWX/mZt+/7uymf+yqpH/bIFj/5qjif9NW0H/LlQ3/0BkSf8iSSv/KVMz/zhUN/9AXED/g451/yM5Hv8zVjf/TnRU/zdiQf82XT7/NFQ3/zNOM/8wTzP/E0cm/0RxW/8hVC3/FFcr/xxQLf8XbDn/HnhF/xNuP/8WVzD/+u/n//nv5v/47+T/+e7k//nu4//47eH/+Ozg//nr3f/569v/+erY//nq2P/56dT/9+nS//fo0P/26M7/+OfN//jnzP/458v/+ebJ//nmyP/55sj/+ebI//jmx//35cb/+OXG//jlxv/55cb/+ObG//nmxv/55sb/+ufI//nmx//55sf/+ebI//nmyP/55sj/+ebI//nnyP/558n/+efK//nnyv/558r/+efK//nnyv/558r/+efK//nnyv/558r/+efK//nnyv/558r/+efK//nnyv/558r/+efK//nnyv/56Mv/+ujL//roy//66Mv/+ujL//roy//66Mv/+ujL//noy//56Mv/+enL//npy//56cv/+OfM//jnzP/46M3/+ejO//nozv/56M//+enP//nrzv/568//+erP//fqz//2687/9uvP//fr0P/56tL//OrS//3p0//66tL/+urS//rq0//66tP/+evU//jr1v/369b/9+vX//fp1f/47Nb/6uPK/52qi/+FlHP/rrKX/6Ktkf9rhWT/TGtL/0tgQ/9lhmj/KVY2/xpBIv8nXj3/RGRH/1NlSv+LkHf/WWlO/0tgRP9DdFT/RWhJ/1h3Wf9BWz3/Q11B/151Wf8bSiz/HUcw/xdcLv8aZzn/Ilc0/xZbK/8ZdEH/FWc8/yVdOP/57+f/+u/n//nv5v/57+T/+e7j//nu4f/67t7/+uzb//nq2f/56db/+urW//np0//46NH/9+jP//bozf/46M3/+OfM//jny//55sr/+ObI//fmyP/35sn/9ubH//Xkxv/35cX/+eXG//nmx//458j/+OfJ//jnyf/558r/+efM//nnzP/558z/+efM//nny//55sv/+efM//nozP/56Mz/+ejM//nozP/56Mz/+efL//nnyv/558r/+efK//nnyv/558r/+efK//nnyv/558r/+efK//nnyv/558r/+efK//roy//66cz/+unM//rpzP/66cz/+unM//rpzP/66cz/+enM//npzP/46cz/+OnM//jpzP/56c3/+enO//npzv/56tD/+enR//rp0v/56tP/+erV//nq1v/66tf/+erX//jr1f/36tb/9+rX//jq2P/66tj/+urY//nq1//46tf/+evX//jr1//569j/+ezY//fs2f/37Nn/9+zZ//fs2f/x6dT/mKaJ/22IXv+RpXn/v8Cb/5ibeP9DYj//OGA//0ZtTP8jTi3/Ll07/zxqSP8lUzH/NWJA/1V7W/8aUzD/KF07/yNDJv8dUzD/HVYy/yJNK/8fSin/LF0//z1hRP9BZk//HFgp/xhjN/8eZTz/HFYs/x5iN/8WXTT/F1Uz//rw5//67+b/+e/k//nu4v/57uH/+e7e//ns3P/669r/+erX//nq1f/56dT/+enS//fo0P/26c7/9unN//jozf/56Mz/+efN//nmzP/458r/9+fL//jny//46Mv/+ejM//noy//558r/+efK//joy//458z/+OfM//jnzf/56M//+ejQ//no0P/56M//+ejQ//no0P/56ND/+ejP//noz//56M7/+ejN//nozf/56M3/+ejL//noy//56Mv/+ejL//noy//56Mv/+ejL//noy//558r/+efK//nnyv/56Mr/+ejL//roy//66Mv/+ujL//roy//66Mv/+ujL//roy//56Mz/+unN//jpzf/36c3/9+rN//jpzv/56c//+erQ//nq0f/66tT/+urW//nq1//569n/+uvc//zs3f/77N//++3e//vu4P/97+H//vDh//vv4f/67+H/+e7g//ft4P/47+H/+e7h//nu4P/67uD/+e7f//nv3//579//+fDf/+3p1v+Ln4D/dYpk/7Cnjf/PyLL/3dzF/8PJsf9Hf1z/KmA8/1R/Xf8+b03/QmVE/ypjPv8jXzr/L3JL/ydnQv8qWDf/IVUy/x9QL/8iVDL/JWQ//yhiQf8/Z07/IU8w/ylGMP8lXC3/Glwx/ydiOv8XXjL/EGw+/x5rQ/8wXD7/+u/k//nv4//47uH/+O3f//jt3f/569v/+evZ//nq1//36dT/+ejT//fo0f/36ND/9ujP//bozf/26c3/+OjN//nozf/56M7/+OfO//fnzf/46M3/+ejO//jozv/46M3/+OjN//jozf/56M3/+enP//rq0f/56dH/+unS//rp0//66dP/+unT//rp0//66dP/+unT//rp0//66dL/+enR//no0P/56c//+OjO//jozv/56M3/+ejN//nozf/56M3/+ejN//nozf/56M3/+unM//noy//658r/+efK//joyv/46Mr/+efK//nnyv/558r/+efK//nnyv/558r/+efK//nnzP/66M3/+ejN//npzv/46s7/+erO//np0P/56tH/+erT//nq1f/569j/+evZ//ns2v/57Nz/+uzc//rs3v/67t//+u7f//vu4P/77uD/+u3f//nt3//47uH/+e3h//nt4f/57eH/+e7g//nu4P/57+D/+PDh//jw4f/58eL/9vLg/5iukf+RoHz/sbKY/7a1n/+xsp//rrOd/0NoSf9YhWH/XIVj/zplRf8kWTX/JHZN/zl7Vf85cU3/Ilk2/yVZN/8hUDD/Hk4s/z1qSv8sXj3/OmhK/ytPOP8nSiz/OEg0/1JtQ/85bkX/J184/ydZMv8xa0T/Hm1G/yFkQf/57t//+ezd//nr3P/569n/+OvX//bp1P/26NH/+OjR//fn0P/359D/9+jP//joz//2587/9efN//bozf/46M7/+OjO//nozv/46M//9ujP//fpz//46s//+OnQ//jp0f/46dH/+OjR//no0f/56tP/+urV//rp1P/66tb/+urV//rq1f/66tX/+erV//np1f/56dT/+enU//np1P/56dP/+OnR//jp0P/36M//9+jP//nozf/56M7/+ejO//nnz//56M3/+ejN//nozv/66M3/+efN//nnzP/558z/+OjL//jozP/458z/+OfM//jnzP/46Mz/+ejL//npy//56cv/+ejM//npzf/56c7/+erP//nq0P/56tH/+erT//nq1P/569X/+evY//rr2f/57Nn/+eza//ns2//569v/+evb//nt2//57tv/+e7c//nt3P/47dz/+O3d//bu3//47eD/+O3h//jt4f/47eH/+e/i//rx4//48eP/+PHk//ny5P/68+X/0dW//7C5m/+HmHr/Y3NU/5aYfP+boIL/iJV2/665nP9Qelf/QWxK/2WKaP9Nh2L/UYxn/zVyTf8aUy//HE8u/zJlRP82YkP/PGhI/zNfP/8iSy3/Q1U//4GPc/9nb17/eI1p/0hjQP83WTb/XYVh/zRxS/8zbEn/IGVC//nq2v/56Nj/+efW//jo1P/36dP/9ujR//bn0P/359D/9+fQ//nn0P/559D/+efQ//fmz//158//9ujP//fo0P/36ND/+OjQ//jo0P/36dD/+OnR//np0v/56dP/+unU//rp1P/66dT/+unU//rq1f/76tj/++rY//vq2P/66tf/+urW//nq1v/56tb/+urV//rq1f/66tX/+urV//rq1P/56dP/+erR//jp0P/46dD/+ejP//no0P/56ND/+ejQ//no0P/56ND/+ejQ//no0f/56NH/+ufR//no0P/56M//+ejQ//no0P/56NH/+ejR//no0f/66dL/+unS//rp0v/66dL/++rT//rq1P/769X/++rW//rq1//66tf/+evY//nr2P/669n/+uza//rr2f/569n/+evZ//fq2P/369j/+ezY//nr2f/57Nv/+Ozd//ju3v/47t//+O/h//nu5P/57uT/+e7l//nv5v/68Ob/+fLn//ny5//58ub/+fPm//zx5v/57+X/wcm3/3+Zdf++yaj/r66U/42Zfv94fGL/qbWZ/1yGYf9Lc07/hIxu/3eOb/88d1L/HGU+/xlgOv8qbEj/WXZY/1t7Xf9Kakz/KE0u/yhNL/9ddlv/lp6D/1BdS/9KXkf/NFg3/zZeOv80Wjb/L2RA/ytpRv8qY0L/9+nX//jo1f/56NT/+OjS//fp0//46NL/+OjS//jo0v/46NL/+ejS//np0//56dP/+OjR//jo0f/56dP/+urU//rq1P/66tT/+uvV//rr1v/769f/++rY//vq2P/76tj/++vX//vr2P/769f/+evX//vq2P/76tj/++rY//vq1v/66tX/+erV//nr1f/56tX/+urV//rq1f/66tT/+enU//np0//56dP/+OjR//np0f/66dP/++nT//rp0//66dL/+unS//rp0v/66tH/+unS//rp0//66dP/+unT//rq0v/56tP/+erU//jr1P/46tT/+OnW//rq1//66dn/+unZ//rp2f/869j//Ora//3r2//969v/++vb//rr2f/67Nr/+e3a//rt2//77tz/++7b//rs2//57dz/+u7d//ru3v/77uD/++3i//3v4//67uT/+u7k//nv5f/68eX/+/Hm//vx5//78ej/+vHo//nx5//58ef/+fHn//nx5//58ef/+/Hn//vy5//o6dj/n6qM/3ycef9WeFb/kpd+/2h2Wv91l3b/W4dj/12CXv9kiWf/N3BL/zFyTP8sc03/L3RO/052V/87aUj/Nl0+/xxFJf8nWTj/L14+/0tkRv+GjnP/QF1I/y1NMv9UbU7/Lkcm/3qQb/9UbU//K0gs/z1IMf/56df/+OnV//fp1P/56NT/+enT//np0//56dP/+enT//np0//26tP/+unV//rp1f/56dX/+enV//nq1v/569f/+evX//nr1//569f/+uzY//rr2f/669n/+uvZ//nq2P/56tj/+erY//nq2P/569b/+erW//nq1v/66tX/+enT//np0//56dP/9+rT//jp0//56dP/+enT//np1P/56NT/+ejU//np0//56dP/+enT//rq1P/96tT/+unT//ro1P/56NL/+OjR//jo0f/46NH/+enT//no1P/66tT/+urU//rq1f/569f/+evX//nr1//569f/+erY//nq2v/669v/+uvb//rr2f/669r/+uva//rr2v/77Nv/++zc//ns3P/57Nz/+u3d//ru3f/67d3/+u3d//ru3f/579//+e7i//ru4//67uP//fHk//vv5f/67+b/+fHm//nx5v/58eb/+fHn//rx6P/68ef/+fHn//nx5//58ej/+fHo//nx6P/68ej/+vLm/+Xl1f+Upo//oLCT/4+gfv/X0bz/i4Zy/9XSvP+zxan/XYZj/z15Uv9EeFL/OW9K/ypqRf8pXz3/RmtM/1F0Vf8nUDH/Mlo9/zlXO/89XUH/Q14//6axlf8+YEj/Llc4/yBNKv8oWTT/RndT/3aKbf9GX0P/NUgx//nq1f/36tX/9+nU//no1P/56NT/+ejU//no1P/56NT/+ejU//jp1v/56tj/+erY//nq2P/56tj/+uvZ//rr2f/669n/+uvZ//rr2f/669n/+uvZ//rr2f/66tj/+urY//rr1//569b/+erV//bq1f/46tX/+OrV//np0//56NL/+OjR//jo0f/46NH/+enS//np0//56dP/+enU//no1P/56NT/+ejU//no1P/56NT/+urV//rq1f/56NT/+ujU//no1P/56NT/+enT//np0//66tT/+urV//vr1v/669f/+uzY//rs2P/67dj/+uzY//rr2f/669n/+uvZ//vu2//77tv/+uvZ//rr2f/669n/+uva//vs3P/77Nz/+ezc//nt3P/57Nz/+ezc//ns3P/57N3/+e3f//nu4P/57uL/+u7j//ru4//57+P/+e7k//nu5P/37uT/+fDm//nx5v/58ef/+fHn//nx5//68ef/+fHn//nx6P/58ej/+fHp//nx6f/58uf/9vLk/+fk1f+rr5b/gZJx/8W9q//FvbD/1sy//83Hs/+br5L/O3dR/y1iPf8wc0z/IF84/xpSLv8tXz3/J0Ql/yRPLf8iSyz/OWBD/0NqTv80Z0P/SmtJ/1h5X/9limv/Qm9N/y5YNv84elP/PWlI/yZaOf8pXUD/9unU//bp1P/26dT/9unU//fp1P/56dT/+urW//rp1//66df/++nZ//zr2f/869n/+uvZ//rr2f/56tj/+erY//nq2P/569j/+evX//nq1v/66tb/+urW//rp1f/66dX/+unU//ro1P/66NT/+ejU//no1P/56NT/+ejU//jn0//459P/+OfT//jn0//56NT/+ejU//no1P/56NT/+ejU//no1P/56dT/+enU//fp1P/56tX/+urV//no1P/66NT/+urV//rq1f/66tX/+urV//vr1v/769f/++vW//rq1f/769b/++vX//rr1//669f/+uvX//nr1//56tj/+uvZ//rr2f/669n/+uvb//rr2//669z/++zc//vs3P/77Nz/+uzc//rs3P/569v/+evb//nr3P/5697/+u3f//nt4f/57uL/+u7j//rw5P/67+b/+u/m//ru5//67uf/+u/n//ny5v/68ef/+/Ho//zw6f/78ej/+fHn//nx5//58ef/+fHo//nx6P/37+z/9O/o/8DEr/9sjm7/sbOc/62mkv/TzLj/xMGp/6i3m/9JeVf/OXJO/zRlQP8hXDb/GFcx/xlPK/8kTSv/K1c1/yZVM/8qVDb/JU8y/yFkQP87bUv/U3RX/z1dQf8yWjz/Ll06/xpwR/8iZT7/JmZB/z1jR//26dT/+OrV//nq1f/56tX/+erV//nq1f/66tb/+unX//rp1//66Nn/++rY//rq2P/56tj/+OvY//nq1//56df/+enX//nq1v/26dT/9+jU//no1P/56NT/+ujU//ro0//66dL/+unT//rp0//56NT/+ejU//no1P/56NT/+ejU//no1P/56NT/+ejU//no1P/56NT/+ejU//no1P/66tX/++vW//vr1//669f/+evW//nq1f/56tX/9unU//no1P/56NT/+ejU//no1P/56NT/+urV//rq1f/66dX/+ejU//rp1f/66tX/+urV//rq1f/66tX/+erV//nq1f/569f/+evX//rr2f/669v/+uvb//rq3f/77Nz/++zc//vs3P/77Nz/+uzc//ns3P/57Nz/+ezd//ns3v/67t//+e3h//ju4v/47uL/+e/j//nu5P/57uT/+e7m//ru5//67+f/+fLm//ny5v/68ej//fDp//vx6P/58ef/+fHn//nx5//58ej/+fHp//ju7v/17+z/8vTi/5mskP9ugGT/oJ2F/7y3n/+zuJ7/Xopp/5KylP9qj3D/PGZC/ydfN/8pYz3/HlIv/xxXMv8tXTj/KFQx/yBLLP8sVTz/Ql1L/2x2Zv84RjL/M0Mq/zVZPP8bUzD/LF87/1yIY/8kZ0H/OVk9/w==;" vertex="1" parent="1">
                    <mxGeometry x="91" y="212" width="128" height="128" as="geometry"/>
                </mxCell>
                <mxCell id="5" value="車載カメラのデータ&lt;br&gt;（イメージ）" style="text;html=1;align=center;verticalAlign=middle;resizable=0;points=[];autosize=1;strokeColor=none;fillColor=none;fontSize=16;" vertex="1" parent="1">
                    <mxGeometry x="70" y="340" width="170" height="50" as="geometry"/>
                </mxCell>
                <mxCell id="14" style="edgeStyle=none;html=1;fontSize=16;" edge="1" parent="1">
                    <mxGeometry relative="1" as="geometry">
                        <mxPoint x="350" y="390" as="sourcePoint"/>
                        <mxPoint x="240" y="330" as="targetPoint"/>
                    </mxGeometry>
                </mxCell>
                <mxCell id="19" style="edgeStyle=none;html=1;exitX=0.91;exitY=1;exitDx=0;exitDy=0;exitPerimeter=0;entryX=0.106;entryY=0.644;entryDx=0;entryDy=0;entryPerimeter=0;fontSize=16;fontColor=#000000;endArrow=none;endFill=0;" edge="1" parent="1" source="7" target="17">
                    <mxGeometry relative="1" as="geometry"/>
                </mxCell>
                <mxCell id="21" style="edgeStyle=none;html=1;fontSize=16;fontColor=#000000;startArrow=classic;startFill=1;endArrow=classic;endFill=1;" edge="1" parent="1" target="2">
                    <mxGeometry relative="1" as="geometry">
                        <mxPoint x="400" y="440" as="sourcePoint"/>
                        <Array as="points"/>
                    </mxGeometry>
                </mxCell>
                <mxCell id="7" value="&lt;font color=&quot;#000000&quot;&gt;5G基地局&lt;/font&gt;" style="fontColor=#0066CC;verticalAlign=top;verticalLabelPosition=bottom;labelPosition=center;align=center;html=1;outlineConnect=0;fillColor=#CCCCCC;strokeColor=#000000;gradientColor=none;gradientDirection=north;strokeWidth=2;shape=mxgraph.networks.radio_tower;fontSize=16;" vertex="1" parent="1">
                    <mxGeometry x="400" y="313" width="55" height="100" as="geometry"/>
                </mxCell>
                <mxCell id="12" value="現在の方式" style="text;html=1;align=center;verticalAlign=middle;resizable=0;points=[];autosize=1;strokeColor=none;fillColor=none;fontSize=16;" vertex="1" parent="1">
                    <mxGeometry x="160" y="600" width="100" height="30" as="geometry"/>
                </mxCell>
                <mxCell id="13" value="" style="html=1;outlineConnect=0;fillColor=#CCCCCC;strokeColor=#6881B3;gradientColor=none;gradientDirection=north;strokeWidth=2;shape=mxgraph.networks.comm_link_edge;html=1;fontSize=16;" edge="1" parent="1">
                    <mxGeometry width="100" height="100" relative="1" as="geometry">
                        <mxPoint x="250" y="300" as="sourcePoint"/>
                        <mxPoint x="360" y="370" as="targetPoint"/>
                        <Array as="points">
                            <mxPoint x="250" y="260"/>
                            <mxPoint x="150" y="190"/>
                        </Array>
                    </mxGeometry>
                </mxCell>
                <mxCell id="16" value="5Gで&lt;br&gt;高速・大容量通信" style="text;html=1;align=center;verticalAlign=middle;resizable=0;points=[];autosize=1;strokeColor=none;fillColor=none;fontSize=16;" vertex="1" parent="1">
                    <mxGeometry x="190" y="380" width="150" height="50" as="geometry"/>
                </mxCell>
                <mxCell id="20" value="" style="edgeStyle=none;html=1;fontSize=16;fontColor=#000000;endArrow=classic;endFill=1;startArrow=classic;startFill=1;" edge="1" parent="1" source="17" target="3">
                    <mxGeometry relative="1" as="geometry"/>
                </mxCell>
                <mxCell id="17" value="" style="points=[];aspect=fixed;html=1;align=center;shadow=0;dashed=0;image;image=img/lib/allied_telesis/computer_and_terminals/Server_Desktop.svg;strokeColor=#000000;strokeWidth=3;fontSize=16;fontColor=#000000;" vertex="1" parent="1">
                    <mxGeometry x="510" y="386" width="42.599999999999994" height="54" as="geometry"/>
                </mxCell>
                <mxCell id="18" value="基地局の近くに&lt;br&gt;設置されている&lt;br&gt;エッジサーバー" style="text;html=1;align=center;verticalAlign=middle;resizable=0;points=[];autosize=1;strokeColor=none;fillColor=none;fontSize=16;fontColor=#000000;" vertex="1" parent="1">
                    <mxGeometry x="480" y="310" width="140" height="70" as="geometry"/>
                </mxCell>
                <mxCell id="22" value="今回のシステム&lt;br&gt;の作成部分&lt;br&gt;・画像圧縮&lt;br&gt;・異常検知&lt;br&gt;・画像認識&lt;br&gt;etc..." style="shape=callout;whiteSpace=wrap;html=1;perimeter=calloutPerimeter;strokeColor=#000000;strokeWidth=1;fontSize=16;fontColor=#000000;direction=south;position2=0.63;" vertex="1" parent="1">
                    <mxGeometry x="590" y="345" width="160" height="120" as="geometry"/>
                </mxCell>
                <mxCell id="24" value="これからの方式" style="text;html=1;align=center;verticalAlign=middle;resizable=0;points=[];autosize=1;strokeColor=none;fillColor=none;fontSize=16;fontColor=#000000;" vertex="1" parent="1">
                    <mxGeometry x="491.3" y="600" width="140" height="30" as="geometry"/>
                </mxCell>
            </root>
        </mxGraphModel>
    </diagram>
</mxfile>